<svg xmlns="http://www.w3.org/2000/svg" width="16.226" height="16.227">
    <path data-name="Path 16976" d="M15.615.613A2 2 0 0 0 14.147 0H2.082A2 2 0 0 0 .614.613 2 2 0 0 0 0 2.081v12.064a2 2 0 0 0 .613 1.468 2 2 0 0 0 1.468.613h12.065a2.092 2.092 0 0 0 2.081-2.081V2.081a2 2 0 0 0-.612-1.468zM5.827 5.847a3.188 3.188 0 0 1 2.3-.924 3.2 3.2 0 0 1 2.308.924 2.994 2.994 0 0 1 .956 2.234 2.993 2.993 0 0 1-.956 2.234 3.2 3.2 0 0 1-2.308.925 3.188 3.188 0 0 1-2.3-.925 2.993 2.993 0 0 1-.956-2.234 2.994 2.994 0 0 1 .956-2.234zm8.562 7.865a.616.616 0 0 1-.19.459.63.63 0 0 1-.454.185H2.452a.632.632 0 0 1-.644-.644V6.867H3.3a4.549 4.549 0 0 0-.211 1.384 4.639 4.639 0 0 0 1.479 3.46 4.936 4.936 0 0 0 3.56 1.431 5.078 5.078 0 0 0 2.536-.655 4.932 4.932 0 0 0 1.838-1.78 4.681 4.681 0 0 0 .676-2.456 4.55 4.55 0 0 0-.211-1.384h1.423v6.846zm0-9.434a.722.722 0 0 1-.729.729h-1.838a.721.721 0 0 1-.729-.729V2.535a.709.709 0 0 1 .211-.512.7.7 0 0 1 .518-.217h1.838a.7.7 0 0 1 .518.217.709.709 0 0 1 .212.512z" transform="translate(-.001)" style="fill:#5a5a5a"/>
</svg>
