<svg xmlns="http://www.w3.org/2000/svg" width="139.802" height="141.936">
    <defs>
        <style>
            .cls-1{fill:#fff}
        </style>
    </defs>
    <g id="Group_2708" data-name="Group 2708" transform="translate(529.46 -66.698)">
        <path id="Path_17014" data-name="Path 17014" class="cls-1" d="M-456.905 208.634c-4.724-.258-8.99-.294-13.2-.786a42.035 42.035 0 0 1-9.269-2.086c-5.135-1.844-10.169-3.993-15.154-6.219a49.522 49.522 0 0 1-13.939-9.47 51.912 51.912 0 0 1-10.09-13.5c-.989-1.874-2.15-3.658-3.136-5.533a51.468 51.468 0 0 1-5.725-15.56c-.593-3.609-1.2-7.215-1.789-10.825a11.033 11.033 0 0 1-.15-1.707c-.023-4.573-.362-9.144.364-13.714.4-2.488.343-5.045.562-7.564a52.994 52.994 0 0 1 4.212-16.009 52.17 52.17 0 0 1 13.049-18.5 84.069 84.069 0 0 1 16.382-11.994 61.529 61.529 0 0 1 16.288-5.862 101.8 101.8 0 0 1 13.448-2.377 67.674 67.674 0 0 1 15.891.553c4.306.671 8.335 2.245 12.544 3.161a57.529 57.529 0 0 1 14.936 5.279 45.448 45.448 0 0 1 14.162 11.554c3.082 3.81 6.232 7.59 9.007 11.621a51.68 51.68 0 0 1 7.938 20.362 77.978 77.978 0 0 1 .793 17.1 70.7 70.7 0 0 1-.872 7.029c-.416 2.984-.89 5.96-1.3 8.944a53.706 53.706 0 0 1-4.472 14.426c-1.191 2.685-2.213 5.446-3.428 8.119a22.85 22.85 0 0 1-4.285 6.241c-1.177 1.245-2.247 2.6-3.315 3.939a63.284 63.284 0 0 1-22.364 17.6 55.194 55.194 0 0 1-16.316 4.969c-3.708.534-7.484.58-10.772.809zm30.215-15.621-2.419 1.5a9.2 9.2 0 0 1-.807.444c-.141.069-.454.263-.345.466s.51.071.657-.013q1.474-.838 2.9-1.761c.38-.246.756-.5 1.111-.778.186-.147.4-.26.588-.406.476-.367.974-.731 1.473-1.062l.63-.416a3.509 3.509 0 0 0 .939-.792c.162-.22 0-.424-.263-.374a.732.732 0 0 0-.273.14 8.782 8.782 0 0 0-.844.641c-.493.443-1.075.833-1.609 1.229-.558.414-1.129.808-1.72 1.174zm32.336-79.4.058.176a39.712 39.712 0 0 1 1.247 5.474c.017.093.045.2.133.237.138.057.259-.116.294-.261a7.949 7.949 0 0 0-.461-3.047 23.893 23.893 0 0 0-1.363-4.054c-.048-.11-.169-.24-.262-.164a5.246 5.246 0 0 0 .354 1.639zm-78.005-39.13-.408.075a59.573 59.573 0 0 0-11.125 3.166c-1.655.658-3.249 1.454-4.832 2.263-.8.41-1.63.79-2.416 1.23a7.92 7.92 0 0 0-1.911 1.248c-.092.094-.183.248-.092.344s.239.021.344-.052a26.407 26.407 0 0 1 2.909-1.591q1.579-.83 3.2-1.57a65.479 65.479 0 0 1 6.639-2.6q1.727-.571 3.484-1.047a70.907 70.907 0 0 1 7.512-1.6q1.909-.3 3.831-.5c.543-.058 1.079-.163 1.619-.242.291-.043.582-.082.874-.1a2.036 2.036 0 0 0 .779-.07c.054-.029.107-.094.073-.145a.126.126 0 0 0-.092-.04 9.392 9.392 0 0 0-2.331.074c-.9.109-1.784.3-2.682.4a72.738 72.738 0 0 0-5.375.756zm-8.544-.738-.307.1c-.467.149-.974.522-.447.831.406.238 1.507-.315 1.9-.449a44.475 44.475 0 0 1 7.184-1.7c1.213-.2 2.43-.366 3.648-.533a11.63 11.63 0 0 0 3.139-.431c-.047-.3-.28-.39-.6-.376a57.383 57.383 0 0 0-14.514 2.558zm-41.906 79.049a37.837 37.837 0 0 1-.827-5.075c-.011-.092-.073-.2-.165-.189-.335.03-.12 2.643-.081 2.967a18.023 18.023 0 0 0 .521 2.265 6.246 6.246 0 0 0 .31.982c.04.091.1.19.192.214a.242.242 0 0 0 .267-.2.727.727 0 0 0-.049-.366q-.091-.298-.168-.598zm27.485 40.72a13.805 13.805 0 0 1-1.309-.986.742.742 0 0 0-.469-.24 11.866 11.866 0 0 0 3.088 2.8c.776.571 1.444 1.281 2.215 1.84.9.652 1.764 1.347 2.68 1.978a21.751 21.751 0 0 0 5.905 3.011c2.484.762 5.031 1.32 7.552 1.959a2.506 2.506 0 0 0 .731.053 1.813 1.813 0 0 0 .452-.145 2.207 2.207 0 0 0-.366-.217 18.374 18.374 0 0 0-1.156-.381 54.907 54.907 0 0 1-9.199-3.586 66.994 66.994 0 0 1-5.925-3.325c-.928-.582-1.82-1.232-2.735-1.818-.493-.315-.985-.62-1.464-.943zm-1.825-3.452a15.741 15.741 0 0 0 1.435 1.253c.259.172 1.036.461.968-.061-.04-.3-.45-.664-.673-.85-1.7-1.422-3.41-2.787-4.97-4.365q-2.224-2.251-4.292-4.651a80.581 80.581 0 0 1-7.948-10.961 62.242 62.242 0 0 1-8.877-29.916l-.056-1.357c-.1-2.513-.17-5.029-.095-7.543.074-2.486.387-4.925.7-7.389a.423.423 0 0 0 0-.179.144.144 0 0 0-.129-.108c-.081 0-.129.089-.157.165a20.83 20.83 0 0 0-.633 2.883 18.967 18.967 0 0 0-.457 2.99 86.637 86.637 0 0 0 .49 16.643 80.035 80.035 0 0 0 4.5 17.712 37.82 37.82 0 0 0 3.481 6.98 79.439 79.439 0 0 0 8.3 10.594q1.976 2.136 4.085 4.143c.891.85 1.765 1.719 2.683 2.542.521.466 1.032.956 1.568 1.4zm67.515-112.717c.29.127.582.248.868.382.508.237.994.528 1.485.8a59.212 59.212 0 0 1 7.409 4.8 50.646 50.646 0 0 1 6.5 5.9 64.81 64.81 0 0 1 12.041 18.647 81.65 81.65 0 0 1 6.748 30.855c.018.982.012 1.965.041 2.948a1.753 1.753 0 0 0 .2.524 3.039 3.039 0 0 0 .115-.471c.176-2.115.423-4.229.5-6.348a72.769 72.769 0 0 0-.861-13.425 64.588 64.588 0 0 0-6.666-20.607 49.824 49.824 0 0 0-9.421-12.785q-.289-.28-.582-.554a51.983 51.983 0 0 0-6.937-5.489q-1.847-1.218-3.8-2.272-.979-.529-1.979-1.013a38.624 38.624 0 0 0-1.01-.475c-.29-.131-.535-.318-.829-.449a24.556 24.556 0 0 0-4.378-1.637.452.452 0 0 0-.247-.01.158.158 0 0 0-.108.2.226.226 0 0 0 .107.1c.259.134.53.259.804.379zm-90.574 57.917c.233 3.095.433 6.192.705 9.283a55.639 55.639 0 0 0 2.723 13.138 65.538 65.538 0 0 0 8.664 16.695 86.22 86.22 0 0 0 15.632 16.557 47.7 47.7 0 0 0 17.214 9.086 67.637 67.637 0 0 0 21.575 2.369 27.324 27.324 0 0 0 10.662-2.377 136.508 136.508 0 0 0 12.768-6.774c9.279-5.536 17.111-12.57 22.8-21.86 6.336-10.348 9.869-21.413 8.965-33.7a61.278 61.278 0 0 0-1.4-9.174 78.718 78.718 0 0 0-11.037-25.48 64.226 64.226 0 0 0-12.857-14.759 79.064 79.064 0 0 0-19.979-11.821 18.828 18.828 0 0 0-9.02-1.777c-2.765.237-5.556.2-8.313.5a106.964 106.964 0 0 0-12.351 1.669 62.569 62.569 0 0 0-33.184 19.251 46.951 46.951 0 0 0-8.942 14.264 67.606 67.606 0 0 0-4.625 24.91zm124.075 5.4a86.1 86.1 0 0 0-1.891-17c-2.442-11.259-6.779-21.621-14.183-30.57a50.032 50.032 0 0 0-24.828-16.72c-.542-.159-1.1-.278-1.636-.441a6.1 6.1 0 0 0-1.472-.406c-.506-.025-.6.352-.149.571.266.128.493.316.752.454 2.521 1.347 5.112 2.574 7.571 4.026a62.323 62.323 0 0 1 17.818 15.206 82.316 82.316 0 0 1 14.7 28.035c2.1 7.331 3.471 14.718 2.512 22.431a62.924 62.924 0 0 1-2.453 11.694 63.494 63.494 0 0 1-16.627 26.527c-.411.4-.827.788-1.242 1.182a7.727 7.727 0 0 0-1.149 1.158.285.285 0 0 0-.065.207.211.211 0 0 0 .232.142.658.658 0 0 0 .33-.164c1.773-1.577 3.639-3.071 5.255-4.8a55.386 55.386 0 0 0 7.714-10.428 77.23 77.23 0 0 0 6.734-14.668c1.695-5.31 1.959-10.88 2.077-16.435zM-527.4 130.479c-.022 1.59.239 3.242.365 4.827a34.228 34.228 0 0 0 .7 5.7.325.325 0 0 0 .072.157.115.115 0 0 0 .156.012.167.167 0 0 0 .032-.1c.051-.634.028-1.266.087-1.9s.07-1.279.152-1.922c.177-1.383.474-2.746.7-4.121.8-4.955 1.558-9.923 2.689-14.817a71.242 71.242 0 0 1 3.493-11.044 62.28 62.28 0 0 1 5.307-10.17 59.761 59.761 0 0 1 7.141-8.993q2.043-2.118 4.283-4.034 1.139-.977 2.323-1.9a12.551 12.551 0 0 0 2.344-1.848c.059-.077.109-.2.032-.259a.191.191 0 0 0-.164-.009 9.184 9.184 0 0 0-2.133 1.1c-.751.437-1.5.884-2.245 1.327A48.916 48.916 0 0 0-517.67 97.1c-6.665 9.738-9.549 20.6-9.73 33.379zm5.114 29.344c-.087-.088-.171-.131-.218-.047a.2.2 0 0 0-.013.113 22.505 22.505 0 0 0 1.146 4.162 79.131 79.131 0 0 0 1.367 4.254A56.778 56.778 0 0 0-515 178.824a48.806 48.806 0 0 0 7.056 8.969 47.964 47.964 0 0 0 4.336 3.841 37.412 37.412 0 0 0 4.863 3.381c.383.211.805.35 1.187.572a4.4 4.4 0 0 0 .622.33c.118.045.818.227.723-.1a.381.381 0 0 0-.151-.177c-1-.765-2.059-1.476-3.034-2.268q-1.231-1-2.417-2.054a63.462 63.462 0 0 1-4.487-4.392 53.723 53.723 0 0 1-7.391-10.1q-.83-1.478-1.56-3.01c-1.93-4.05-3.973-8.045-5.966-12.064a54.618 54.618 0 0 0-.776-1.526 2.131 2.131 0 0 0-.287-.403zm70.523 46.762c3.023-.5 6.594-.9 10.072-1.7a52.991 52.991 0 0 0 17.842-7.755c.47-.316.9-.7 1.336-1.057a.759.759 0 0 0 .127-.2c-.14-.047-.316-.173-.414-.128a13.286 13.286 0 0 0-1.294.687 45.65 45.65 0 0 1-12.573 5.283c-2.682.654-5.393 1.192-8.071 1.863-2.6.653-5.18 1.411-7.768 2.121-.623.171-1.247.336-1.871.5zm.277-135.482v.018c.808 0 1.617.009 2.425-.008a1.645 1.645 0 0 0 .479-.168 2.721 2.721 0 0 0-.47-.087c-1.7-.014-3.395-.026-5.092-.023a3.765 3.765 0 0 0-.7.133 4.089 4.089 0 0 0 .69.128c.894.016 1.782.004 2.671.004zm34.756 118.113a1.382 1.382 0 0 0 .34-.288l.446-.426q.3-.285.595-.571a1.545 1.545 0 0 0 .447-.528.183.183 0 0 0-.053-.208.162.162 0 0 0-.141-.006.472.472 0 0 0-.123.078c-.371.293-.731.6-1.083.915q-.212.19-.421.384a1.8 1.8 0 0 0-.324.413.163.163 0 0 0-.028.062.153.153 0 0 0 .023.088.254.254 0 0 0 .065.089.2.2 0 0 0 .154.032.423.423 0 0 0 .106-.033zm-3.954.021a.266.266 0 0 0 .091-.055l.374-.326a7.106 7.106 0 0 0 .835-.752.23.23 0 0 0 .06-.244.174.174 0 0 0-.166-.076.515.515 0 0 0-.181.061 4.1 4.1 0 0 0-.752.6c-.165.14-.55.35-.56.582a.178.178 0 0 0 .091.15c.092.056.148.08.211.061zm-85.676-97.724c.191-.2.378-.392.554-.59a.35.35 0 0 0 .094-.151.12.12 0 0 0-.074-.145.159.159 0 0 0-.079.006 2.418 2.418 0 0 0-1.041.836c-.418.455-.861.85-1.248 1.333-.122.154-1.006 1.671-1.052 1.667a.579.579 0 0 0 .417-.159 1.978 1.978 0 0 0 .292-.353 15.625 15.625 0 0 1 2.137-2.444zm114.16 29.906a1.835 1.835 0 0 0-.132-.542.206.206 0 0 0-.079-.1.15.15 0 0 0-.192.086.435.435 0 0 0-.014.233c.076.618.206 1.237.281 1.859.1.863.2 1.726.271 2.592.034.427.06.855.074 1.284q.012.32.014.641c0 .122-.087.8.2.634.236-.137.14-.685.142-.9a18.835 18.835 0 0 0-.056-1.54 40.902 40.902 0 0 0-.3-2.728c-.048-.332-.1-.663-.151-.994-.032-.178-.043-.352-.058-.525z"/>
        <path id="Path_17015" data-name="Path 17015" class="cls-1" d="M-388.574 153.638c.26 31.277-25.668 57.147-57.179 57.18-31.026.033-57.484-24.983-57.438-57.256a57.013 57.013 0 0 1 57.5-57.177 56.984 56.984 0 0 1 57.117 57.253zm-58.626-12.616c-.04-.461-.063-.869-.112-1.274q-.677-5.571-1.361-11.141l-1.095-8.971q-.7-5.689-1.392-11.38c-.224-1.86-.4-3.726-.646-5.582-.106-.789-.114-1.878-.6-2.247-.462-.347-1.5.083-2.286.159a51.867 51.867 0 0 0-11.425 2.485c-1.357.452-1.343.466-.742 1.788a11.5 11.5 0 0 1 .519 1.374c1.627 5.292 3.329 10.563 4.82 15.893a17.9 17.9 0 0 0 2.176 4.874 107.185 107.185 0 0 0 11.519 14.3 2.416 2.416 0 0 0 .39.286zm25.994 6.705v-.027c2.7 0 5.41.046 8.112-.02a19.037 19.037 0 0 0 3.871-.448c5.558-1.308 10.961-3.153 16.395-4.884 1.241-.395 1.436-.706 1.116-1.973a58.5 58.5 0 0 0-5.44-13.867c-.362-.661-.715-.986-1.506-.382-2.467 1.888-5.008 3.678-7.5 5.538a118.33 118.33 0 0 1-19.178 11.826c-2.05 1-3.933 2.337-5.882 3.536a2.564 2.564 0 0 0-.481.53 2.724 2.724 0 0 0 .655.17c3.285.005 6.563.001 9.844.001zm-65.986-29.2c-.147.177-.3.354-.443.533a33.637 33.637 0 0 0-2.753 3.43 158.061 158.061 0 0 0-4.731 8.278c-.589 1.1-.351 1.535.723 2.2a34.153 34.153 0 0 0 2.955 1.732c3.8 1.858 7.595 3.756 11.466 5.465a44.58 44.58 0 0 0 8.239 3.03c4.907 1.081 9.912 1.712 14.878 2.524a1.712 1.712 0 0 0 .473-.059c-.062-.18-.07-.43-.2-.53-1.536-1.214-3.019-2.514-4.651-3.584a71.422 71.422 0 0 1-14.185-11.965c-.817-.911-1.536-1.924-2.428-2.75-2.934-2.715-5.927-5.366-8.9-8.037a2.822 2.822 0 0 0-.44-.265zm12.064-10.787a4.993 4.993 0 0 0-.573.268 40.479 40.479 0 0 0-7.906 6.165c-3.074 3.406-2.9 2.429.369 5.417 2.349 2.148 4.92 4.093 7.036 6.449a77.546 77.546 0 0 0 14.239 12.683c1.417.956 2.754 2.031 4.132 3.046.192.142.409.251.615.375.024-.305.158-.654.056-.909a95.03 95.03 0 0 1-3.91-12.082 14.527 14.527 0 0 0-1.73-3.752c-1.584-2.668-3.4-5.2-4.891-7.921-1.9-3.482-4.573-6.347-7.038-9.385a2.793 2.793 0 0 0-.396-.352zm85.1 46.372-.15-.013c0-.9.016-1.8 0-2.7-.063-2.976.18-2.561-2.459-2.524-3.5.05-7 .256-10.506.375-1.307.045-2.62-.022-3.923.066a10.133 10.133 0 0 0-2.866.482 62.93 62.93 0 0 1-9.83 2.806 78.64 78.64 0 0 0-8.375 2.61 2.828 2.828 0 0 0-.47.254 4.328 4.328 0 0 0 .462.139q2.635.5 5.272.982c4.068.759 8.185 1.326 12.193 2.326 5.987 1.495 11.968 3 18.033 4.142 1.583.3 1.79.178 1.953-1.4.259-2.509.452-5.028.672-7.543zm-53.817-54.39v-.052c-1.8 0-3.6-.022-5.4.011-.722.013-1.156.212-1.041 1.2.472 4.043.794 8.1 1.23 12.152.2 1.856.557 3.695.8 5.546q.84 6.287 1.641 12.579c.31 2.42.591 4.843.906 7.262a2.864 2.864 0 0 0 .312.722 4.813 4.813 0 0 0 .391-.611 134.532 134.532 0 0 0 5.857-15.288 7.465 7.465 0 0 0 .267-1.68c.176-2.52.307-5.044.49-7.563.306-4.227.637-8.452.964-12.677.1-1.255-.14-1.554-1.51-1.588-1.626-.042-3.262-.011-4.901-.011zm-56.645 51.482.262.048c0 .572.042 1.148-.009 1.715-.09.995.357 1.3 1.3 1.2q2.794-.271 5.6-.451c3.413-.219 6.829-.4 10.243-.61.324-.02.643-.1.966-.148 2.975-.423 5.947-.874 8.927-1.257 3.063-.395 6.137-.708 9.2-1.1.354-.046.67-.38 1-.581a4.488 4.488 0 0 0-.719-.632 52.138 52.138 0 0 0-17.046-6.428 58.81 58.81 0 0 0-6.494-.976 57.894 57.894 0 0 1-10.4-1.216c-.687-.161-.926.1-1.024.621-.616 3.273-1.201 6.546-1.8 9.817zm61.219 17.446c.175.94.348 1.816.5 2.7.607 3.523 1.127 7.064 1.827 10.569 1.305 6.535 2.7 13.053 4.089 19.571.356 1.665.827 3.306 1.272 4.95.138.509.412.876 1.061.623 3.031-1.185 6.068-2.355 9.1-3.532a.95.95 0 0 0 .586-1.52 30.471 30.471 0 0 1-1.29-2.908c-2.009-5.342-3.983-10.691-6.408-15.87-1.343-2.87-2.32-5.91-3.522-8.848a4.567 4.567 0 0 0-1.153-1.548c-1.688-1.544-3.421-3.038-5.152-4.534a.827.827 0 0 0-.649-.227c-.145.058-.184.402-.254.577zm-61.063-11.08 1.632 8.864a1.117 1.117 0 0 0 1.446.942c.32-.046.631-.152.95-.214 3.108-.6 6.2-1.307 9.33-1.775a22.433 22.433 0 0 0 8.841-3.284 39.645 39.645 0 0 1 5.276-2.56c4.547-2.007 9.116-3.959 13.665-5.962a4.465 4.465 0 0 0 .967-.82 4.943 4.943 0 0 0-1.291-.554 8.045 8.045 0 0 0-1.955.056c-4.114.507-8.275.795-12.326 1.619-5.375 1.093-10.829 1.172-16.239 1.775-2.992.334-6.017.411-9.031.5-1.073.034-1.205.56-1.258 1.415zm9.055 26.727c.532-.3.745-.409.946-.536q1.339-.852 2.673-1.714c3.295-2.13 6.636-4.193 9.871-6.411 4.448-3.051 8.816-6.221 13.217-9.34 1.668-1.182 3.339-2.361 5-3.556a1.985 1.985 0 0 0 .368-.529 2.259 2.259 0 0 0-.707-.1c-4.726.855-9.44 1.773-14.173 2.582a49.835 49.835 0 0 0-16.017 5.8c-.642.359-1.332.632-1.973.992-1.069.6-2.107 1.259-3.178 1.857a.852.852 0 0 0-.452 1.212q1.992 4.472 4.011 8.934c.135.297.299.579.421.812zm83.063-71.362a7.027 7.027 0 0 0-.728-.926 46.824 46.824 0 0 0-8.056-5.948c-1.278-.74-1.275-.691-2.015.583-1.8 3.106-3.525 6.263-5.467 9.279a122.48 122.48 0 0 0-8.286 14.423q-1.447 3.106-2.856 6.229a1.818 1.818 0 0 0-.027.656 1.529 1.529 0 0 0 .4-.132q7.173-4.893 14.334-9.8a8.723 8.723 0 0 0 1.683-1.406c3.465-4.013 6.9-8.055 10.336-12.089.204-.25.398-.504.688-.866zm-53.021 94.12a2.439 2.439 0 0 0 .337-.608c.484-2.06.978-4.118 1.407-6.19.776-3.744 1.357-7.536 2.292-11.239 1.953-7.736 4.085-15.426 6.136-23.137a10.385 10.385 0 0 0 .175-1.136c-.3.266-.618.514-.9.8a46.43 46.43 0 0 0-8.6 12.741c-2.907 6.212-6 12.339-9.017 18.5q-1.134 2.313-2.34 4.59c-.335.629-.283 1.067.388 1.372 2.6 1.181 5.19 2.376 7.8 3.533.682.298 1.403.472 2.328.778zm4.215-43.024c-.112-.07-.279-.261-.416-.241a1.667 1.667 0 0 0-.657.315q-5.243 3.621-10.478 7.255c-4.762 3.311-9.152 7.145-14.212 10.04-2.127 1.216-4.173 2.57-6.273 3.834-.771.465-.706.816-.151 1.5a41.736 41.736 0 0 0 6.357 6.764c1.117.878 1.062.95 2.077-.119 2.59-2.729 5.114-5.525 7.785-8.171 3.137-3.107 6.372-6.119 9.621-9.11a16.628 16.628 0 0 0 4.7-7.335c.501-1.551 1.075-3.077 1.653-4.729zm54.346 24.419a3.473 3.473 0 0 0 .694-.612q2.618-3.979 5.2-7.984c.346-.534.079-.824-.378-1.182a106.447 106.447 0 0 0-13.573-9.148 4.4 4.4 0 0 0-1.36-.515 82.155 82.155 0 0 1-11.807-2.879c-2.159-.719-4.345-1.356-6.525-2.01a2.265 2.265 0 0 0-.707.021c.11.243.157.559.34.717 1.3 1.121 2.6 2.236 3.936 3.3a189.66 189.66 0 0 1 15.054 13.256 40.732 40.732 0 0 0 8 6.4c.35.203.702.4 1.132.639zm-36.435 20.382c1.393-.255 3.148-.59 4.909-.89.873-.149 1.085-.418.848-1.416-1.563-6.556-3.136-13.114-4.458-19.722s-2.35-13.273-3.525-19.911c-.039-.222-.27-.41-.412-.614-.128.2-.337.383-.372.6-.381 2.324-.726 4.654-1.1 6.979-.475 2.967-.851 5.956-1.482 8.889a22.6 22.6 0 0 0-.045 9.863c.564 2.531.75 5.146 1.137 7.719.29 1.928.572 3.862.977 5.768a6.328 6.328 0 0 0 1.092 2.678c.293.346 1.342.06 2.436.06zm3.867-61.636c.348-.175.567-.26.761-.386a129.573 129.573 0 0 1 12.022-7.068c6.5-3.288 12.307-7.729 18.191-12.006 1.52-1.1 2.974-2.3 4.483-3.423a.993.993 0 0 0 .263-1.627c-1.188-1.56-2.351-3.139-3.53-4.7-.334-.444-.652-.6-1.185-.154a50.25 50.25 0 0 1-3.318 2.508c-3.348 2.338-6.717 4.646-10.073 6.973a5.986 5.986 0 0 0-.949.766c-4.5 4.749-9.028 9.479-13.474 14.282a42.84 42.84 0 0 0-3.079 4.123c-.102.144-.063.398-.106.716zm-2.379-13.608h-.12c0 .164-.008.328 0 .491.045.706.094 1.412.143 2.118.356-.635.722-1.266 1.066-1.908a9.82 9.82 0 0 0 .525-1.108 93.663 93.663 0 0 1 8.377-16.046c2.431-3.87 4.686-7.85 7.051-11.763.423-.7.491-1.182-.38-1.5-2.137-.776-4.285-1.524-6.4-2.35a1.37 1.37 0 0 0-1.984.777 50.4 50.4 0 0 0-2.263 4.62c-1.815 4.887-3.515 9.817-5.243 14.736a5.911 5.911 0 0 0-.384 1.655c-.149 3.427-.259 6.855-.383 10.281zm-9.963 53.684c-.158-.838-.282-1.638-.461-2.426a65.947 65.947 0 0 1-1.635-10.61 30.342 30.342 0 0 0-.491-3.132 3.159 3.159 0 0 0-.15-.46 2.365 2.365 0 0 0-.222.391c-.158.463-.323.926-.44 1.4-1.1 4.419-2.207 8.836-3.276 13.262q-.917 3.8-1.721 7.618c-.867 4.141-1.677 8.295-2.54 12.437a13.917 13.917 0 0 1-.627 1.788 17.406 17.406 0 0 0 2.111.579q2.66.393 5.341.634a.968.968 0 0 0 .761-.553c.739-4.319 1.435-8.645 2.125-12.972.428-2.647.824-5.302 1.231-7.953zm20.689-29.667-.77.155a3.214 3.214 0 0 0 .469.679 5.225 5.225 0 0 0 .842.5c4.035 2.325 8.031 4.72 12.123 6.94a29.047 29.047 0 0 0 5.219 2.027c3.653 1.14 7.337 2.181 11.017 3.236 1.319.378 2.652.718 4 .978.241.046.747-.329.837-.606.554-1.7 1.1-3.414 1.494-5.158.286-1.274 0-1.51-1.328-1.8-4.451-.977-8.893-2-13.352-2.938-4.219-.885-8.455-1.685-12.685-2.511-2.632-.513-5.269-1.007-7.86-1.499zm8.047 44.545c.446-.2.68-.287.89-.411a56.835 56.835 0 0 0 9.66-7.075c.18-.165.345-.348.518-.522.323-.326.219-.477-.179-.658a7.016 7.016 0 0 1-1.467-.876c-4.273-3.408-8.562-6.8-12.78-10.272-2.078-1.712-4.015-3.6-6.021-5.4a4.044 4.044 0 0 0-.571-.363 1.8 1.8 0 0 0-.1.672 9.4 9.4 0 0 0 .458 1.13c1.93 4.667 3.885 9.323 5.778 14 1.22 3.018 2.346 6.073 3.518 9.111.097.238.207.456.303.667zm-36.208-48.45c-.059 5.167 4.068 8.63 9 9.235 2.345-.611 4.74-1.042 6.589-2.872a8.646 8.646 0 0 0 2.939-6.516 9.449 9.449 0 0 0-9.5-9.236c-4.613-.076-9.487 4.871-9.021 9.389zm51.1 36.128c-.29-.225-.594-.486-.923-.712a56.711 56.711 0 0 1-5.03-3.473c-2.791-2.4-5.363-5.046-8.13-7.472-4.669-4.1-9.417-8.1-14.14-12.139a1.805 1.805 0 0 0-.562-.213 2.855 2.855 0 0 0 .075.683c.7 1.917 1.4 3.832 2.126 5.737a3.263 3.263 0 0 0 .682 1.262c2.728 2.467 5.422 4.979 8.265 7.31 4.419 3.624 8.948 7.116 13.428 10.666.556.441 1.145 1.3 1.639 1.241.581-.064 1.083-.9 1.6-1.423a9.338 9.338 0 0 0 .8-.924 1.858 1.858 0 0 0 .18-.539zm-70.143 11a5.294 5.294 0 0 0 .48-.648c.66-1.215 1.324-2.429 1.948-3.664q3.8-7.525 7.569-15.069a2.611 2.611 0 0 0 .08-.921 2.893 2.893 0 0 0-.754.333 148.628 148.628 0 0 0-14.7 14.67c-.546.619-.365.969.144 1.365q2.407 1.871 4.827 3.727a3.851 3.851 0 0 0 .417.212zm57.248-34.725a2.918 2.918 0 0 0-.515-.54 43.475 43.475 0 0 0-4.007-2.361 59.129 59.129 0 0 1-9.431-5.692 6.914 6.914 0 0 0-1.919-1.021 2.947 2.947 0 0 0-3 1.036c-.879 1.615-.228 3.061 1.731 3.669 5.442 1.687 10.894 3.341 16.342 5.007a1.509 1.509 0 0 0 .467.119c.116 0 .217-.125.343-.211zm-8.306-16.8v-.003h-5.88c-.9 0-1.8-.042-2.694.015-1.455.093-1.821.644-1.479 2.1.463 1.963 1.738 2.817 3.733 2.3 2.356-.606 4.692-1.3 7-2.058a22.731 22.731 0 0 1 6.134-1.495 8.932 8.932 0 0 0 1.882-.468 3.562 3.562 0 0 0 .441-.182 1.883 1.883 0 0 0-.569-.2c-2.841-.012-5.699-.005-8.557-.005zm-23.466 16.753h.008a4.507 4.507 0 0 0 0 .489q.765 7.015 1.542 14.028a1.454 1.454 0 0 0 .178.4c.171-.158.466-.3.494-.476.306-2 .518-4.022.859-6.019.518-3.033 1.122-6.052 1.682-9.079.111-.6-.117-.9-.771-.907a18.327 18.327 0 0 1-3.165-.135c-.77-.139-.808.2-.827.721.001.329.011.655.011.982zm-24.791-3.53c.379-.092.847-.223 1.322-.319 1.986-.4 3.966-.839 5.963-1.175 3.278-.551 6.566-1.033 9.85-1.543.614-.1.831-.443.649-1.03-.313-1-.682-1.993-.937-3.011-.174-.7-.456-.689-1.021-.434q-5.225 2.361-10.475 4.667c-1.786.784-3.595 1.515-5.387 2.285a2.7 2.7 0 0 0-.523.393zm-10.476-21.836-.009.192.962-.119a5.486 5.486 0 0 0-.813-.621c-3.783-1.915-7.576-3.81-11.36-5.722-1.015-.512-1.221-.463-1.615.554-.117.3-.184.625-.289.933-1.309 3.841-1.161 3.187 2.437 3.849a105.636 105.636 0 0 0 10.698.938zm47.1-26.975c0 .336-.012.5 0 .662.037.4.087.8.132 1.2.154-.342.329-.676.458-1.026.618-1.676 1.185-3.371 1.843-5.03.776-1.959 1.53-3.937 2.469-5.82 1.58-3.167 1.965-3.284-2.133-3.6-.243-.019-.49-.007-.733-.028-.69-.059-1.054.188-1.06.945-.012 1.3-.032 2.611-.143 3.91-.241 2.994-.55 5.978-.821 8.791zm-12.067 29.291c-.215-.3-.343-.506-.5-.69-2.871-3.34-6.067-6.4-8.549-10.075a1.618 1.618 0 0 0-.438-.319 2.38 2.38 0 0 0 .006.71c.454 1.392.9 2.789 1.418 4.158.979 2.588 2 5.162 3.017 7.734.308.776.743.891 1.5.38a30.755 30.755 0 0 1 3.006-1.6c.186-.084.353-.182.553-.294zm-20.2-38.73c-.278.124-.509.21-.724.327-1 .545-1.988 1.116-3 1.643-.61.318-.818.582-.266 1.215 1.5 1.717 3 3.438 4.35 5.271 1.3 1.764 2.4 3.674 3.6 5.507.1.147.338.2.512.3.023-.154.1-.326.06-.459q-2.121-6.6-4.267-13.2a5.868 5.868 0 0 0-.253-.6zm22.447 104.9v.014c.653 0 1.306-.015 1.958 0 .78.023.96-.319.816-1.059-.818-4.208-1.6-8.423-2.4-12.635-.045-.237-.095-.473-.142-.71a3.648 3.648 0 0 0-.289.717c-.761 4.31-1.495 8.626-2.277 12.932-.113.622.184.71.62.731.582.034 1.155.012 1.726.012zm8.314-64.909a1.372 1.372 0 0 0 .009.487c.2.49.445.966.672 1.447a8.13 8.13 0 0 0 1-.89c1.437-1.767 2.772-3.624 4.285-5.322 2.169-2.436 4.464-4.761 6.7-7.139a4.05 4.05 0 0 0 .379-.568c-.214.006-.492-.075-.632.03-3.646 2.737-7.577 5.092-10.936 8.219a4.663 4.663 0 0 0-1.465 3.738zm-.9-10.226-.157-.016c0-1.311.007-2.622-.006-3.932a3.806 3.806 0 0 0-.141-.71c-.094.2-.2.4-.282.609q-2.34 5.652-4.674 11.305c-.628 1.519-.579 1.6.971 1.579a3.941 3.941 0 0 0 3.679-3c.329-1.924.428-3.886.621-5.833zm34.438 36.934-.232.049c.023.1.01.248.074.3.252.2.525.38.8.56 1.957 1.3 4.02 2.465 5.85 3.924 2.981 2.377 2.7 1.6 4.033-1.25.293-.624.15-1.051-.689-1.124a17.354 17.354 0 0 1-3.088-.5c-2.1-.578-4.175-1.263-6.262-1.9a2.678 2.678 0 0 0-.474-.057zm-28.836-1.228c-.883-2.169-1.745-4.347-2.7-6.486-.455-1.022-1.6-1.716-2.221-1.539a1.924 1.924 0 0 0-.987 3.341c1.742 1.688 3.6 3.254 5.416 4.867a3 3 0 0 0 .394.254c.051-.144.156-.32.11-.434zM-458.41 149.9a25.411 25.411 0 0 0 2.673-.993c.249-.122.38-.691.368-1.049-.005-.162-.474-.4-.759-.447-.954-.166-1.921-.266-2.883-.387-1.763-.224-3.526-.452-5.291-.66a2.919 2.919 0 0 0-.712.092 2.492 2.492 0 0 0 .429.4c1.413.8 2.819 1.615 4.258 2.366a14.7 14.7 0 0 0 1.917.678zm62.939-2.628v-.026c1.055 0 2.109.013 3.164 0 1.74-.026 1.782-.079 1.622-1.775a3.6 3.6 0 0 0-.093-.721c-.154-.5-.356-.847-1.032-.6-2.43.877-4.882 1.7-7.321 2.549a3.133 3.133 0 0 0-.6.379 2.258 2.258 0 0 0 .611.189c1.22.016 2.433.007 3.65.007zm-9.37-31.577a13.508 13.508 0 0 0-1.515-1.1c-.164-.092-.617.093-.785.285q-2.654 3.03-5.243 6.116c-.113.134-.073.4-.105.6.215-.041.481-.015.637-.134q3.294-2.518 6.558-5.075a4.022 4.022 0 0 0 .453-.687zm-91.689 55.972c.274-.133.5-.23.711-.346q2.559-1.39 5.113-2.79a5.382 5.382 0 0 0 .559-.4 2.118 2.118 0 0 0-.691-.135 248.3 248.3 0 0 0-6.194 1.032c-.184.033-.473.39-.443.541a9.148 9.148 0 0 0 .537 1.6 2.19 2.19 0 0 0 .408.499zm42.9-10.237a6.935 6.935 0 0 0-.434.982c-.244.99-1.226 1.787-.782 2.958.781-.706 1.583-1.391 2.325-2.135a.819.819 0 0 0 .1-.787 7.894 7.894 0 0 0-1.204-1.016z" transform="translate(-13.353 -15.09)"/>
        <path id="Path_17016" data-name="Path 17016" class="cls-1" d="M-386.842 207.357a5.13 5.13 0 0 1-5.158 5.076c-2.779-.158-5.271-2.515-5.18-5.154a5.535 5.535 0 0 1 5.244-5.176 5.309 5.309 0 0 1 5.094 5.254z" transform="translate(-67.238 -68.826)"/>
    </g>
</svg>
