<svg xmlns="http://www.w3.org/2000/svg" width="161.254" height="35.75" viewBox="0 0 161.254 35.75">
    <path fill="#0d0d0d" d="M721.79 142.361l-5.49-11.486-4.083 8.294a36.5 36.5 0 0 1 9.571 3.192m13.03 12.106h-7.875c-5.007-6.737-10.572-9.057-16.836-9.833l-3.526 6.837a5.675 5.675 0 0 1-4.984 3h-4.064l16.784-34.188h3.673zm74.526-17.013a11.224 11.224 0 1 0-11.234 11.224 11.24 11.24 0 0 0 11.234-11.224m6.975 0a17.384 17.384 0 0 1-5.379 12.682 18.2 18.2 0 0 1-12.83 5.212 18 18 0 0 1-12.859-5.226 17.909 17.909 0 0 1 0-25.422 18.741 18.741 0 0 1 25.717.01 17.663 17.663 0 0 1 5.35 12.744m39.2-17.175a3.6 3.6 0 0 0-3.6 3.6l.019 18.037-17.851-21.639h-5.3v34.188h3.273a3.6 3.6 0 0 0 3.6-3.6l-.019-18 14.636 17.8s2.863 3.8 7.046 3.8h1.467v-34.186zm-102.432 34.188l-16.356-34.188h4.445a5.232 5.232 0 0 1 4.736 3.006l8.99 19.157 8.919-19.142a5.237 5.237 0 0 1 4.745-3.021h4.479l-16.351 34.188z" transform="translate(-697.536 -119.598)"/>
</svg>
