<svg xmlns="http://www.w3.org/2000/svg" width="149.06" height="30.402" viewBox="0 0 149.06 30.402">
    <path fill="#0d0d0d" fill-rule="evenodd" d="M30.254 101.224A10.94 10.94 0 0 1 24.3 106.2a12.578 12.578 0 0 1-13.289-4.1C8 98.171 7.87 92.181 9.718 87.73a11.893 11.893 0 0 1 15.547-6.375 12.116 12.116 0 0 1 5.092 4.784l-4.8 4.156c-1.064-1.911-2.168-3.4-4.5-3.682-6.375-.769-7.979 9.3-4.015 12.725a5.174 5.174 0 0 0 8.351-2.3zm3.527 4.4V81.6h6.683v24.027zm11.417 0V81.6h6.478l5.772 10.686V81.6h6.465v24.027H57.4l-5.788-10.521v10.519H45.2zm20.421 3.232L77.511 85.2h-10.39l2.193-6.748H88.8L77.46 101.75h9.505l-2.231 7.107H65.62zM97.188 96.71h3.512l-1.783-6.85zm-8.761 8.915L94.482 81.6h8.966l5.912 24.027h-6.542l-.987-4.055h-5.783l-.911 4.055zm23.537-.013V81.6h6.479l5.773 10.672V81.6h6.477v24.013h-6.517l-5.784-10.506v10.506h-6.428zm33.75-5.119c3.9-.089 5.106-3.759 5.247-6.979s-1.282-6.618-5-6.708-5.631 3.091-5.7 6.581 1.552 7.2 5.451 7.107zm-6.452-17.7a11.945 11.945 0 0 1 13.507.243c6.414 4.888 6.49 16.83-.372 21.46a12.544 12.544 0 0 1-12.634.462c-7.799-4.44-8.031-17.202-.5-22.167z" transform="translate(-8.503 -78.455)"/>
</svg>
