<svg xmlns="http://www.w3.org/2000/svg" width="158.843" height="61.647" viewBox="0 0 158.843 61.647">
    <defs>
        <style>
            .cls-1{fill:#0d0d0d}.cls-2{fill:#fff}
        </style>
    </defs>
    <g id="Group_2399" transform="translate(0 0)">
        <path id="Path_1469" d="M286.918 324.283c-4.671-.04-9.339-.186-13.993-.531-.613-.047-1.223-.089-1.828-.136l-2.456-.215c-1.309-.122-2.614-.244-3.915-.391-.975-.111-1.943-.219-2.915-.337q-1.312-.161-2.617-.333c-1.2-.165-2.4-.326-3.589-.505-.817-.129-1.635-.258-2.449-.4-.158-.025-.48-.082-.638-.107-1.929-.326-3.854-.649-5.762-1.072-2.259-.491-4.535-.914-6.812-1.3q-4.474-.742-8.981-1.233a173.058 173.058 0 0 0-20.891-1.011c-5.507 0-11.01.3-16.488.842a158.532 158.532 0 0 0-17.062 2.621c-.348.075-1.043.219-1.391.294-1.793.369-3.6.688-5.41.979-1.531.258-3.065.477-4.6.7-1.979.3-3.973.516-5.962.757-1.567.186-3.141.333-4.711.48-.728.068-1.456.122-2.18.179l-.534.043c-3.786.351-7.583.509-11.379.606-1.459.032-2.918.043-4.377.086 0 5.934.032 11.867-.014 17.8q.059 10.465 0 20.927c.05 2.578.014 5.155.018 7.733.444 0 .893.007 1.337.014 2.879.029 5.758.107 8.633.258 1.413.075 2.825.158 4.234.258s2.822.222 4.234.344q.817.075 1.635.161c2.215.244 4.435.47 6.647.76.929.122 1.857.255 2.789.391 1.728.244 3.456.491 5.173.807 2.008.333 4.016.685 6 1.136 2.7.57 5.421 1.04 8.146 1.488a180.2 180.2 0 0 0 36.4 1.706 170.387 170.387 0 0 0 16.972-1.714c.979-.158 1.954-.33 2.933-.5 1.24-.211 2.477-.434 3.714-.681 1.782-.394 3.574-.764 5.374-1.072 1.215-.233 2.438-.437 3.664-.631q1.979-.323 3.969-.6c1.194-.168 2.388-.322 3.585-.477.373-.05.742-.1 1.122-.143.685-.082 1.38-.154 2.072-.226 1.09-.122 2.18-.24 3.273-.337 6.321-.6 12.67-.936 19.02-.932.056-15.492.024-30.991.01-46.486z" class="cls-1" transform="translate(-135.955 -316.702)"/>
        <path id="Path_1470" d="M287.635 370.589a3.551 3.551 0 1 1 4.069 5.747 3.9 3.9 0 0 1-3.761-.405 3.567 3.567 0 0 1-.308-5.342z" class="cls-2" transform="translate(-250.933 -357.096)"/>
        <path id="Path_1471" d="M450.742 378.483c1.689-.6 3.46-.954 5.188-1.445q.006 3.6 0 7.2c2.047-.018 4.1.083 6.145-.018-.093.391-.183.781-.269 1.176a16.073 16.073 0 0 1-.893 2.929c-1.5.574-3.2.118-4.775.283l-.2.014c-.018 3.227-.007 6.457-.011 9.684.011 1.38.233 2.962 1.384 3.879 1.312 1 3.076.685 4.6.534.032.606.072 1.215.125 1.825.176 1.513-1.441 1.9-2.571 2.219-2.266.452-4.815.663-6.9-.509a6.184 6.184 0 0 1-2.6-3.2c-.663-2.545-.441-5.188-.477-7.787.025-5.066-.043-10.135.036-15.2.282-.602.526-1.348 1.218-1.584z" class="cls-2" transform="translate(-375.28 -362.76)"/>
        <path id="Path_1472" d="M195.465 378.462c1.839.161 3.7-.1 5.528.183 1.212.3 1.535 1.7 1.484 2.786q-.011 10.374 0 20.751c2.621-.014 5.242.014 7.866-.007 1.144.083 2-.821 3.058-1.09a33.13 33.13 0 0 1-.032 4.955c-.107.767-.828 1.162-1.441 1.5-5.475.265-10.971.014-16.453.122.136-4.768.029-9.544.043-14.316-.006-4.96.076-9.926-.053-14.884z" class="cls-2" transform="translate(-181.382 -363.847)"/>
        <g id="Group_2390" transform="translate(46.418 20.842)">
            <path id="Path_1473" d="M343.368 405.256a9.259 9.259 0 0 1 9.677 2.3c2.861 3.2 3.456 7.866 2.707 11.96-.226.861-.523 1.7-.785 2.549a11.137 11.137 0 0 1-4.7 5.059 9.9 9.9 0 0 1-10.551-.767q-.032 1.345-.04 2.689c0 2.531 0 5.062.007 7.593h-.724c-1.542-.086-3.191.276-4.657-.3-1.574-1.165-.954-3.4-1.079-5.08.014-7.411-.025-14.821 0-22.236a9.548 9.548 0 0 0-.118-1.538c-.323-.667-.7-1.305-.993-1.986a42.89 42.89 0 0 1 5.837-.022c1.2.086 1.545 1.384 1.8 2.341a10.473 10.473 0 0 1 3.619-2.562zm-3.32 6.744c-.678 2.66-.251 5.424-.38 8.135-.355 2.187 2.029 3.739 3.987 3.707 2.789.14 5.17-2.248 5.622-4.883.634-2.847.394-6.235-1.646-8.486a4.693 4.693 0 0 0-7.583 1.527z" class="cls-2" transform="translate(-332.107 -404.775)"/>
        </g>
        <g id="Group_2391" transform="translate(88.346 20.829)">
            <path id="Path_1474" d="M512.14 408.493a12.777 12.777 0 0 1 16.6-1.312 11.541 11.541 0 0 1 3.736 5.489 12.724 12.724 0 0 1-2.3 11.763c-3.28 3.793-9 4.643-13.591 3.047a11.3 11.3 0 0 1-6.1-5.346c-1.948-4.388-1.611-9.966 1.655-13.641zm3.976 4.761a10.2 10.2 0 0 0-.158 5.79l.115-.036-.011.359c.456 2.391 2.592 4.6 5.148 4.478a5.119 5.119 0 0 0 4.535-3.133 10.6 10.6 0 0 0-.3-9.128l-.133-.043a4.861 4.861 0 0 0-5.148-2.312 5.6 5.6 0 0 0-4.048 4.025z" class="cls-2" transform="translate(-509.285 -404.723)"/>
        </g>
        <path id="Path_1475" d="M630.334 407.678a9.462 9.462 0 0 1 10.451-2.237 8.2 8.2 0 0 1 2.406 2.147 10.018 10.018 0 0 1 1.158 4.618c.014 3.323 0 6.647 0 9.97.093 1.33-.308 2.825.459 4.019.14.455.832.9.434 1.4a51.856 51.856 0 0 1-5.489.09 2.244 2.244 0 0 1-1.76-2.173c-.129-3.23-.011-6.471-.05-9.7-.054-1.857.215-3.768-.355-5.568a2.725 2.725 0 0 0-2.043-1.133c-2.345-.068-4.277 1.875-4.908 4.012-.613 2.144-.283 4.4-.355 6.6.011 2.642-.015 5.285.014 7.927-1.721.068-3.442.061-5.162.039-.427-.011-.853-.025-1.273-.036.032-6.1-.011-12.2.021-18.3a4.178 4.178 0 0 0-.505-2.538c-.15-.445-.753-.867-.423-1.359a35.021 35.021 0 0 1 5.754.014c1.071.172 1.365 1.33 1.626 2.208z" class="cls-2" transform="translate(-507.634 -383.896)"/>
        <path id="Path_1476" d="M283.684 407.472c1.854-.172 3.721-.065 5.582-.083 1.7.316 1.886 2.234 1.789 3.646-.029 6.22 0 12.444-.018 18.665-.276 0-.828.007-1.1.007-1.387-.057-2.861.23-4.184-.283-1.262-.764-1.086-2.456-1.126-3.729.032-5.016 0-10.028.018-15.04a2.89 2.89 0 0 0-.48-1.839c-.216-.423-.607-.835-.481-1.344z" class="cls-2" transform="translate(-248.706 -385.916)"/>
        <g id="Group_2398" transform="translate(152.414 7.586)">
            <path id="Path_1488" d="M783.239 348.758a3.3 3.3 0 0 1 1.581.415 2.955 2.955 0 0 1 1.2 1.189 3.23 3.23 0 0 1 .006 3.21 2.988 2.988 0 0 1-1.189 1.191 3.231 3.231 0 0 1-3.2 0 3 3 0 0 1-1.191-1.191 3.216 3.216 0 0 1 .006-3.21 2.967 2.967 0 0 1 1.2-1.189 3.3 3.3 0 0 1 1.587-.415zm0 .533a2.737 2.737 0 0 0-1.318.347 2.491 2.491 0 0 0-1 .993 2.672 2.672 0 0 0-.006 2.675 2.523 2.523 0 0 0 .995.993 2.678 2.678 0 0 0 2.667 0 2.508 2.508 0 0 0 .993-.993 2.685 2.685 0 0 0-.006-2.675 2.475 2.475 0 0 0-1-.993 2.742 2.742 0 0 0-1.325-.347zm-1.41 4.46v-3.46h1.189a2.907 2.907 0 0 1 .882.1.856.856 0 0 1 .435.335.887.887 0 0 1 .162.507.922.922 0 0 1-.271.66 1.069 1.069 0 0 1-.718.315.946.946 0 0 1 .294.183 3.946 3.946 0 0 1 .511.686l.422.677h-.682l-.307-.545a2.8 2.8 0 0 0-.583-.805.719.719 0 0 0-.448-.119h-.328v1.47zm.558-1.947h.677a1.09 1.09 0 0 0 .663-.145.5.5 0 0 0 .092-.658.509.509 0 0 0-.236-.181 1.754 1.754 0 0 0-.56-.06h-.635z" class="cls-1" transform="translate(-780.023 -348.758)"/>
        </g>
    </g>
</svg>
