<svg xmlns="http://www.w3.org/2000/svg" width="82.904" height="82.904" viewBox="0 0 82.904 82.904">
    <defs>
        <style>
            .cls-1{fill:#0d0d0d;fill-rule:evenodd}
        </style>
    </defs>
    <g id="Group_2389" transform="translate(0 0)">
        <path id="Path_1463" d="M-246.06 372.454a41.453 41.453 0 0 0-41.452 41.452 41.452 41.452 0 0 0 41.452 41.452 41.452 41.452 0 0 0 41.452-41.452 41.453 41.453 0 0 0-41.452-41.452zm0 79.187a37.735 37.735 0 0 1-37.735-37.735 37.735 37.735 0 0 1 37.735-37.735 37.735 37.735 0 0 1 37.735 37.735 37.735 37.735 0 0 1-37.735 37.735z" class="cls-1" transform="translate(287.512 -372.454)"/>
        <path id="Path_1464" d="M-212.613 400.9a29.388 29.388 0 0 1 8.262-1.177 29.387 29.387 0 0 1 8.252 1.175l-8.252 18.292-8.262-18.29z" class="cls-1" transform="translate(245.803 -387.636)"/>
        <path id="Path_1465" d="M-207.99 410.066a29.535 29.535 0 0 1 7.957 7.465l-13.544 29.969-5.226-11.622h-9.9l-5.227 11.622-13.525-30a29.534 29.534 0 0 1 7.936-7.437l10.816 23.994h9.937l10.78-23.994z" class="cls-1" transform="translate(265.207 -393.399)"/>
        <path id="Path_1466" d="M-259.256 448.843a29.416 29.416 0 0 0-.993 7.6 29.372 29.372 0 0 0 16.26 26.29l-15.267-33.892z" class="cls-1" transform="translate(272.33 -414.993)"/>
        <path id="Path_1467" d="M-212.3 507.064a29.366 29.366 0 0 0 8.126 1.139 29.387 29.387 0 0 0 8.116-1.136l-8.116-18.023-8.126 18.02z" class="cls-1" transform="translate(245.632 -437.379)"/>
        <path id="Path_1468" d="M-164.384 482.816a29.372 29.372 0 0 0 16.261-26.29 29.415 29.415 0 0 0-.976-7.537l-15.285 33.827z" class="cls-1" transform="translate(218.946 -415.074)"/>
    </g>
</svg>
