<svg xmlns="http://www.w3.org/2000/svg" width="119.036" height="127.977">
    <defs>
        <style>
            .cls-1{fill:#ff3f6c}
        </style>
    </defs>
    <g id="Anna_layer_3" transform="translate(-5.134 -7.789)">
        <g id="vDL2kd_1_">
            <g id="XMLID_201_">
                <path id="XMLID_321_" class="cls-1" d="M75.353 65.544a26.952 26.952 0 0 1 2.447-2.578 2.853 2.853 0 0 1 3.684-.156 14.546 14.546 0 0 1 5.231 6.974 3.479 3.479 0 0 1 .058.7 4.358 4.358 0 0 0-3.8.167 6.892 6.892 0 0 0-2.673 3.582 32.374 32.374 0 0 0-.727 2.027 3.723 3.723 0 0 0 .576 3.9 16.859 16.859 0 0 1-2.847-.054c-.341-.06-.714-.693-.834-1.13-.777-2.843-1.4-5.73-2.241-8.552a34.588 34.588 0 0 0-5.657-10.8c.13.359.275.714.388 1.079 2.072 6.7 4.186 13.38 6.183 20.1.673 2.264-.358 3.534-2.581 3.471l.345.7L65.8 87.24l-.217-.317a4.235 4.235 0 0 1 .812-.651c1.161-.534 2.352-1 3.514-1.53.738-.337 1.546-.743 1.232-1.759-.3-.984-1.205-.976-2-.837-1.367.237-2.717.573-3.989.849l-2.4-5.658-.223.078 1.958 5.908-3.308 1.369c-.231-.636-.467-1.211-.649-1.8-2.33-7.576-4.93-15.081-6.881-22.752a66.935 66.935 0 0 1-2.1-18.855c.007-.2 0-.4.006-.6.126-2.8 1.971-4.088 4.548-2.93a13.357 13.357 0 0 1 3.753 2.684c3.408 3.351 5.459 7.656 7.88 11.691 1.766 2.942 3.454 5.931 5.152 8.913.873 1.526 1.69 3.08 2.465 4.501zM56.8 55.831c-.047-.913-.15-1.828-.13-2.739.058-2.666.031-5.345.3-7.991a3.138 3.138 0 0 0-1.694-3.518A44.658 44.658 0 0 0 56.8 55.831zM82.829 67.42l.258-.235a27.7 27.7 0 0 0-2.588-2.6 1.8 1.8 0 0 0-1.628.015c-1.241.742-2.149 3.57-1.772 5.05 1.87-4.427 3.601-4.075 5.73-2.23zm-14.108 5.461-.3.081L69.9 78.54l.334-.09q-.754-2.785-1.513-5.569z"/>
                <path id="XMLID_320_" class="cls-1" d="m59.2 122.513-4.183 12.471-3.246.782c.493-1.56 1-2.992 1.4-4.454 1.2-4.425 2.38-8.854 3.494-13.3.255-1.017.863-1.4 1.705-1.178a8.692 8.692 0 0 1 3.13 1.3c2.538 1.984 4.931 4.153 7.411 6.214a.862.862 0 0 0 .841-.108 3.955 3.955 0 0 0 .542-1.189c1.6-4.508 3.223-9.012 4.779-13.537.267-.775.684-.943 1.326-.684a5.27 5.27 0 0 1 1.54.878c2 1.783 3.927 3.636 5.924 5.417.854.762 1.81 1.409 2.954 2.288.325-2.369.526-4.469.918-6.533.49-2.582 1.087-5.147 1.735-7.694a2.747 2.747 0 0 1 3.041-2A4.616 4.616 0 0 1 96 102.809a36.307 36.307 0 0 0 12.271 9.406 13.672 13.672 0 0 1 2.221 1.8c-1.3.929-2.311 1.712-3.393 2.377a1.362 1.362 0 0 1-1.129-.165 52.8 52.8 0 0 1-10.789-8.132 7.88 7.88 0 0 0-.708-.647c-1.1-.887-1.948-.588-2.209.764l-3.025 15.587c-4.854-2.186-8.628-5.52-12.865-8.509-.218.721-.457 1.38-.617 2.057-.732 3.1-1.38 6.229-2.2 9.31a5.691 5.691 0 0 1-1.443 2.407 3.082 3.082 0 0 1-4.609.29c-2.571-2.023-5.057-4.154-7.578-6.24-.236-.195-.47-.391-.727-.601z"/>
                <path id="XMLID_316_" class="cls-1" d="M30.806 25.518c3.157.412 6.342.682 9.458 1.3a12.605 12.605 0 0 1 4.2 1.933 7.9 7.9 0 0 1 4 6.716 41.269 41.269 0 0 1-.229 6.215c-.521 3.7-2.721 6.412-5.7 8.522a24.115 24.115 0 0 1-14.352 4.616c-4.2-.019-8.414.008-12.434-1.413a24.627 24.627 0 0 1-9.14-5.992 4.49 4.49 0 0 1-1.273-4.635 47.618 47.618 0 0 1 2.8-7.715 11.931 11.931 0 0 1 3.5-3.686 26.2 26.2 0 0 1 16.365-5.556h2.76c.019-.103.032-.204.045-.305zm14.746 11.935a5.583 5.583 0 0 0-2.352-5.091 20.671 20.671 0 0 0-5.955-2.9c-3.827-1.021-7.781-.587-11.639.079a28.843 28.843 0 0 0-6.88 1.9c-3.853 1.729-6.208 5.057-8 8.754a4.286 4.286 0 0 0 .14 4.06c1.309 2.246 2.9 4.216 5.544 5.124 4.3 1.476 8.756 1.28 13.156 1.178 4.595-.106 8.424-2.42 12.076-5.052a9.145 9.145 0 0 0 3.91-8.052zM9.474 40.639c-1.2 1.552-1.468 3.1-.847 4.017l.847-4.017z"/>
                <path id="XMLID_313_" class="cls-1" d="M84.659 42.574c-5.035.181-10.068.026-14.883-1.668a19.109 19.109 0 0 1-3.853-1.886 5.916 5.916 0 0 1-2.8-4.527 9.046 9.046 0 0 1 1.525-6.441 25.467 25.467 0 0 1 8.193-7.577 47.965 47.965 0 0 1 17.528-6.717c4.09-.6 8.113-1.739 12.215-2.172a45.048 45.048 0 0 1 10.873 0c2.549.356 4.96 1.859 7.365 2.992a3.62 3.62 0 0 1 1.437 1.715 18.373 18.373 0 0 1 1.9 8.56 4.127 4.127 0 0 1-.835 1.937 28.747 28.747 0 0 1-9.118 8.362 49.124 49.124 0 0 1-21.642 7.389c-2.616.228-5.269.033-7.905.033zm.264-3.335a46.724 46.724 0 0 0 23.945-5.245c4.022-2.13 7.783-4.568 10.677-8.167a8.91 8.91 0 0 0 2.05-5.364 3.1 3.1 0 0 0-1.484-3.072 21.44 21.44 0 0 0-5.06-2.34c-7.269-1.745-14.6-1.369-21.849.111s-13.83 4.8-20.556 7.725c-3.256 1.418-5.031 4-6.213 7.064-1.675 4.35-.542 6.48 3.917 7.887.228.072.456.144.687.207 4.207 1.147 8.512 1.255 13.886 1.194z"/>
                <path id="XMLID_312_" class="cls-1" d="M62.048 29.234c-.808-.859-.547-1.514.153-1.922a5.566 5.566 0 0 0 2.085-2.659 15.462 15.462 0 0 1 5.363-5.709c6.823-4.737 14.43-7.587 22.471-9.489A65.023 65.023 0 0 1 109 7.818a23.351 23.351 0 0 1 12.6 4.392 9.942 9.942 0 0 1 2.377 2.749c-2.581-3.008-6.191-4.018-9.742-5.069a12.266 12.266 0 0 0-3.559-.359 55.876 55.876 0 0 0-11.439.847c-5.21 1.136-10.553 1.774-15.659 3.25a41.724 41.724 0 0 0-17.115 9.537c-1.516 1.419-2.544 3.36-3.788 5.068-.204.281-.375.59-.627 1.001z"/>
                <path id="XMLID_311_" class="cls-1" d="m57.314 94.581 12.867-3.818.13.424-12.829 3.994z"/>
                <path id="XMLID_310_" class="cls-1" d="M76.007 105.7c-.045-1.812 1.538-1.389 2.357-2.136-.001 1.286-.001 1.286-2.357 2.136z"/>
                <path id="XMLID_309_" class="cls-1" d="m70.819 106.793 3.046-1.043.136.391c-.687 1.3-2.126.493-3.09 1.017l-.092-.365z"/>
                <path id="XMLID_308_" class="cls-1" d="m79.882 94.565 4.011-1.585.092.226-3.974 1.646-.129-.287z"/>
                <path id="XMLID_296_" class="cls-1" d="m40.078 35.512.524 5.533-.485.3a10.776 10.776 0 0 1-1.488-1.08 1.254 1.254 0 0 0-1.782-.244c-1.958 1.139-3.921 2.289-5.971 3.242a9.745 9.745 0 0 1-3.565.869c-2.924.137-5.908.583-8.691-.838a2.768 2.768 0 0 1-.341-.262l.675-2.639c7.585 1.048 14.781.383 20.8-5.154l.324.273z"/>
                <path id="XMLID_295_" class="cls-1" d="m31.189 45.029 5.766-2.989c-1.634 1.923-3.243 3.366-5.766 2.989z"/>
                <path id="XMLID_294_" class="cls-1" d="M77.575 29.827c2.175 0 4.215.1 6.242-.024 2.7-.162 5.383-.595 8.082-.732 4.936-.252 8.775-2.969 12.666-5.527a17.138 17.138 0 0 0 2.8-2.93c.291-.316.544-.666.864-1.061a3.906 3.906 0 0 1 .471 3.947 10.191 10.191 0 0 1-3.356 4.58 26.243 26.243 0 0 1-9.82 5.054c-1.887.436-3.695 1.344-5.594 1.571a27.581 27.581 0 0 1-11.463-1.144c-.994-.307-1.568-.868-1.236-2.018.169-.562.236-1.156.344-1.716z"/>
            </g>
        </g>
    </g>
</svg>
