<svg xmlns="http://www.w3.org/2000/svg" width="118.531" height="129.186">
    <defs>
        <style>
            .cls-1{fill:#ff3f6c}
        </style>
    </defs>
    <g id="Anna_layer_1" transform="translate(-6.055 -7.052)">
        <g id="_x34_124oB_1_">
            <g id="XMLID_1_">
                <path id="XMLID_75_" class="cls-1" d="M72.557 72.624a16.008 16.008 0 0 1 1.289-1.74 1.169 1.169 0 0 1 2.134.458c.366 1.043.658 2.111 1.028 3.315-2.583.927-2.5 3.229-2.512 5.431-.007 1.935-.532 2.627-2.333 2.877-.174.306-.249.651-.42.708-2.257.751-4.527 1.462-6.794 2.183l-.259-.367a4.68 4.68 0 0 1 .878-.711c1.23-.576 2.526-1.024 3.707-1.682a2 2 0 0 0 .956-1.43c-.021-.812-.84-1.067-1.544-.913a45.091 45.091 0 0 0-4.953 1.293c-2.559.875-5.07 1.895-7.6 2.856-.222.084-.439.184-.657.281-.338.149-.675.3-1.012.453a4.546 4.546 0 0 1-.415-1.282c-.048-3.65.371-7.178 2.673-10.235a1.908 1.908 0 0 0 .04-1.439c-1.259-4.285-2.815-8.5-3.794-12.845a80.342 80.342 0 0 1-2.313-20.4c.1-3.028 2.086-4.408 4.815-3.077a6.93 6.93 0 0 1 2.893 2.57c2.279 4.021 4.489 8.1 6.442 12.283a133.216 133.216 0 0 1 7.508 20.8c.053.182.142.358.243.613zm-17.97-32.753c-.425 4.065.3 12.369 1.335 14.253-.051-.77-.142-1.446-.132-2.121.039-2.711-.266-5.5.293-8.1.403-1.889-.524-2.638-1.496-4.032zm8.544 40.3.52-.2-1.484-3.244-.174.07 1.138 3.378zm5.74-3.821.277-.109-1.026-3.688-.255.071q.501 1.867 1.004 3.73z"/>
                <path id="XMLID_69_" class="cls-1" d="M84.554 41.466c-5.51-.079-10.292-.274-14.926-1.7a15.764 15.764 0 0 1-5.755-3.079 8.016 8.016 0 0 1-2.723-7.4c.347-3.745 2.785-6.232 5.144-8.8 5.063-5.5 11.586-8.347 18.6-10.348a71.432 71.432 0 0 1 18.878-2.892c3.348-.037 6.7-.277 10.042-.167a9.272 9.272 0 0 1 7.431 3.6 19.847 19.847 0 0 1 3.055 6.52c.861 3.316-.341 6.383-2.393 9.062-3.515 4.591-8.207 7.661-13.341 10.118a45.693 45.693 0 0 1-19.338 4.846c-1.791.021-3.586.181-4.674.24zm-7.97-26.954a27.38 27.38 0 0 0 3.61-.765c3.472-1.221 6.9-2.555 10.351-3.845-2.067.486-4.18.9-6.2 1.6-2.62.9-5.166 2.012-7.743 3.033L72.407 16.5l.167.334q2.006-1.16 4.01-2.322zm5.823 23.265c6.233.006 11.94-.155 17.449-1.943 6.368-2.067 12.351-4.875 17.159-9.674a14.059 14.059 0 0 0 3.112-4.343c1.416-3.414.622-5.324-2.3-6.769a17.084 17.084 0 0 0-3.665-1.431 50.918 50.918 0 0 0-21.743.143c-7.254 1.473-13.852 4.772-20.569 7.734-3.718 1.639-5.568 4.661-6.585 8.317-.9 3.223.017 4.859 3.128 6.135a15.385 15.385 0 0 0 1.813.611 44.379 44.379 0 0 0 12.201 1.22zM96.894 8.664c8.155.047 16.406-.939 24.131 3.619a9.829 9.829 0 0 0-8.13-4.167c-5.335.056-10.668.353-16.001.548zM62.059 31.816l1.061-4.75a6.327 6.327 0 0 0-1.061 4.75z"/>
                <path id="XMLID_68_" class="cls-1" d="M108.454 117.9c-.981-.887-1.85-1.651-2.695-2.439a50.4 50.4 0 0 0-10.444-7.6 20.3 20.3 0 0 1-1.944-1.186c-1.105-.768-1.4-.663-1.57.7-.687 5.463-1.357 10.928-2.041 16.392-.048.383-.155.759-.311 1.508l-13.967-11.126a15.9 15.9 0 0 0-.533 1.844c-.733 4.191-1.414 8.392-2.159 12.581-.2 1.136-.559 2.244-.859 3.361-.228.848-.681.885-1.288.332-.856-.779-1.724-1.545-2.579-2.326q-4.553-4.16-9.1-8.325c-.17-.156-.36-.29-.581-.466-.812 2.433-1.644 4.789-2.383 7.175-.62 2-1.161 4.035-1.676 6.069-.2.778-.521 1.191-1.382 1.118-.706-.06-1.42-.012-2.311-.012l-1.048.738c3.084-7.712 3.789-15.943 6.224-23.811 1.591.568 2.548 1.93 3.74 3.013 2.244 2.04 4.557 4 6.851 5.99a4.505 4.505 0 0 0 .781.43l.956-1.81c-.12.87-.223 1.386-.246 1.9-.008.185.177.378.274.568.158-.137.4-.245.459-.416.363-1.056.68-2.129 1.022-3.193 1.171-3.645 2.351-7.288 3.512-10.936a10.037 10.037 0 0 0 .236-1.264c2.591.367 4.445 1.911 6.205 3.659 1.388 1.378 2.851 2.682 4.3 4a17.687 17.687 0 0 0 1.524 1.078c.539-2.5 1.011-4.78 1.528-7.054q1.251-5.473 2.551-10.935c.184-.769.653-.975 1.293-.38.7.653 1.372 1.345 2.106 1.96a247.38 247.38 0 0 0 5.261 4.311c2.378 1.884 4.836 3.669 7.171 5.605 1.926 1.6 3.72 3.352 5.577 5.032.695.629.662 1.174-.076 1.773-.79.642-1.514 1.356-2.378 2.142z"/>
                <path id="XMLID_64_" class="cls-1" d="M24.9 53.417A35.508 35.508 0 0 1 14.742 52a18.547 18.547 0 0 1-7.332-5.04 3.756 3.756 0 0 1-1-2.721c-.084-4.552 1.925-7.939 5.48-10.618 4.345-3.276 9.053-5.9 14.492-6.435a105.9 105.9 0 0 1 13.973-.153 11.665 11.665 0 0 1 4.627 1.542 4.94 4.94 0 0 1 2.518 4.146 38.723 38.723 0 0 1-.064 7.521c-.408 3.423-2.41 6.032-5.1 8.1-4.76 3.673-9.387 5.086-17.436 5.075zm.21-4.034.048-.336c.68 0 1.36-.017 2.039 0a18.963 18.963 0 0 0 12.317-4.234 8.139 8.139 0 0 0 3.351-5.213 24.966 24.966 0 0 0 .11-3.949c0-3.011-.9-4.259-3.8-5.108a9.485 9.485 0 0 0-3.058-.462c-4.05.2-8.092.273-12.016 1.694A25.28 25.28 0 0 0 13.919 38.5a7.531 7.531 0 0 0-1.9 3.515c-.6 3.335-.4 3.925 2.467 5.391a6.242 6.242 0 0 0 1.779.686c2.942.469 5.893.868 8.835 1.291zm-17.252-4.47a11.731 11.731 0 0 1 2.808-8.718c-2.911 2.17-4.725 6.67-2.808 8.718z"/>
                <path id="XMLID_63_" class="cls-1" d="M6.055 38.032a10.283 10.283 0 0 1 3.514-7.1 24.642 24.642 0 0 1 15.154-6.414 61.052 61.052 0 0 1 11.565.261c-1.827.109-3.653.244-5.481.324a32.519 32.519 0 0 0-22.23 9.566 14.065 14.065 0 0 0-1.329 1.541c-.404.537-.741 1.125-1.193 1.822z"/>
                <path id="XMLID_62_" class="cls-1" d="M56.44 93.3c4.429-1.838 9.11-2.868 13.706-4.172l.121.384L56.6 93.816q-.078-.258-.16-.516z"/>
                <path id="XMLID_61_" class="cls-1" d="M77.774 102.378c-.173.357-.253.9-.534 1.04-2.349 1.159-4.674 2.446-7.732 2.2l7.98-3.449c.095.068.19.139.286.209z"/>
                <path id="XMLID_60_" class="cls-1" d="m85.558 90.852-6.641 2.7-.147-.372 6.68-2.65z"/>
                <path id="XMLID_59_" class="cls-1" d="m97.238 110.413 4.914 3.677-.239.327-5-3.622z"/>
                <path id="XMLID_58_" class="cls-1" d="M76.362 31.761c.75-1.346 1.3-2.4 1.931-3.406a1.115 1.115 0 0 1 .893-.333 29.408 29.408 0 0 0 19.687-4.86c1.319-.885 2.564-1.881 3.836-2.835.663-.5 1.1-.448 1.4.411.341.983.774 1.935 1.178 2.929.652-.05 1.064-1.682 2.29-.138-.361.244-.76.5-1.138.773-4.679 3.439-9.539 6.556-15.213 8.098a18.409 18.409 0 0 1-3.894.558 44.832 44.832 0 0 1-6.305.023 29.161 29.161 0 0 1-4.665-1.22z"/>
                <path id="XMLID_57_" class="cls-1" d="M75.143 30.583c-.221-.377-.605-.758-.527-.945a14.335 14.335 0 0 1 1.291-2.368c.081-.123.656-.051.887.1a.806.806 0 0 1 .206.766 20.767 20.767 0 0 1-1.288 1.917 4.829 4.829 0 0 1-.569.53z"/>
                <path id="XMLID_56_" class="cls-1" d="m18.172 41.4 1.937-.481-.92-.967a7.582 7.582 0 0 1 2.029.024 15.208 15.208 0 0 0 11.627-.615 29.94 29.94 0 0 0 4.563-3.286l2.383 2.125-2.155 2.552-.37-1.148c-.111.038-.248.041-.307.111-4.322 5.136-4.733 4.022-9.956 4.113a19.96 19.96 0 0 1-8.751-2.013l-.08-.415z"/>
            </g>
        </g>
    </g>
</svg>
