<svg xmlns="http://www.w3.org/2000/svg" width="116.173" height="126.3">
    <defs>
        <style>
            .cls-1{fill:#ff3f6c}
        </style>
    </defs>
    <g id="Anna_layer_4" transform="translate(-6.985 -7.636)">
        <g id="syvS1f_1_">
            <g id="XMLID_2_">
                <path id="XMLID_109_" class="cls-1" d="M6.985 42a1.425 1.425 0 0 0 .1-.217C9.35 33.656 15.2 29.571 23.009 27.791A75.365 75.365 0 0 1 32.64 26c4.866-.457 9.263.817 12.626 4.67a3.95 3.95 0 0 1 1.11 2.938c-.113 1.832-.062 3.689-.351 5.493A12.245 12.245 0 0 1 41 46.993a23.976 23.976 0 0 1-14.777 5.14 48.072 48.072 0 0 1-12.123-1.14 9.645 9.645 0 0 1-6.209-4.853 14.207 14.207 0 0 1-.906-2.7V42zm25.342-14.425-.032.372c-4.332-.535-8.264.965-12.255 2.261-3.581 1.163-6.178 3.509-8.5 6.348-1.893 2.315-1.94 4.92-1.474 7.6.433 2.489 2.366 3.683 4.522 4.53a20.4 20.4 0 0 0 10.684 1.2c4.714-.714 9.319-1.714 13.376-4.436 3.557-2.387 5.448-5.593 5.271-9.955A7.078 7.078 0 0 0 39 28.681a53.649 53.649 0 0 0-6.673-1.106z"/>
                <path id="XMLID_105_" class="cls-1" d="M73.247 67.551c.113-.305.189-.48.244-.661a3.072 3.072 0 0 1 5.623-.717 21.015 21.015 0 0 1 1.991 4.2 35.079 35.079 0 0 1 1.107 4.268c.165.726-.2 1.205-.754 1.734-1.792 1.709-4.113 2.4-6.238 3.466-.718.36-1.168-.028-1.371-.943a84.418 84.418 0 0 0-5.2-16.382c-.075-.168-.18-.323-.378-.676 1.431 4.84 2.817 9.453 4.148 14.081a12.75 12.75 0 0 1 .612 3.393 2.587 2.587 0 0 1-.946 1.9 18.578 18.578 0 0 1-3.739 1.818c-1.561.591-3.184 1.019-4.78 1.517l-.287-.276c.231-.272.408-.654.7-.8 1.078-.521 2.2-.954 3.293-1.44.388-.172.751-.4 1.125-.6l-.158-.329-7 3.172.827.181c-.094.143-.145.32-.25.363q-2.376.974-4.767 1.914c-.907.355-1.39-.052-1.745-.9-.492-1.176-1.217-2.264-1.625-3.464A15.422 15.422 0 0 1 52.661 78c-.063-2.109 1.164-3.575 3.292-4.355-.762-2.654-1.351-5.35-2.307-7.909a82.739 82.739 0 0 1-4.159-19.245 68.639 68.639 0 0 1-.265-8.858c.022-2.3 1.474-3.1 3.742-3.1 2.929 0 4.495 1.9 6.015 3.771a48.454 48.454 0 0 1 3.54 5.68A88.767 88.767 0 0 1 69.576 58.9c1.077 2.875 2.391 5.656 3.671 8.651zm-18.81-15.04c-.038-.475-.116-.95-.109-1.425.044-2.866-.02-5.742.212-8.594.141-1.734.038-2.552-1.44-3.555a43.879 43.879 0 0 0 1.337 13.574zM61.268 76.6l-.277.132 1.059 2.941.418-.156z"/>
                <path id="XMLID_100_" class="cls-1" d="M79.828 40.429c1.214 1.022 2.766 1.11 4.233 1.265 4.4.466 8.816.823 13.225 1.227.105.01.206.072.343.381-1.944.305-3.879.742-5.835.889a45.071 45.071 0 0 1-16.645-2.186 23.076 23.076 0 0 1-3.457-1.334c-2.431-1.2-4.824-2.474-7.217-3.749-4.282-2.282-4.664-6.769-2.6-10.785 1.793-3.481 4.805-5.75 7.988-7.925 5.869-4.009 12.565-5.779 19.239-7.734a60.813 60.813 0 0 1 18.121-2.836 22.638 22.638 0 0 1 11.281 2.689c2.685 1.555 4.608 3.622 4.649 6.9a10.842 10.842 0 0 1-1.626 6.171 21.617 21.617 0 0 1-8.083 7.6 107.2 107.2 0 0 1-15.485 6.661 41.207 41.207 0 0 1-16.082 2.636c-.661-.041-1.32-.132-1.979-.2-.02.106-.045.218-.07.33zM81.42 36.5c2.912-.115 5.836-.107 8.734-.371a42.883 42.883 0 0 0 17.529-5.612c4.206-2.407 8.538-4.739 10.362-9.789a5.269 5.269 0 0 0 .279-3.439c-.516-1.823-2.017-2.631-3.385-3.685a12.137 12.137 0 0 0-7.651-2.217c-1.795-.021-3.592.112-5.389.167a21.677 21.677 0 0 0-3.824.131c-5.334 1.143-10.688 2.241-15.947 3.679-5.944 1.625-10.832 5.191-15.3 9.316a8.429 8.429 0 0 0-1.754 2.82 5.8 5.8 0 0 0 3.755 7.719A49.276 49.276 0 0 0 81.42 36.5zM65.6 24.525l3.688-3.717c-1.931.582-2.825 2.563-3.688 3.717z"/>
                <path id="XMLID_99_" class="cls-1" d="m64.916 118.992 4.973-14.471-1.6-.162-.061-.18 7.935-3.43a1.164 1.164 0 0 1-.734 1.62c-1.132.487-2.243 1.021-3.619 1.653 4.111 2.542 7.178 6.17 11.6 8.3.678-2.817 1.353-5.514 1.973-8.224.542-2.371 1-4.761 1.539-7.133.23-1.016.666-1.165 1.671-.581a151.791 151.791 0 0 1 14.928 9.775c1.339 1.006 2.736 1.939 4.147 2.842.766.49.807 1 .485 1.795-.448 1.1-.76 2.262-1.11 3.4-.276.9-.815 1.146-1.479.518a86.273 86.273 0 0 0-11.383-8.571 27.843 27.843 0 0 1-2.269-1.887c-1.485.657-1.513 2.054-1.847 3.289q-1.763 6.525-3.54 13.047c-.051.186-.139.361-.292.752-.766-.572-1.462-1.07-2.134-1.6-3.644-2.858-7.272-5.735-10.928-8.579-.989-.769-1.154-.672-1.551.5-1.459 4.3-2.928 8.6-4.44 13.038l-9.508-6.761-.429.455a9.046 9.046 0 0 0 1.14 1.413c2.516 2.1 5.063 4.163 7.61 6.226.425.344.9.623 1.354.932l-.406.464c-2.161-.363-3.39-2.262-5.073-3.387a57.685 57.685 0 0 1-4.914-4.082c-.784 2.327-1.6 4.64-2.34 6.976-.552 1.735-.994 3.506-1.542 5.243a1.154 1.154 0 0 1-.741.576c-1.575.41-3.164.766-4.881 1.172a12.107 12.107 0 0 1 .216-1.3q2.439-8.826 4.9-17.645a11.837 11.837 0 0 1 .408-1.126c.669-1.7 1.761-2.142 3.359-1.188 1.333.8 2.583 1.74 3.833 2.668 1.594 1.187 3.15 2.42 4.75 3.653z"/>
                <path id="XMLID_98_" class="cls-1" d="M73.378 113.417a3.936 3.936 0 0 1 .134 1.242c-.724 3.266-1.456 6.531-2.284 9.771a4.869 4.869 0 0 1-1.165 1.769.926.926 0 0 1-.9.143 1 1 0 0 1-.289-.886c.241-.882.592-1.734.9-2.6q1.69-4.7 3.383-9.395z"/>
                <path id="XMLID_97_" class="cls-1" d="M55.029 92.154c4.606-2.136 9.546-3.207 14.427-4.465a66.234 66.234 0 0 1-14.427 4.465z"/>
                <path id="XMLID_96_" class="cls-1" d="M19.487 57.945c2.572-.218 4.958-.358 7.327-.637 2.321-.274 4.625-.691 6.828-1.028-2.956 1.753-9.142 2.82-14.155 1.665z"/>
                <path id="XMLID_95_" class="cls-1" d="M103.255 37.736c-3.489 1.2-6.62 3.6-10.787 3.03l10.645-3.346.142.316z"/>
                <path id="XMLID_94_" class="cls-1" d="M108.443 38.455a11.943 11.943 0 0 1-9.066 2.29z"/>
                <path id="XMLID_93_" class="cls-1" d="m86.746 88.489-9.273 3.8-.187-.459 9.285-3.684.175.343z"/>
                <path id="XMLID_92_" class="cls-1" d="m7.622 34.223 4.992-4.4.325.362L8.046 34.7l-.424-.477z"/>
                <path id="XMLID_91_" class="cls-1" d="M76.926 12.812 69.835 16.8a15.881 15.881 0 0 1 7.091-3.988z"/>
                <path id="XMLID_90_" class="cls-1" d="M76.707 114.518 80.6 117.8l-.269.322-3.888-3.3c.086-.101.175-.203.264-.304z"/>
                <path id="XMLID_89_" class="cls-1" d="M15.68 42.005c.517-1.936.521-1.8 2.09-1.8 3.93-.006 7.973.611 11.681-1.183a45.526 45.526 0 0 0 6.218-3.763c.859-.6 1.432-.792 2.269-.148.927.713.488 1.448.155 2.365-1.4-.7-2.483-.008-3.57.7A27.182 27.182 0 0 1 17.572 42.5a10.082 10.082 0 0 1-1.892-.495z"/>
                <path id="XMLID_88_" class="cls-1" d="M13.425 36.167a13.144 13.144 0 0 1 5.1-3.8A64.419 64.419 0 0 1 28.6 29.423a20.5 20.5 0 0 1 9.034.305 6.521 6.521 0 0 1 4.9 7.357 10.6 10.6 0 0 1-2.748 5.615c-.088.1-.25.141-.609.037a10.688 10.688 0 0 1 .6-.945c1.908-2.436 2.076-5.185 1.443-8.068a3.317 3.317 0 0 0-1.987-2.253 15.159 15.159 0 0 0-9.455-1.271 44.279 44.279 0 0 0-7.813 1.654 48.964 48.964 0 0 0-6.805 3.678c-.514.287-1.008.608-1.511.914-.075-.09-.149-.185-.224-.279z"/>
                <path id="XMLID_87_" class="cls-1" d="m26.567 43.614 5.915-2.3c-1.557 1.947-3.675 2.386-5.915 2.3z"/>
                <path id="XMLID_86_" class="cls-1" d="M75.808 28.193a20.886 20.886 0 0 1 1-1.9.951.951 0 0 1 .761-.342c5.622.725 11-.31 16.389-1.873a32.581 32.581 0 0 0 12.3-6.7c.3-.259.635-.481.825-.623a12.605 12.605 0 0 1 1.436.282c.321.1.751.258.861.509.1.233-.093.662-.264.938a16.873 16.873 0 0 1-7.254 6.261 43.653 43.653 0 0 1-13.467 4.465 29.741 29.741 0 0 1-11.3-.57c-.415-.109-.806-.278-1.287-.447z"/>
                <path id="XMLID_85_" class="cls-1" d="M74.474 29.391c12.728 3.9 23.877.23 34.6-6.966a34.812 34.812 0 0 1-2.251 2.753c-2.692 2.683-6.147 3.971-9.676 5.058-5.276 1.626-10.65 2.531-16.181 1.711a39.815 39.815 0 0 1-4.891-1.117 7.529 7.529 0 0 1-1.7-1z"/>
            </g>
        </g>
    </g>
</svg>
