<svg xmlns="http://www.w3.org/2000/svg" width="120.154" height="130.473">
    <defs>
        <style>
            .cls-1{fill:#ff3f6c}
        </style>
    </defs>
    <g id="Anna_layer_5" transform="translate(-5.573 -5.536)">
        <g id="wfq5Yr_1_">
            <g id="XMLID_3_">
                <path id="XMLID_160_" class="cls-1" d="M53.661 86.165c-1.439.53-1.5.515-2.349-.874-.833-1.356-1.764-2.643-1.579-4.408.218-2.079 1.2-3.1 3.259-3.116 1.589-.012 1.791-.286 1.393-1.884-.76-3.055-1.672-6.082-2.239-9.172a92.759 92.759 0 0 1-1.358-10.417c-.273-4.018-.252-8.06-.255-12.091a34.607 34.607 0 0 1 .442-5 4.571 4.571 0 0 1 .857-1.936c.817-1.118 2.111-1.022 3.194-.228 4.629 3.4 6.217 8.69 8.5 13.519 4.085 8.651 6.809 17.794 9.376 26.983a2.086 2.086 0 0 0 .626 1.082 1.852 1.852 0 0 0 .077-.639c-.644-2.55-1.309-5.094-1.967-7.64a2.813 2.813 0 0 1-.223-1.038 1.156 1.156 0 0 1 .572-.769c.165-.075.622.173.744.391.289.517.387 1.144.7 1.645.21.341.7.811.968.758.7-.136.52-.727.353-1.256-.658-2.092-1.295-4.191-1.936-6.289a.655.655 0 0 1 .1-.636c1 2.607 2.01 5.214 3.087 8.01 1.507-2.661 3.823-2.531 6.1-2.177 1.225.19 1.92 1.509 2.2 3.624-.363-.553-.6-.938-.862-1.309a4.17 4.17 0 0 0-5.044-1.705c-1.249.446-1.664 1.34-1.24 2.805a2.761 2.761 0 0 0 .3-.361 2.729 2.729 0 0 1 4.822-.172c1.185 1.749.983 3.739.878 5.687-.013.245-.51.572-.841.672-1.372.417-2.773.74-4.149 1.145-.531.156-1.3.085-1.216 1.065.014.159-.525.447-.847.545-6.636 2.021-13.174 4.403-20.051 5.56-.821.138-1.658.18-2.6.279l.193-.669 10.12-2.926c-.185-.309-.24-.523-.348-.555a1.269 1.269 0 0 0-.693-.024c-3.108.956-6.348 1.564-9.064 3.521zm4.716-4.92-5.19-16.987a88.614 88.614 0 0 0 3.662 16.423c.265.832.833.667 1.528.564zm-4.634-41.191-.321.11a47.2 47.2 0 0 0 1.327 13.772c.027-.642-.043-1.278-.059-1.915-.079-3.1-.335-6.215.549-9.264a1.058 1.058 0 0 0-.127-.771c-.423-.665-.912-1.291-1.369-1.932zm24.679 35.093c.613-1.122.461-1.448-.927-2.136-.627.951-.52 1.213.927 2.136zm3.477-1.3c-.059-2.124-.385-2.627-1.51-2.3.499.764.998 1.523 1.511 2.3z"/>
                <path id="XMLID_155_" class="cls-1" d="M49.046 131.837c-.4.877-.81 1.778-1.207 2.687-.653 1.495-1.032 1.688-2.9 1.333 3.79-7.212 5.546-15.113 8.212-22.884.321.175.658.325.959.528q6.012 4.059 12.018 8.13a8.165 8.165 0 0 0 .724.425c1.015.54 1.467.369 1.854-.817 1.227-3.756 2.425-7.522 3.629-11.285.158-.494.3-.994.433-1.494.415-1.523 1.245-1.894 2.612-1.041q2.492 1.554 4.887 3.261c1.756 1.252 3.455 2.585 5.18 3.88.764.573 1.3.422 1.517-.428.774-2.971 1.573-5.936 2.306-8.917.342-1.393.6-2.811.815-4.229.237-1.541.271-1.6 1.815-1.2.229.059.457.12.707.186l.374-1.058 18.437 13.817c-1.037.794-1.352.729-3-.527.221 1.244.42 2.421-.807 3.387-.581-.438-1.19-.87-1.769-1.338-2.831-2.284-5.621-4.622-8.5-6.849a41.065 41.065 0 0 0-4.292-2.79c-.736-.435-1.031.249-1.142.784a109.167 109.167 0 0 0-1.021 5.528c-.435 2.8-.8 5.609-1.212 8.412-.062.42-.207.828-.356 1.407-.638-.4-1.134-.714-1.626-1.031-3.461-2.23-6.914-4.471-10.385-6.686-1.186-.757-1.515-.666-2.4.523l-.341-.667-.337-.048-3.318 15.694c-.694-.539-1.259-1.026-1.871-1.445-4.021-2.751-8.028-5.524-12.093-8.209-1.46-.965-1.906-.841-2.49.805-1.227 3.458-2.287 6.975-3.41 10.47a17.426 17.426 0 0 1-.569 1.826 1.1 1.1 0 0 1-.757.56c-.168.018-.391-.394-.676-.7zM84.6 115.532l.347-.481-3.244-2.2c-.074.1-.147.206-.221.308zm17.351-7.331.133-.225-4.172-3.186-.175.234zm-48.707 7.047.844.738 1.038-.767-1.286-1.049-.594 1.078z"/>
                <path id="XMLID_154_" class="cls-1" d="M119.795 19.576c.56 3.958-.891 7.232-3.549 10.08a26.608 26.608 0 0 1-8.714 6.028c-3.45 1.555-6.691 3.672-10.486 4.308a98.392 98.392 0 0 1-9.959 1.186 53.752 53.752 0 0 1-17.835-1.332 20.632 20.632 0 0 1-4.629-1.911 6.87 6.87 0 0 1-3.31-8.441 17.437 17.437 0 0 1 5.763-8.312c4.585-3.714 9.937-5.871 15.337-8.005a33.067 33.067 0 0 1 10.657-1.951c2.348-.121 4.687-.423 7.034-.6a30.516 30.516 0 0 1 13.2 1.7 28.029 28.029 0 0 1 3.793 2.13l-.187.38a3.985 3.985 0 0 1-.695-.194 24.016 24.016 0 0 0-9.873-2.113 57.081 57.081 0 0 0-17.569 1.713 105.364 105.364 0 0 0-19.786 8.138c-2.587 1.355-3.824 4.12-4.687 6.877a10.552 10.552 0 0 0-.328 2.364 3.22 3.22 0 0 0 2.017 3.492 33.43 33.43 0 0 0 6.6 1.986 70.726 70.726 0 0 0 17.815.227 43.638 43.638 0 0 0 24.364-10.186c2.381-1.992 4.395-4.314 5.027-7.564z"/>
                <path id="XMLID_151_" class="cls-1" d="m13.107 32.951-.846.133-.078-.226c1.353-.746 2.687-1.531 4.064-2.231a60.885 60.885 0 0 1 16.4-5.444c5.379-1.018 9.729.945 13.558 4.377a5.489 5.489 0 0 1 1.374 3.31 42.177 42.177 0 0 1 .084 6.536 5.4 5.4 0 0 1-.906 2.435A23.146 23.146 0 0 1 31.9 52.7a32.576 32.576 0 0 1-10.37.486 55.147 55.147 0 0 1-7.862-1.363 13.93 13.93 0 0 1-3.73-1.843 6.181 6.181 0 0 1-3.2-5.9 19.89 19.89 0 0 1 .888-4.78 5.212 5.212 0 0 1 2.237-2.938c1.23-.785 2.09-2.154 3.244-3.411zm10.862 16.9c1.039 0 2.087-.085 3.116.015 3.623.353 6.849-1.231 9.966-2.517a18.817 18.817 0 0 0 7.713-6.319 7.266 7.266 0 0 0 1.127-2.351c.788-2.858-.14-5.41-1.528-7.881a5.006 5.006 0 0 0-3.031-2.383 17.807 17.807 0 0 0-4.682-.781 47.984 47.984 0 0 0-5.823.471 30.955 30.955 0 0 0-16.564 6.538 15.945 15.945 0 0 0-4.534 4.883c-.9 1.743-1.087 4.522-.042 5.328a29.358 29.358 0 0 0 5.392 3.489 18.986 18.986 0 0 0 8.89 1.513z"/>
                <path id="XMLID_150_" class="cls-1" d="M118.7 30.28c.933-2.026 1.935-3.846 2.621-5.777a9.373 9.373 0 0 0-.536-7.77 12.463 12.463 0 0 0-8.239-6.63c-2.16-.531-4.347-.955-6.284-1.375.975-.323 4.766.055 7.943.928a19.19 19.19 0 0 1 7.463 3.844 5.86 5.86 0 0 0-3.144-2.887 29.49 29.49 0 0 0-8.437-2.143 48.426 48.426 0 0 0-11.222.022l.787.269c-.2.059-.3.126-.395.114-4.437-.553-8.689.847-13.032 1.275a16.076 16.076 0 0 0-4 1.187c-5.116 1.945-10.305 3.782-14.633 7.28-2.253 1.821-4.342 3.843-6.473 5.9a6.477 6.477 0 0 1 .608-1.071 21.9 21.9 0 0 1 2.314-2.581c2.538-2.2 5.062-4.426 7.761-6.414a23.024 23.024 0 0 1 5.634-3.112C83.05 9.283 88.68 7.152 94.645 6.346c6.746-.912 13.529-1.359 20.236.34a27.264 27.264 0 0 1 5.286 1.884c3.759 1.842 5.269 5.172 5.51 9.167a18.133 18.133 0 0 1-.125 3.94c-.658 4.102-3.727 6.315-6.852 8.603z"/>
                <path id="XMLID_149_" class="cls-1" d="M106.087 22.833a9.224 9.224 0 0 1-6.806 7.721 60.3 60.3 0 0 1-9.538 2.646 31.044 31.044 0 0 1-13.033-1.053c-.515-.149-.844-.4-.637-1.042a13.543 13.543 0 0 0 .3-1.668c5.257 2.06 10.475 1.016 15.752.438 5.575-.611 9.453-4.303 13.962-7.042z"/>
                <path id="XMLID_148_" class="cls-1" d="M88.248 122a2.781 2.781 0 0 1-3.578-.04c-2.625-1.866-5.23-3.761-7.848-5.649-1.957 1.806-1.789 4.687-2.846 7.049l-.356-.093 2.169-9.639z"/>
                <path id="XMLID_147_" class="cls-1" d="M11.424 31.484c4.978-3.879 10.2-7.217 16.868-7.143-2.876 1.028-5.805 1.931-8.612 3.12s-5.509 2.671-8.256 4.023z"/>
                <path id="XMLID_146_" class="cls-1" d="M105.206 116.549a9.3 9.3 0 0 1-1.519-.744c-2.6-1.907-5.207-3.809-7.726-5.819-.473-.378-.56-1.239-.826-1.876l.438-.305 9.85 8.367z"/>
                <path id="XMLID_145_" class="cls-1" d="M105.273 105.354 94.955 98.3c.026-.1.051-.2.077-.295a6.454 6.454 0 0 1 1.8.435 41.936 41.936 0 0 1 4.6 2.971c1.441 1.117 2.71 2.457 4.055 3.7-.069.08-.142.161-.214.243z"/>
                <path id="XMLID_144_" class="cls-1" d="m88.989 28.769 12.093-4.669c-3.332 3.4-7.526 4.321-12.093 4.669z"/>
                <path id="XMLID_143_" class="cls-1" d="M69.17 89.1a62.933 62.933 0 0 1-13.77 4.244c4.405-2.02 9.107-3.07 13.77-4.244z"/>
                <path id="XMLID_142_" class="cls-1" d="m88 101.108-2.271 11.97-.921-.779a6.03 6.03 0 0 0 .716-1.316c.683-3.147 1.318-6.3 1.982-9.454a1.646 1.646 0 0 1 .306-.478c.064.018.126.037.188.057z"/>
                <path id="XMLID_141_" class="cls-1" d="M5.573 34.346c1.945-3.78 5.405-5.608 8.857-7.448z"/>
                <path id="XMLID_140_" class="cls-1" d="m67.222 121.07-7.158-4.87.143-.281c1.376.695 2.785 1.332 4.118 2.1a18.765 18.765 0 0 1 3.421 2.467z"/>
                <path id="XMLID_139_" class="cls-1" d="M56.721 121.119c.089.25.308.539.247.745-.58 1.959-1.208 3.9-1.822 5.853l-.358-.1 1.519-6.43c.139-.024.276-.046.414-.068z"/>
                <path id="XMLID_138_" class="cls-1" d="m86.886 89.758-9.064 3.707-.168-.422 9.056-3.572z"/>
                <path id="XMLID_137_" class="cls-1" d="m92.054 111.69.876-5.5.462.077c.444 1.962-.83 3.653-1.338 5.423z"/>
                <path id="XMLID_136_" class="cls-1" d="m70.441 110.906-1.951 6.355a10.879 10.879 0 0 1 1.951-6.355z"/>
                <path id="XMLID_135_" class="cls-1" d="M86.33 29.309h-5.309v-.208h5.35c-.015.069-.028.139-.041.208z"/>
                <path id="XMLID_134_" class="cls-1" d="M48.408 79.421a2.5 2.5 0 0 1 2.012-2.764l-2.012 2.764z"/>
                <path id="XMLID_133_" class="cls-1" d="M38.938 33.383c.579.921 1.126 1.7 1.572 2.529.343.64-.556 1.814-1.258 1.623a3.422 3.422 0 0 0-3.008.707c-4.306 2.933-8.975 4.641-14.289 4.031-.276-.032-.554-.063-.825-.121-1.79-.386-1.864-.517-1.364-2.306 1.7.153 3.393.4 5.089.424a15.675 15.675 0 0 0 3.389-.455c1.166-.243 2.31-.6 3.456-.935 3.092-.897 4.105-1.663 7.238-5.497z"/>
                <path id="XMLID_132_" class="cls-1" d="M41.878 39.038c0-1.345-.07-2.695.017-4.035a3.909 3.909 0 0 0-2.289-4.012 19.627 19.627 0 0 0-4.828-1.627c-3.481-.672-6.877.079-10.227 1.024-.143.04-.292.058-.438.085l-.1-.37a27.971 27.971 0 0 1 4.36-1.054 54.108 54.108 0 0 1 6.691-.064 8 8 0 0 1 7.861 6.165 3.7 3.7 0 0 1-1.047 3.888z"/>
                <path id="XMLID_131_" class="cls-1" d="m14.721 36.384-3.013 2.822-.132-.124 2.907-2.947z"/>
            </g>
        </g>
    </g>
</svg>
