<svg xmlns="http://www.w3.org/2000/svg" width="47.783" height="87.86" viewBox="0 0 47.783 87.86">
    <defs>
        <linearGradient id="fsouz4yjpa" x1=".5" x2=".5" y1=".003" y2=".997" gradientUnits="objectBoundingBox">
            <stop offset=".206" stop-color="#1c0a00"/>
            <stop offset=".553" stop-color="#2a190d"/>
            <stop offset="1" stop-color="#413224"/>
        </linearGradient>
    </defs>
    <path fill="url(#fsouz4yjpa)" d="M0 0v87.86l23.969-13.487L47.783 87.86V0z"/>
    <path fill="#ff7f18" d="M34.716 61.572c0-.154.077-.154.154-.154h2.62c.154 0 .154.077.154.154v13.1c0 .154-.077.154-.154.154h-2.62a.2.2 0 0 1-.231-.231l.077-13.025zm-.154-3.772a1.578 1.578 0 0 1 1.7-1.7 1.618 1.618 0 0 1 1.7 1.7 1.578 1.578 0 0 1-1.7 1.7 1.542 1.542 0 0 1-1.7-1.7zm-7.553 9.248c-.462-1.85-1.541-5.857-2-7.784-.385 1.927-1.233 5.241-1.927 7.784zm-4.547 2.7l-1.31 5.01c-.077.154-.077.154-.231.154h-2.467c-.154 0-.154-.077-.154-.231l4.7-16.5a4.416 4.416 0 0 0 .154-1.387c0-.154.077-.154.154-.154h3.468c.154 0 .154.077.154.154l5.241 17.88c.077.154 0 .231-.154.231h-2.773c-.154 0-.231-.077-.231-.154L27.78 69.9h-5.318z" transform="translate(-4.196 -12.864)"/>
</svg>
