<svg id="behance-logo" xmlns="http://www.w3.org/2000/svg" width="25.052" height="15.866">
    <defs>
        <style>
            .cls-1{fill:#5a5a5a}
        </style>
    </defs>
    <g id="Group_2596" data-name="Group 2596">
        <path id="Path_16974" data-name="Path 16974" class="cls-1" d="M10.111 24.657a2.7 2.7 0 0 0 2.37-2.957c0-2.78-1.94-4.137-4.4-4.137H0V33.1h8.084s4.935.156 4.935-4.586c.001.001.216-3.857-2.908-3.857zm-6.549-4.331h4.523s1.1 0 1.1 1.616-.648 1.851-1.385 1.851H3.562zM7.876 30.34H3.562v-4.153h4.522s1.638-.021 1.638 2.134c.001 1.797-1.197 2.001-1.846 2.019z" transform="translate(0 -17.564)"/>
        <path id="Rectangle_949" data-name="Rectangle 949" class="cls-1" transform="translate(16.26 .915)" d="M0 0h6.41v1.913H0z"/>
        <path id="Path_16975" data-name="Path 16975" class="cls-1" d="M58.088 32.682c-5.975 0-5.969 5.969-5.969 5.969a5.512 5.512 0 0 0 5.97 5.939s5.317.3 5.317-4.132H60.67s.091 1.671-2.491 1.671a2.527 2.527 0 0 1-2.734-2.7H63.5s.876-6.747-5.412-6.747zm2.43 4.67h-5.1a2.778 2.778 0 0 1 2.734-2.395 2.312 2.312 0 0 1 2.366 2.395z" transform="translate(-38.485 -28.729)"/>
    </g>
</svg>
