<svg xmlns="http://www.w3.org/2000/svg" width="20.85" height="31.969" viewBox="0 0 20.85 31.969">
    <path data-name="Path 17006" d="M-310.12 244.02a3.469 3.469 0 0 0-2.543-2.822 3.684 3.684 0 0 0-3.882.986q-3.6 3.59-7.173 7.2c-.764.767-1.534 1.528-2.314 2.3-.079-.073-.15-.134-.216-.2l-6.075-6.073c-1.157-1.155-2.28-2.345-3.485-3.448a3.764 3.764 0 0 0-5.509.544 3.793 3.793 0 0 0 .484 4.957l13.841 13.9a1.193 1.193 0 0 0 1.943-.017l9.244-9.282 4.6-4.614a3.849 3.849 0 0 0 1.085-3.431z" transform="rotate(-90 -275.532 -34.523)" style="fill:#fff"/>
</svg>
