<svg xmlns="http://www.w3.org/2000/svg" width="47.783" height="87.86" viewBox="0 0 47.783 87.86">
    <defs>
        <linearGradient id="linear-gradient" x1=".5" x2=".5" y1="13.14" y2="12.14" gradientUnits="objectBoundingBox">
            <stop offset="0" stop-color="#c4a45c"/>
            <stop offset=".75" stop-color="#c19f63"/>
        </linearGradient>
        <style>
            .cls-2{fill:#fff}
        </style>
    </defs>
    <g id="graphic-design" transform="translate(0)">
        <path id="Path_1450" fill="url(#linear-gradient)" d="M0 0v87.86l23.969-13.487L47.783 87.86V0z" transform="translate(0)"/>
        <path id="Path_1451" d="M29.347 75.052h-2.906a10.019 10.019 0 0 1-.324-1.811c-1.01 1.356-2.8 2.127-5.364 2.127-5.333 0-8.324-4.054-8.324-9.248 0-5.518 3.229-9.68 9.017-9.68 4.724 0 7.522 2.667 7.946 5.788h-3.968c-.378-1.225-1.333-2.7-4.031-2.7-3.784 0-4.855 3.175-4.855 6.4s1.225 6.3 4.879 6.3c3.383 0 4.023-2.374 4.023-4v-.185h-4.016v-3.287h7.923z" class="cls-2" transform="translate(-2.85 -12.942)"/>
        <path id="Path_1452" d="M38.84 66.327v-3.761h3.76c.054.316.108 1.68.108 2.428a4.491 4.491 0 0 1 4.432-2.744v3.661c-2.775-.085-4.432.663-4.432 4.455v6.027h-3.853z" class="cls-2" transform="translate(-8.906 -14.274)"/>
    </g>
</svg>
