<svg xmlns="http://www.w3.org/2000/svg" width="22.018" height="22.018" viewBox="0 0 22.018 22.018">
    <g data-name="Group 2598">
        <path data-name="Path 16977" d="M14.605 12.769a4.5 4.5 0 0 0-6.293 0L.978 20.1a3.436 3.436 0 0 0 4.859 4.859l6.64-6.64A2.211 2.211 0 1 0 9.351 15.2L3 21.547a.577.577 0 0 0 .817.816l6.352-6.352a1.056 1.056 0 0 1 1.492 1.489l-6.64 6.64a2.281 2.281 0 0 1-3.226-3.22l7.333-7.333a3.345 3.345 0 1 1 4.732 4.73L6.527 25.65a.577.577 0 1 0 .814.814l7.333-7.333a4.5 4.5 0 0 0-.069-6.362z" transform="rotate(135 11.164 15.67)" style="fill:#fff"/>
    </g>
</svg>
