<svg xmlns="http://www.w3.org/2000/svg" width="86.5" height="86.5" viewBox="0 0 86.5 86.5">
    <g data-name="2404383">
        <path data-name="Path 1445" d="M73.826 12.675a43.24 43.24 0 1 0 0 61.151 43.217 43.217 0 0 0 0-61.151zM43.25 79.387a36.137 36.137 0 1 1 36.137-36.136A36.178 36.178 0 0 1 43.25 79.387z" transform="translate(0 -.001)" style="fill:#fff"/>
        <path data-name="Path 1446" d="m224.692 173.412-16.236-12.628a3.554 3.554 0 0 0-5.732 2.8v25.256a3.556 3.556 0 0 0 5.732 2.8l16.236-12.628a3.553 3.553 0 0 0 0-5.6z" transform="translate(-168.437 -132.966)" style="fill:#fff"/>
    </g>
</svg>
