<svg xmlns="http://www.w3.org/2000/svg" width="155.099" height="102.295">
    <defs>
        <style>
            .cls-1{fill:#ff3f6c}
        </style>
    </defs>
    <g id="Svetlana_layer_4" transform="translate(-10.313 -6.888)">
        <g id="Dlggco_1_">
            <g id="XMLID_4_">
                <path id="XMLID_135_" class="cls-1" d="M78.479 44.006c-.793-.288-1.917-.7-3.044-1.1a2.738 2.738 0 0 0-.437-.08 1.941 1.941 0 0 0 .138.423c1.5 2.5 3.082 4.96 4.5 7.507 1.927 3.455 3.736 6.975 5.582 10.475a1.938 1.938 0 0 1 .094.626 2.5 2.5 0 0 1-.378-.436c-.9-1.694-1.829-3.375-2.672-5.1a58.46 58.46 0 0 0-5.852-9.754 10.659 10.659 0 0 0-1.308-1.235c.217.506.4 1.028.658 1.514 1.319 2.513 2.689 5 3.976 7.528 1.07 2.1 1.952 4.3 3.094 6.362 1.84 3.319 3.87 6.533 5.731 9.841 1.253 2.228 2.343 4.547 3.521 6.817q2.511 4.839 5.046 9.667c.13.248.29.481.4.736a1.454 1.454 0 0 1 .05.433c-.119-.085-.238-.172-.359-.255-.089-.061-.18-.117-.27-.176a2.453 2.453 0 0 1 0 .343c-.031.225-.078.448-.118.671a3.047 3.047 0 0 1-.721-.29 2.927 2.927 0 0 0-1.968-.755c-.541.038-.759-.332-.973-.738-1.712-3.255-3.481-6.481-5.133-9.766-1.58-3.14-3.037-6.343-4.56-9.512a18.514 18.514 0 0 0-.969-1.792 41.593 41.593 0 0 1-3.6-7.435c-1.106-2.94-2.912-5.5-4.348-8.264-1.307-2.51-2.386-5.14-3.545-7.726-.408-.911-.754-1.85-1.129-2.777-.186-.46-.125-.7.454-.564q1.578.358 3.167.669a3.019 3.019 0 0 0 .683-.019l-.217-.641-.2-.6a2.391 2.391 0 0 0 .509.124c.054 0 .159-.16.167-.253a4.7 4.7 0 0 0-.049-2.355c-1.419-3.434-2.652-6.952-4.211-10.319-2.64-5.7-4.813-11.586-6.979-17.475a7.953 7.953 0 0 1-.294-.913 2.008 2.008 0 0 1 .011-.524 1.831 1.831 0 0 1 .331.32c.977 1.6 2.01 3.177 2.9 4.828a49.5 49.5 0 0 0 5.96 8.387A40.774 40.774 0 0 1 78.6 30.748a37.531 37.531 0 0 0 3.913 6.584q4.476 6.453 8.961 12.9a3.731 3.731 0 0 1 .258.4 1.939 1.939 0 0 1 .107.331c-.139.033-.292.122-.415.09-.425-.108-.833-.3-1.262-.376-.283-.048-.747-.046-.849.113a1.22 1.22 0 0 0 .059.9 2.476 2.476 0 0 0 .489.674c2.3 2.765 4.671 5.47 6.87 8.31 1.66 2.145 3.172 4.415 4.613 6.715a48.9 48.9 0 0 0 5.338 7.07 60.709 60.709 0 0 1 7.75 10.041 1.712 1.712 0 0 1 .166 1.88 13.289 13.289 0 0 0-.585 1.444c-.22.557-.534.53-.871.118-.683-.835-1.317-1.713-2.032-2.518a221.259 221.259 0 0 1-16.69-21.931c-3.688-5.372-7.41-10.721-11.1-16.092a6.627 6.627 0 0 1-.52-1.241c.448.115.9.209 1.342.352.644.21 1.27.481 1.918.673a2.452 2.452 0 0 0 .77-.026 2.534 2.534 0 0 0-.209-.653c-.9-1.369-1.826-2.72-2.732-4.085-2.034-3.063-4.046-6.14-6.1-9.193-1.157-1.724-2.39-3.4-3.552-5.117-1.05-1.555-2.048-3.146-3.076-4.716a2.517 2.517 0 0 0-.364-.366 3.225 3.225 0 0 0 .113.44c2.146 5.166 3.946 10.478 6.513 15.467q1.041 2.022 2.043 4.064c.369.762.142 1.118-.987 1.006zM112.49 85.9a.5.5 0 0 0-.039-.111q-1.248-1.947-2.506-3.887c-.043-.066-.183-.069-.279-.1a.532.532 0 0 0 .032.212q1.25 1.947 2.511 3.886a.791.791 0 0 0 .174.149z"/>
                <path id="XMLID_134_" class="cls-1" d="M149.409 79.276c0 4.08-.012 8.159.008 12.239.005.956.138 1.912.16 2.869.005.23-.2.465-.3.7a5.116 5.116 0 0 1-.592-.534 1.219 1.219 0 0 1-.135-.454c-.077-.289-.169-.277-.488-.205-1.071.242-1.561.8-1.383 1.912.019.116-.132.26-.205.391-.128-.074-.3-.117-.376-.226a4.689 4.689 0 0 1-1.183-3.6c.554-3.587.9-7.21 1.234-10.827.261-2.862.412-5.737.535-8.609.2-4.786.344-9.575.516-14.362.022-.617.28-.806.855-.508 1.063.551 2.086 1.178 3.119 1.785.344.2.67.437 1 .665.431.3.618.157.731-.328.585-2.531 1.2-5.055 1.789-7.586.958-4.126 1.856-8.267 2.865-12.38.809-3.3 1.744-6.566 2.62-9.848.112-.418.2-.842.3-1.264a10.06 10.06 0 0 1 .334 1.3c.368 3.012.708 6.027 1.067 9.04.368 3.092.772 6.18 1.117 9.275.375 3.372.7 6.75 1.05 10.124.171 1.628.4 3.251.546 4.882q.366 4.054.654 8.116c.1 1.354.161 2.712.17 4.069.009 1.267-.4 1.475-1.551.892-1.356-.685-2.72-1.356-4.066-2.059-.394-.206-.6-.2-.589.3.054 2.4.026 4.8.189 7.188.241 3.543.652 7.075.906 10.618a5.225 5.225 0 0 1-.505 1.94c-.117.333-1.406.777-1.71.547a1.445 1.445 0 0 1-.514-.973c-.076-1.917-.069-3.838-.112-5.756-.079-3.556-.119-7.113-.279-10.665-.088-1.95-.4-3.89-.588-5.836a5.967 5.967 0 0 1 0-1.426c.166-1.138.4-1.23 1.384-.7.668.358 1.348.7 2.044 1 .631.27.806.138.692-.556a62.459 62.459 0 0 1-.641-10.4c0-1.076-.112-2.152-.18-3.227a1.459 1.459 0 0 0-.09-.308 2.064 2.064 0 0 0-.108.325q-.487 3.015-.966 6.032c-.169 1.062-.333 2.125-.505 3.187a.9.9 0 0 1-.094.208c-.046-.089-.131-.177-.131-.266a12.087 12.087 0 0 1 .038-1.8c.429-2.841.774-5.7 1.386-8.5.577-2.642.219-5.247.119-7.869-.056-1.474-.238-2.943-.366-4.413a3.238 3.238 0 0 0-.068-.348c-.084.109-.22.207-.246.328-.843 3.947-1.817 7.873-2.465 11.851-.55 3.381-.721 6.824-1.059 10.24-.008.08-.007.16-.018.239-.226 1.672-.417 1.766-1.762.878-1.067-.705-2.139-1.4-3.2-2.11-.415-.276-.726-.39-.764.3-.041.757-.164 1.512-.168 2.269-.03 4.074-.021 8.158-.021 12.234z"/>
                <path id="XMLID_131_" class="cls-1" d="M34.961 87.2c.449.051 1.2.153 1.946.207a1.992 1.992 0 0 0 .64-.18 2 2 0 0 0-.223-.605c-3.029-3.71-6.021-7.449-9.336-10.918-3.5-3.668-7-7.349-10.386-11.127-2.478-2.765-4.772-5.693-7.142-8.555a1.3 1.3 0 0 1-.147-.409c.176.043.4.035.522.138.868.706 1.669 1.5 2.581 2.142 1.633 1.146 3.325 2.208 5 3.3 3.148 2.044 6.291 4.094 9.455 6.114 1.245.794 2.56 1.478 3.805 2.272 2.528 1.611 5.068 3.207 7.534 4.909 3.485 2.406 6.88 4.945 10.368 7.347 2.136 1.471 4.375 2.791 6.563 4.185a4.806 4.806 0 0 1 .521.441 2.53 2.53 0 0 1-.657.22c-1.428.063-2.771.821-4.248.519-.122-.025-.326.163-.423.3-.034.048.126.339.225.356a11.874 11.874 0 0 0 1.863.217c1.116 0 2.231-.069 3.347-.1a1.014 1.014 0 0 1 .33.114c-.092.109-.167.284-.28.314-.5.135-1.011.234-1.52.332a4.367 4.367 0 0 0-.477.028 4.055 4.055 0 0 1-3.721-.525c-.1-.067-.285 0-.431 0a1.372 1.372 0 0 0 .263.368c1.147.8 2.267 1.647 3.464 2.367a84.417 84.417 0 0 1 9.115 6.615 2.263 2.263 0 0 1 .351.325c.068.085.15.277.123.3a.909.909 0 0 1-.381.181c-.239.055-.649.009-.7.129-.375.862-.837.61-1.414.228a142.941 142.941 0 0 1-12.262-8.609 9.77 9.77 0 0 1-.975-1.131.932.932 0 0 0-.328-.223 8.927 8.927 0 0 1-.991-.394 5.926 5.926 0 0 1-.779-.629c.265-.159.521-.335.8-.474.606-.307 1.228-.583 1.821-.913a.685.685 0 0 0-.115-.541c-1.441-1.072-2.9-2.116-4.362-3.165-.161-.116-.339-.21-.5-.332-.043-.034-.039-.129-.056-.2.072-.015.159-.064.212-.039a9.3 9.3 0 0 1 .956.5c1.251.787 2.493 1.589 3.741 2.382.168.106.351.268.525.266.289 0 .709-.032.827-.212a.868.868 0 0 0-.174-.817 10.045 10.045 0 0 0-1.542-1.127c-3.019-1.881-6.118-3.642-9.051-5.646-2.866-1.958-5.572-4.15-8.335-6.256a27.22 27.22 0 0 0-6.407-3.718 1.2 1.2 0 0 0-.331-.135c-.425-.022-.851-.02-1.277-.027a5.964 5.964 0 0 0 .575.975c1.815 2.073 3.527 4.256 5.512 6.152s3.729 3.932 5.506 5.987c1.484 1.716 3.237 3.2 4.863 4.792 1.085 1.062 2.188 2.108 3.224 3.217.639.683.537 1.042-.37 1.213a21.213 21.213 0 0 1-2.712.189c-.266.015-.533.017-.8.025a2.677 2.677 0 0 0 .421.777 189.638 189.638 0 0 0 4.508 3.948q5.5 4.629 11.043 9.215a2.754 2.754 0 0 1 1.195 2.334 15.392 15.392 0 0 0 .315 2.25 3.858 3.858 0 0 1-.066.8 2.389 2.389 0 0 1-.712-.307 48.989 48.989 0 0 1-3.741-3.542A102.283 102.283 0 0 0 40.565 95.09c-2.224-1.876-4.29-3.938-6.439-5.9-.5-.458-1.059-.85-1.566-1.3-.3-.269-.207-.531.176-.573.636-.071 1.277-.073 2.225-.117zm4.073-1.437c-.143.163-.26.235-.26.307 0 .381-.116.851.47.92.126.015.266-.1.4-.152z"/>
                <path id="XMLID_130_" class="cls-1" d="M111.493 88.973c-.216.1-.433.191-.647.292a1.374 1.374 0 0 1-1.693-.527c-.372-.465-.632-1.017-.98-1.5-1.44-2.015-2.964-3.974-4.326-6.04-2.176-3.3-4.239-6.68-6.365-10.016-1.868-2.931-3.762-5.846-5.627-8.778a5.99 5.99 0 0 1-.421-1.048 6.9 6.9 0 0 1 .777.821c3.2 4.688 6.3 9.438 9.593 14.059 2.2 3.088 4.656 5.991 6.988 8.985.712.914 1.4 1.849 2.083 2.782a7.66 7.66 0 0 1 .416.715z"/>
                <path id="XMLID_129_" class="cls-1" d="M107.517 89.739a1.835 1.835 0 0 1-1.7-1.339 22.09 22.09 0 0 0-1.337-3.069c-1.371-2.34-2.881-4.6-4.265-6.932-1.3-2.2-2.524-4.448-3.765-6.684a3.253 3.253 0 0 1-.2-.752 4.286 4.286 0 0 1 .543.579c1.083 1.68 2.117 3.392 3.232 5.05 2.5 3.716 5.035 7.406 7.555 11.107a5.655 5.655 0 0 1 .518.806c.121.266.31.689.2.831-.198.242-.598.319-.781.403z"/>
                <path id="XMLID_128_" class="cls-1" d="m161.358 78.02.571-1.177a3.9 3.9 0 0 1 .622 1.2c.374 3.245.676 6.5 1.024 9.746.178 1.664.417 3.321.6 4.983a3.106 3.106 0 0 1-.028 1.407c-.128.326-.607.513-.93.762a2.808 2.808 0 0 1-.452-.874 104.784 104.784 0 0 1-.46-5c-.135-2.109-.174-4.225-.316-6.333-.1-1.549-.306-3.092-.464-4.638z"/>
                <path id="XMLID_127_" class="cls-1" d="M80.615 66.889a2.009 2.009 0 0 1 .258.325c.134.29.251.587.37.884a115.222 115.222 0 0 0 6.817 14.391c.716 1.246 1.534 2.433 2.27 3.668.32.536.736 1.129-.055 1.661-.084.057-.113.206-.153.317-.1.286-.2.575-.294.863a4.152 4.152 0 0 1-.679-.888c-.656-1.629-1.213-3.3-1.9-4.915-1.236-2.9-2.563-5.76-3.812-8.654-.948-2.2-1.836-4.424-2.744-6.64a3.427 3.427 0 0 1-.187-.691c-.017-.083.057-.181.109-.321z"/>
                <path id="XMLID_126_" class="cls-1" d="M95.525 50.85c-.09.15-.162.384-.251.39a.62.62 0 0 1-.485-.188c-.6-.85-1.177-1.714-1.742-2.587q-1.272-1.963-2.511-3.947c-.069-.111-.037-.285-.052-.429a1.259 1.259 0 0 1 .387.21 17.975 17.975 0 0 1 2.484 3.058 11.632 11.632 0 0 0 1.888 2.828 2.121 2.121 0 0 1 .282.665z"/>
                <path id="XMLID_125_" class="cls-1" d="M74.225 53.168a2.483 2.483 0 0 1 .279.358c.941 1.805 1.884 3.609 2.805 5.424.307.6.562 1.235.825 1.861a1.792 1.792 0 0 1 .065.446c-.106-.083-.255-.143-.31-.252q-1.854-3.623-3.685-7.259a2.212 2.212 0 0 1-.121-.521z"/>
                <path id="XMLID_124_" class="cls-1" d="m65.975 97.589-.334.524a1.155 1.155 0 0 0-.115-.308 5.24 5.24 0 0 0-.855-1.077c-1.481-1.15-3-2.249-4.5-3.376a2.057 2.057 0 0 1-.324-.408 1.294 1.294 0 0 1 .433.092c1.614 1.031 3.252 2.031 4.81 3.142.425.306.61.952.885 1.411z"/>
                <path id="XMLID_123_" class="cls-1" d="M66.194 20.147c-.057.064-.119.155-.135.148a.393.393 0 0 1-.177-.146 9.234 9.234 0 0 1-.553-1.062c-.973-2.494-1.93-4.993-2.889-7.492a2.9 2.9 0 0 1-.169-.574c-.013-.083.071-.182.111-.274.056.053.136.1.164.16.113.255.21.518.313.778l3.113 7.919c.073.186.151.369.222.543z"/>
                <path id="XMLID_122_" class="cls-1" d="M151.013 72.884v-4.9a2.193 2.193 0 0 1 .1-.451 1.68 1.68 0 0 1 .156.483q0 5.021-.02 10.042a1.683 1.683 0 0 1-.116.419 2.2 2.2 0 0 1-.1-.45c-.007-1.713 0-3.427 0-5.141z"/>
                <path id="XMLID_121_" class="cls-1" d="M92.483 73.069a4.92 4.92 0 0 1 .316.477q1.349 2.666 2.685 5.338c.232.463.464.926.677 1.4.034.074-.034.195-.054.294a.794.794 0 0 1-.19-.132 1.754 1.754 0 0 1-.185-.306l-3.265-6.52a2.789 2.789 0 0 1-.141-.487z"/>
                <path id="XMLID_120_" class="cls-1" d="M45.883 88.5a2.3 2.3 0 0 1 .386.238q1.634 1.5 3.252 3.015a1.434 1.434 0 0 1 .21.389c-.146-.013-.339.029-.43-.048q-1.771-1.514-3.512-3.065c-.1-.084-.1-.273-.129-.417-.004-.026.125-.07.223-.112z"/>
                <path id="XMLID_119_" class="cls-1" d="M58.442 108.127a1.276 1.276 0 0 1-.271.49c-.072.056-.371-.088-.495-.213a1.471 1.471 0 0 1-.445-.671c-.089-.493-.591-.981-.085-1.509.394.409.806.8 1.169 1.236.109.131.078.378.127.667z"/>
                <path id="XMLID_118_" class="cls-1" d="M52.627 108.852a.694.694 0 0 1-.033.1c-.1-.022-.24-.018-.308-.083q-.948-.906-1.875-1.834c-.31-.308-.612-.625-.9-.952-.062-.07-.053-.2-.076-.307.069 0 .166-.018.2.019q1.478 1.472 2.943 2.955a.4.4 0 0 1 .049.102z"/>
                <path id="XMLID_117_" class="cls-1" d="M47.918 103.924c-.033.054-.074.157-.1.153a.389.389 0 0 1-.2-.1c-.7-.693-1.394-1.388-2.08-2.093-.057-.058-.036-.192-.051-.291.072.02.166.017.212.062q1.089 1.079 2.167 2.168a.429.429 0 0 1 .052.101z"/>
                <path id="XMLID_116_" class="cls-1" d="M25.855 75.99c-.117-.032-.246-.027-.3-.089a92.296 92.296 0 0 1-1.545-1.822c-.035-.043-.008-.137-.01-.208.07.01.17-.007.2.033.548.63 1.089 1.267 1.628 1.9.027.031.016.083.027.186z"/>
                <path id="XMLID_115_" class="cls-1" d="M70.576 29.848c-.026.1-.043.176-.061.248-.086-.058-.215-.1-.251-.177q-.515-1.146-1-2.308c-.032-.077.046-.2.074-.3.058.052.142.092.172.157.367.799.721 1.602 1.066 2.38z"/>
                <path id="XMLID_114_" class="cls-1" d="M91.191 89.771a5.534 5.534 0 0 1 .044-.675.994.994 0 0 1 .152-.269 2.145 2.145 0 0 1 .214.245.761.761 0 0 1 .145.316 7.671 7.671 0 0 1 .035.982c0 .043-.279.119-.283.112-.137-.292-.258-.592-.307-.711z"/>
                <path id="XMLID_113_" class="cls-1" d="M42.045 90.863c.391 0 .549-.011.705 0a.612.612 0 0 1 .2.1 1.033 1.033 0 0 1-.18.264.541.541 0 0 1-.323.129 9.61 9.61 0 0 1-1-.129c-.028 0-.053-.195-.05-.2l.648-.164z"/>
                <path id="XMLID_112_" class="cls-1" d="M59.611 99.335c-.109.017-.222.073-.278.037-.466-.3-.923-.605-1.375-.921-.038-.026-.02-.132-.027-.2.071 0 .162-.033.211 0 .464.3.921.615 1.378.928.028.021.039.065.091.156z"/>
                <path id="XMLID_111_" class="cls-1" d="M58.283 91.869c-.2.028-.3.072-.371.044a1.475 1.475 0 0 1-.4-.236c-.263-.224-.511-.465-.765-.7.34.145.689.272 1.017.441a3.236 3.236 0 0 1 .519.451z"/>
                <path id="XMLID_110_" class="cls-1" d="M68.184 40.766a.78.78 0 0 1 .156.171c.184.4.363.794.531 1.2a.238.238 0 0 1-.053.207.2.2 0 0 1-.187-.023c-.206-.47-.4-.944-.586-1.422-.01-.024.085-.085.139-.133z"/>
            </g>
        </g>
    </g>
</svg>
