<svg xmlns="http://www.w3.org/2000/svg" width="160.343" height="105.266">
    <defs>
        <style>
            .cls-1{fill:#ff3f6c}
        </style>
    </defs>
    <g id="Svetlana_layer_2" transform="translate(-6.521 -5.474)">
        <g id="lMLHvn_1_">
            <g id="XMLID_2_">
                <path id="XMLID_86_" class="cls-1" d="M87.316 71.563c.641 1.4 1.286 2.792 1.923 4.191.746 1.637 1.493 3.273 2.22 4.918a3.318 3.318 0 0 1 .14.776c-.193-.17-.453-.3-.569-.515-1.6-2.9-3.331-5.749-4.726-8.75-2.528-5.435-4.779-11-7.294-16.438-1.1-2.385-2.7-4.538-3.846-6.908-1.717-3.558-3.232-7.213-4.823-10.832a2 2 0 0 1-.07-.566 3.816 3.816 0 0 1 .662.052c1.472.366 2.941.745 4.411 1.123.886.228.739-.313.573-.8-.664-1.959-1.255-3.949-2.042-5.858C70.4 23.519 67.442 14.9 64.608 6.233a2.66 2.66 0 0 1-.02-.759 2.614 2.614 0 0 1 .584.534c1.333 2.323 2.687 4.635 3.949 7a33.441 33.441 0 0 0 4.567 6.436 25.628 25.628 0 0 1 2.24 2.962c2.919 4.441 5.872 8.865 8.672 13.384 2.695 4.348 5.216 8.8 7.811 13.213a5.152 5.152 0 0 1 .325.642c.2.482.04.694-.483.586-.587-.121-1.171-.264-1.761-.367a2.817 2.817 0 0 0-.639.03 2.641 2.641 0 0 0 .257.519c1.348 1.685 2.617 3.445 4.081 5.023a59.292 59.292 0 0 1 7.515 10.073 55.953 55.953 0 0 0 7.294 9.34 47.479 47.479 0 0 1 6.071 8.31 1.908 1.908 0 0 1 .081 1.315c-.282 1.077-.667 2.128-1.023 3.185a5.091 5.091 0 0 1-.3.613 2.594 2.594 0 0 1-.614-.466c-1.4-1.947-2.71-3.957-4.17-5.854-1.533-1.992-3.355-3.773-4.78-5.833-4.385-6.342-8.611-12.795-12.965-19.158-1.692-2.472-3.471-4.9-5.386-7.2a27.788 27.788 0 0 1-2.752-4.752 1.485 1.485 0 0 1-.057-.547 1.593 1.593 0 0 1 .558-.009c.863.314 1.706.685 2.576.976a3.8 3.8 0 0 0 1.023.053 4.275 4.275 0 0 0-.351-.969c-1.023-1.527-2.1-3.019-3.119-4.548-1.6-2.394-3.144-4.822-4.752-7.208-1.585-2.352-3.227-4.665-4.829-7.006-.745-1.088-1.451-2.2-2.184-3.3a6.624 6.624 0 0 0-.485-.578 5.412 5.412 0 0 0 .2.785q3.426 8.118 6.877 16.225c.344.8.871 1.528 1.248 2.32a1.365 1.365 0 0 1 .068.977c-.05.13-.588.181-.853.1-1.107-.335-2.195-.733-3.289-1.111a13.491 13.491 0 0 0-1.7-.572 3.542 3.542 0 0 0-1.113.139 3.931 3.931 0 0 0 .277.983c.669 1.132 1.439 2.208 2.069 3.36 1.112 2.032 2.03 4.179 3.242 6.146 2.492 4.041 4.115 8.479 6.126 12.74 1.359 2.879 3.124 5.566 4.7 8.342 1.461 2.571 2.907 5.151 4.373 7.72.673 1.179 1.4 2.329 2.053 3.519.215.391.9.788.285 1.314-.473.407-1.14.124-1.55-.605q-1.851-3.292-3.675-6.6c-1.135-2.058-2.254-4.123-3.381-6.186zM112.8 84.374l.233-.15c-.838-1.291-1.673-2.584-2.517-3.871a1.193 1.193 0 0 0-.268-.221c-.008.1-.058.216-.017.28.854 1.324 1.714 2.642 2.569 3.962z"/>
                <path id="XMLID_83_" class="cls-1" d="M34.4 85.48c.991.081 1.981.176 2.973.231a1.936 1.936 0 0 0 .631-.2 2.255 2.255 0 0 0-.247-.608C36.5 83.36 35.255 81.8 33.938 80.3c-3.719-4.229-7.3-8.6-11.256-12.593-4.179-4.213-7.9-8.788-11.707-13.31a3.031 3.031 0 0 1-.31-.364.817.817 0 0 1-.047-.308c.108.026.242.02.32.082.751.6 1.477 1.223 2.24 1.8 1.145.868 2.284 1.748 3.479 2.544 1.86 1.239 3.7 2.521 5.663 3.59 4.1 2.239 7.688 5.319 11.973 7.263a29.384 29.384 0 0 1 2.724 1.74c2.195 1.308 4.329 2.757 6.635 3.834a106.062 106.062 0 0 1 13.6 8.073c1 .663 2.034 1.271 3.033 1.934a3.521 3.521 0 0 1 .594.659 3.863 3.863 0 0 1-.691.4c-1.807.61-3.523 1.557-5.518 1.484-.169-.006-.343.158-.515.244a3.371 3.371 0 0 0 .473.425c3.644 2.22 7.3 4.423 10.932 6.662a2.111 2.111 0 0 1 .711.924c.362.806-.077 1.527-.938 1.441a5.449 5.449 0 0 1-2.143-.607q-6.39-3.686-12.697-7.501a1.679 1.679 0 0 1-.781-1.055c-.025-.237.533-.687.9-.787 1.493-.41 3.017-.7 4.519-1.081a7.607 7.607 0 0 0 1.229-.546c-.286-.433-.472-1.029-.873-1.272-2.529-1.533-5.059-3.075-7.675-4.449A96.907 96.907 0 0 1 33.2 70.163c-.6-.466-1.245-.869-1.879-1.287-.078-.052-.214-.016-.324-.021.024.106.014.243.078.312.434.47.892.917 1.319 1.392.083.092.063.276.091.418-.143-.017-.321.014-.422-.06-.385-.284-.739-.612-1.117-.906q-4.541-3.529-9.087-7.049a2.3 2.3 0 0 0-.518-.3 4.157 4.157 0 0 0-.547-.148 1.846 1.846 0 0 0 .219.494c3.132 3.62 5.833 7.606 9.5 10.772a60.6 60.6 0 0 1 4.257 4.7c1.53 1.63 3.119 3.206 4.7 4.784 1.131 1.127 2.328 2.19 3.437 3.337.9.928.827 1.157-.4 1.416-.854.18-1.741.193-2.608.323a7.893 7.893 0 0 0-1.115.331 8.185 8.185 0 0 0 .829.776c2.145 1.533 4.391 2.94 6.433 4.6 2.726 2.215 5.207 4.736 7.967 6.9a6.181 6.181 0 0 1 2.538 4.93 24.789 24.789 0 0 0 .971 4.181 3.178 3.178 0 0 1 .014.677 2.355 2.355 0 0 1-.619-.238 59.048 59.048 0 0 1-7.415-6.606 100.435 100.435 0 0 0-8.18-7.732 85.312 85.312 0 0 1-9.537-9.415c-.165-.192-.374-.574-.3-.7a1.1 1.1 0 0 1 .745-.432c.715-.058 1.437-.02 2.156-.02q.014-.05.014-.112zm5.123-1.358c-.127.138-.255.228-.241.27.1.309.239.607.364.909l.453-.222a68.23 68.23 0 0 0-.571-.957z"/>
                <path id="XMLID_82_" class="cls-1" d="M160.189 54.91q-.738 4.606-1.48 9.211a1.241 1.241 0 0 1-.171.336 1.179 1.179 0 0 1-.076-.34c.159-1.829.253-3.667.513-5.482.272-1.9.671-3.778 1.079-5.652.487-2.237.01-4.459-.03-6.686-.026-1.473-.239-2.944-.373-4.415-.014-.156-.057-.309-.086-.464-.085.118-.219.225-.249.356a118.461 118.461 0 0 0-3.006 15.893c-.149 1.669-.317 3.34-.572 5-.188 1.218-.429 1.286-1.455.546-1.232-.889-2.426-1.83-3.657-2.72a4.761 4.761 0 0 0-.952-.415 4.039 4.039 0 0 0-.3 1.088c.056 4.516.269 9.033.186 13.546-.1 5.432-.44 10.859-.693 16.287-.036.778-.124 1.57-1.245 1.525-.116 0-.311.312-.356.506-.08.347-.056.717-.113 1.071a.53.53 0 0 1-.228.374.432.432 0 0 1-.382-.17c-.587-1.05-1.35-1.912-1.2-3.37q1.065-10.066 1.8-20.166c.325-4.5.388-9.019.561-13.53.042-1.086.2-1.228 1.182-.712 1.1.574 2.136 1.252 3.18 1.918 1.127.719 1.12.736 1.408-.5 1.6-6.851 3.16-13.709 4.8-20.549.708-2.953 1.586-5.865 2.353-8.8.211-.809.285-1.653.458-2.473a3.021 3.021 0 0 1 .338-.684 2.367 2.367 0 0 1 .328.723c.127 1.512.253 3.027.307 4.543.194 5.391.416 10.781.521 16.174.142 7.354.194 14.711.267 22.066.019 1.911-.022 3.822-.057 5.732a1.927 1.927 0 0 1-.233.6 3.808 3.808 0 0 1-.489-.308c-.392-.339-.744-.732-1.159-1.038-.49-.361-.926-.34-.993.395a19.551 19.551 0 0 0-.153 2.61c.1 2.273.287 4.541.409 6.813.138 2.592.262 5.186.344 7.78a2.43 2.43 0 0 1-.32 1.582 2.317 2.317 0 0 1-1.6.512c-.208 0-.568-.718-.578-1.116-.074-3.2.016-6.4-.132-9.6-.2-4.226-.562-8.444-.856-12.666a5.23 5.23 0 0 1-.044-.6c.031-.7.31-.873.906-.508a13.825 13.825 0 0 1 1.24.943c.157.123.287.31.464.374.465.17.948.29 1.424.429a4.275 4.275 0 0 0 .22-1.372c-.878-4.82-.529-9.718-1.05-14.597z"/>
                <path id="XMLID_81_" class="cls-1" d="M81.211 65.309c.125.242.265.478.371.728.792 1.874 1.544 3.766 2.373 5.624a84.118 84.118 0 0 0 6.017 11.427 38.415 38.415 0 0 1 2.209 4.5c.2.428.457.936-.129 1.261a.949.949 0 0 1-1.385-.532 33.985 33.985 0 0 1-2-4.205 113.513 113.513 0 0 0-5.153-12.1c-.95-1.971-1.646-4.065-2.442-6.109a1.708 1.708 0 0 1-.009-.577z"/>
                <path id="XMLID_80_" class="cls-1" d="M107.722 88.249c-.454-.434-1.12-.771-1.28-1.271-1.121-3.488-3.623-6.185-5.265-9.371-1.335-2.59-2.856-5.085-4.281-7.629a2.346 2.346 0 0 1-.148-.646 3.065 3.065 0 0 1 .483.468c2.112 3.2 4.2 6.421 6.325 9.614 1.639 2.462 3.329 4.889 4.978 7.344.163.243.356.669.253.842-.153.255-.558.36-1.065.649z"/>
                <path id="XMLID_79_" class="cls-1" d="M166.173 67.092a19.7 19.7 0 0 0 .611 6.879 1.049 1.049 0 0 1 0 .8 1.5 1.5 0 0 1-.918.571c-.213.015-.5-.386-.674-.651-.1-.141-.039-.388-.043-.587l-.282-14.349c-.034-1.593-.12-3.185-.16-4.779 0-.162.146-.328.224-.492.085.155.231.3.248.467q.632 6.055 1.238 12.115z"/>
                <path id="XMLID_78_" class="cls-1" d="M90.934 42.261c.28.246.437.327.507.455.818 1.492 2.516 2.359 2.916 4.169.083.375.558.657.833 1a4.2 4.2 0 0 1 .681.965c.082.2-.087.5-.142.759-.222-.1-.541-.142-.652-.315-1.363-2.116-2.7-4.25-4.03-6.386a2.359 2.359 0 0 1-.113-.647z"/>
                <path id="XMLID_77_" class="cls-1" d="M48.832 85.2a7.211 7.211 0 0 1-1.389-.672c-1.407-1.1-2.772-2.256-4.145-3.4-.1-.08-.125-.243-.185-.367a1.639 1.639 0 0 1 .417.15c.649.459 1.264.97 1.933 1.395 1.171.743 2.375 1.436 3.563 2.151.193.116.379.242.569.363-.232.112-.466.228-.763.38z"/>
                <path id="XMLID_76_" class="cls-1" d="m78.7 59.363-.079.205a1.106 1.106 0 0 1-.186-.135.87.87 0 0 1-.128-.2c-1.191-2.335-2.386-4.667-3.561-7.01a1.843 1.843 0 0 1-.061-.648 2.036 2.036 0 0 1 .384.418q1.79 3.567 3.556 7.145a1.932 1.932 0 0 1 .075.225z"/>
                <path id="XMLID_75_" class="cls-1" d="m58.915 106.381-.256.559c-.261-.144-.678-.23-.756-.442a15.069 15.069 0 0 1-.55-2.171c-.008-.041.35-.255.46-.208.916.393 1.003 1.241 1.102 2.262z"/>
                <path id="XMLID_74_" class="cls-1" d="M85.781 59.76q1.562 3.132 3.118 6.268c.041.083-.013.213-.022.322-.1-.054-.228-.085-.29-.167a3.752 3.752 0 0 1-.377-.61q-1.383-2.823-2.755-5.652z"/>
                <path id="XMLID_73_" class="cls-1" d="M58.156 96.067a1.43 1.43 0 0 1 .219.094c1.344.86 2.69 1.72 4.026 2.592.107.07.154.231.228.35-.11 0-.245.035-.326-.015q-2.09-1.271-4.161-2.57c-.107-.067-.134-.259-.2-.393z"/>
                <path id="XMLID_72_" class="cls-1" d="M8.808 51.764c-.159 0-.313.049-.388-.008-.6-.445-1.183-.906-1.762-1.375-.076-.062-.093-.2-.137-.3.106-.025.255-.109.311-.067a71.23 71.23 0 0 1 1.852 1.429c.052.044.057.143.124.321z"/>
                <path id="XMLID_71_" class="cls-1" d="M42.312 89.185c.46 0 .659-.01.855 0 .069 0 .134.072.2.111-.062.091-.117.255-.186.262a25.3 25.3 0 0 1-1.762.1c-.062 0-.14-.14-.184-.228-.009-.018.1-.131.159-.14.391-.049.785-.09.918-.105z"/>
                <path id="XMLID_70_" class="cls-1" d="m35.511 73.681 1.937 1.555c-.064.073-.18.212-.185.208q-.937-.723-1.854-1.474c-.02-.017.05-.145.102-.289z"/>
                <path id="XMLID_69_" class="cls-1" d="m26.308 74.052-.108.231a1.2 1.2 0 0 1-.3-.183c-.523-.6-1.041-1.2-1.548-1.81-.059-.071-.046-.2-.066-.3.07.014.168 0 .207.046.617.671 1.222 1.353 1.815 2.016z"/>
                <path id="XMLID_68_" class="cls-1" d="m69.546 40.792-.085.324c-.066-.027-.151-.037-.194-.085a.961.961 0 0 1-.184-.3 51.503 51.503 0 0 1-.535-1.534 1.109 1.109 0 0 1 .17-.088z"/>
                <path id="XMLID_67_" class="cls-1" d="m58.964 108.492-.255.477c-.159-.331-.326-.659-.465-1-.019-.046.108-.151.168-.229z"/>
                <path id="XMLID_66_" class="cls-1" d="m154.96 66.424-.251.406c-.205-.215-.418-.424-.606-.654-.026-.032.077-.169.121-.258z"/>
            </g>
        </g>
    </g>
</svg>
