<svg xmlns="http://www.w3.org/2000/svg" width="120.74" height="128.946">
    <defs>
        <style>
            .cls-1{fill:#ff3f6c}
        </style>
    </defs>
    <g id="Anna_layer_2" transform="translate(-4.761 -7.417)">
        <g id="HlEosK_1_">
            <g id="XMLID_101_">
                <path id="XMLID_232_" class="cls-1" d="M73.435 71.354c.658-1.319 1.167-2.534 1.841-3.649 1.635-2.705 4.377-3.034 6.454-.637 1.721 1.985 3.351 4.126 3.013 7.047a1.75 1.75 0 0 0 .027.478c.35 2.13.062 2.715-1.935 3.763 0-.3-.008-.547 0-.8.069-1.8-.537-2.384-2.334-2.3a5.233 5.233 0 0 0-4.488 2.727c-.659 1.09-1.4 2.137-2.157 3.16a4.253 4.253 0 0 1-1.067.717l.2.489-7.04 2.251-.233-.262a3.192 3.192 0 0 1 .724-.676c1.3-.605 2.657-1.108 3.943-1.748 1.121-.557 1.2-1.18.474-2.107-2.257.669-4.469 1.427-6.735 1.946a5.088 5.088 0 0 1-2.8-.277c-1.6-.618-2.489.472-3.386 1.269a33.175 33.175 0 0 0-2.976 3.446 1.337 1.337 0 0 1-1.152-1.456 41.216 41.216 0 0 1 .286-6.327 5.994 5.994 0 0 1 4.285-4.912c-.766-2.627-1.4-5.339-2.345-7.934a84.85 84.85 0 0 1-4.1-19.254 64.348 64.348 0 0 1-.237-8.267c.028-2.743 1.885-4.014 4.433-2.978a6.506 6.506 0 0 1 2.691 2.081 43.657 43.657 0 0 1 3.568 5.8 150.334 150.334 0 0 1 10.836 27.821c.042.149.103.29.21.589zM56.826 53.2c0-.751.016-1.5 0-2.254-.08-3.135-.4-6.285.6-9.354a.727.727 0 0 0-.087-.56c-.533-.77-1.1-1.518-1.653-2.274l-.306.126A48.276 48.276 0 0 0 56.826 53.2zm7.493 26.574.611-.23-2.063-4.819-.226.084zm4.524-9.542-.3.079 1.479 5.6.337-.089q-.759-2.792-1.516-5.588zm12.381 1.307c-1.2-.887-1.887-.691-2.852.708zm-3.969-1.2 2.5-1.049c-1.217-.666-1.814.016-2.5 1.052z"/>
                <path id="XMLID_229_" class="cls-1" d="M82.791 40.755a27.457 27.457 0 0 1-9.924-1.782c-2.473-.854-4.126-2.871-5.815-4.832-2.544-2.954-2.468-6.051-.955-9.329.618-1.338 1.392-2.6 2.074-3.913a11.958 11.958 0 0 1 5.693-5.3c5.049-2.4 10.071-4.883 15.256-6.954a20.962 20.962 0 0 1 7.38-1.216c5.142-.062 10.294.119 15.429.424a20.838 20.838 0 0 1 8.662 2.527c4.9 2.634 5.882 6.4 4.052 11.414-1.378 3.779-4.295 6.428-7.446 8.725a47.86 47.86 0 0 1-23.424 9.213c-3.806.407-7.621.713-10.982 1.023zm-1.8-4.363.043.328c4.228-.524 8.451-1.1 12.686-1.561 6.415-.7 11.993-3.637 17.592-6.51a17.622 17.622 0 0 0 2.48-1.871 6.988 6.988 0 0 1 1.146-.856c2.386-1.134 3.494-3.144 4.029-5.612.614-2.828-1.593-7.121-4.246-7.633a97.025 97.025 0 0 0-10.631-1.5c-4.427-.352-8.818.32-13.224.832a33.93 33.93 0 0 0-14.281 5.48 14.048 14.048 0 0 0-5.328 6.569 13.063 13.063 0 0 0-1.145 6.361 3.308 3.308 0 0 0 1.716 2.949 5.825 5.825 0 0 1 2.072 1.398c1.315 1.9 3.225 1.561 5.055 1.623.678.022 1.358.003 2.037.003z"/>
                <path id="XMLID_228_" class="cls-1" d="M51.415 132.941a22.631 22.631 0 0 1-.743 2.579c-.146.346-.593.566-.9.843-.121-.4-.434-.864-.333-1.2 1.18-3.983 2.5-7.927 3.623-11.925.985-3.5 1.771-7.053 2.648-10.582.056-.224.129-.444.258-.883l13.207 7.13c.978-.5.906-1.8 1.233-2.984.978-3.54 2.08-7.047 3.165-10.557.326-1.055.756-1.094 1.633-.382 3.552 2.881 7.127 5.735 10.932 8.791.528-2.133 1.017-4.068 1.483-6.008.7-2.9 1.345-5.817 2.084-8.708.322-1.258.578-1.3 1.745-.653l-.987-1.512.319-.289a53.691 53.691 0 0 1 5.167 2.919c3.314 2.364 6.523 4.876 9.733 7.382a28.449 28.449 0 0 1 3.733 3.311c1.935 2.157 1.541 3.785-1.119 5.137l.367.671c-3.637-2.579-7.127-5.113-10.688-7.543a21.709 21.709 0 0 0-3.735-1.875 1.172 1.172 0 0 0-1.066.391 371.294 371.294 0 0 0-2.775 9.666c-.337 1.231-.526 2.5-.865 3.733a7.978 7.978 0 0 1-.849 1.53l.419 1.266-.33.18c-.432-.489-.875-.969-1.295-1.468a32.07 32.07 0 0 0-9.206-7.759c-2.277-1.235-2.239-1.291-2.94 1.3-1.162 4.3-2.333 8.6-3.739 12.95l-.222-.865a12.257 12.257 0 0 1-1.914-.8q-4.107-2.579-8.154-5.249c-.689-.453-1.295-1.033-1.942-1.556-1.246 3.551-2.513 7.089-3.714 10.648a15.7 15.7 0 0 0-.376 2.346c-.18 1.042-.544 1.986-1.784 2.075-1.198.086-1.619-.821-2.073-2.05z"/>
                <path id="XMLID_224_" class="cls-1" d="M31.889 23.009c2.152.279 5.338.53 8.447 1.161a13.209 13.209 0 0 1 4.4 2.053 7.742 7.742 0 0 1 3.84 6.543 42.734 42.734 0 0 1-.2 6.212A11.951 11.951 0 0 1 43.379 47a24.355 24.355 0 0 1-10.222 4.737 6.208 6.208 0 0 0-1.044.252c-5.8 2.207-11.692 1.614-17.6.586-.707-.123-1.413-.257-2.122-.37q-7-1.117-7.585-8.194A17.411 17.411 0 0 1 6.86 34.95c3.408-7.211 9.755-9.84 16.827-11.383 2.313-.504 4.766-.348 8.202-.558zm1.211 2.917c-1.43.114-2.881.113-4.287.364-5.309.945-10.439 2.393-14.816 5.758a11.26 11.26 0 0 0-4.683 7.537c-.228 1.741-.424 3.737 1.438 4.866a26.676 26.676 0 0 0 5.817 3.031A29.389 29.389 0 0 0 38.7 45.941c4.613-2.248 6.23-6.481 6.878-10.966a6.653 6.653 0 0 0-3.594-6.6c-2.74-1.575-5.596-2.775-8.884-2.449zM8.846 42.165l-.367-.123c-.195.31-.607.67-.549.923a18.433 18.433 0 0 0 1.223 4.158c.376.749 1.412 1.167 2.151 1.734l.293-.307c-2.268-1.542-2.935-3.778-2.751-6.385z"/>
                <path id="XMLID_223_" class="cls-1" d="M64.038 25.8c1.217-5.1 3.9-9.027 8.835-11.161-4.756 2.285-6.446 6.993-8.835 11.161z"/>
                <path id="XMLID_222_" class="cls-1" d="m70.391 88.566-12.8 3.967-.176-.578 12.85-3.828.126.439z"/>
                <path id="XMLID_221_" class="cls-1" d="M63.614 30.058c.225 3.026 2.171 4.813 3.71 6.916-2.812-.868-4.819-4.403-3.71-6.916z"/>
                <path id="XMLID_220_" class="cls-1" d="M58.18 84.725a3.175 3.175 0 0 1 3.573-1.666z"/>
                <path id="XMLID_219_" class="cls-1" d="m84.116 90.563-4 1.646-.11-.27 4.01-1.611c.036.079.068.157.1.235z"/>
                <path id="XMLID_205_" class="cls-1" d="m77.353 30.26 1.325-2.16a20.876 20.876 0 0 0 2.721.46 14.387 14.387 0 0 0 3.913-.133c3.517-.848 7.042-1.732 10.457-2.91a21.348 21.348 0 0 0 7.975-4.96c.764-.748 1.155-.557 1.681.127a2.214 2.214 0 0 1 .055 2.884 12.54 12.54 0 0 1-2.846 2.864 27.564 27.564 0 0 1-12.264 4.414c-.99.1-1.971.288-2.953.453-3.389.568-6.631-.141-10.064-1.039z"/>
                <path id="XMLID_204_" class="cls-1" d="M89.5 13.873a57.979 57.979 0 0 0-14.17 6.034 26.06 26.06 0 0 1 14.17-6.034z"/>
                <path id="XMLID_203_" class="cls-1" d="M37.621 32.772a16.022 16.022 0 0 0 1.761 1.216c1.783.892 1.856 2.591.149 4.409-1.831-2.055-1.865-2.1-4.147-.434-4.824 3.524-10.134 4.189-15.814 2.826-.461-.111-.88-.394-1.34-.512a10.351 10.351 0 0 0-1.459-.153c.168-.515.313-.977.471-1.434s.325-.893.567-1.556c7.517 2.398 14.151.653 19.812-4.362z"/>
            </g>
        </g>
    </g>
</svg>
