<svg xmlns="http://www.w3.org/2000/svg" width="13.994" height="15.865">
    <path d="m33.685 11.227-.541 1.741a2.219 2.219 0 0 1-2.119 1.56H26.88a1.114 1.114 0 0 1-1.114-1.114V8.736h3a1.426 1.426 0 0 1 1.426 1.426v.367a.2.2 0 0 0 .2.2h.615a.2.2 0 0 0 .2-.2V5.13a.2.2 0 0 0-.2-.2h-.617a.2.2 0 0 0-.2.2v.575a1.426 1.426 0 0 1-1.426 1.426h-3v-4.68a1.114 1.114 0 0 1 1.116-1.114h3.937a1.842 1.842 0 0 1 1.842 1.842v1.11a.2.2 0 0 0 .2.2h.72a.2.2 0 0 0 .2-.182l.3-3.813A.455.455 0 0 0 33.622 0h-12.5a.314.314 0 0 0-.322.314v.708a.314.314 0 0 0 .314.314h.8a1.114 1.114 0 0 1 1.114 1.114v10.964a1.114 1.114 0 0 1-1.114 1.114h-.8a.314.314 0 0 0-.314.314v.708a.314.314 0 0 0 .314.314h12.6a.456.456 0 0 0 .45-.388l.621-4.162a.2.2 0 0 0-.2-.227h-.725a.2.2 0 0 0-.175.14z" transform="translate(-20.803)" style="fill:#5a5a5a"/>
</svg>
