<svg xmlns="http://www.w3.org/2000/svg" width="38" height="32.5">
    <g data-name="Group 2715">
        <path data-name="Path 17017" d="m26.586 22.912-.4.6-.5 2.4-.4.5.1.9-.7 3.3v.8l.4.6.7.5.7-.3.7.1 2.1.9.3 1.5.5.4v9.6h-.8l.8.3.1 1.8-.5 2.8-.9.4-.4.5-1.6.5-.9.1-2.6-.3-.7.3h-1.5l-2.3-.3-1.5.3-2-.3-.5-.8-.8-.2.4-.7-.7-.4-.3-1.5.3-2.2-.3-.6-.1-1 .4-.8-.4-1.3.3-3.3-.3-.7.3-.8v-3.6l.3-.7.5-.5-.1-.9 1.6-1.8-.6-.6 1.2-2.2.6-.6.4-.1v-.7l1.1-1 .2-1.8 1.1-2.1.8-.1.7-1 2.2.3 1.1.8.2.8.9.3.5.7-.3.8zm-11.7 14.4h.4v-.4h-.4zm.4 6.1.4-.3-.4-.3zm.8-10.9.7-.4-.6.2-.1-.6zm0 5.1.5-.3h-.4zm.9 1.2.6-.2.7-.6-.8.2zm.3-3h.6l-.6-.4zm1.3-5.2-.4-.5-.7-.2.5.7zm0 6.3-.9-.2.4.6zm-.5 4.4.8.4.5-.5-.6-.3-.3-.5zm.7 3.2.8-.4-.8-.5zm.4-9.4.6.1.7-.3-.6-.8-.4.5zm1.1 6.2.5-.4-.3-.9.2-.7-.6-.5-.5 1.4.7.4zm.4-5.9.1.7.6.4-.4-1.1.6-.3-.2-.4zm1.4-1.8-.4-.6h-.7l.5.6zm-1.1 13.5.4.1-.2-.5zm.2-4.7.8.4v-.5zm0 1.9v1.5l.5-.4.1-.7.7-.8-.7.2zm.6-2.6.6-.7-.3-.4-.4.5zm.2-4.4h.3v-.4h-.3zm.5-2.6h.4l.2-.4-.6-.2zm0 15.3.7-.4-.5-.5zm.9-9.8v-.7l-.5-.4-.2.8zm-.3 2.2.3.8 1 .2v-.7l1.1-1-.8-.2.5-.5-.5-.6-.5 1.3.2.7-.7-.1zm.2-7.3.4.6.1.7.5-.3.2-.7-.6-.4zm.5-1.1.3-.8-.3-.5-.2.7zm-.2 4v.4l.2-.6zm1.3.6-.2-1-.2.6zm-.4 10.5h1v-.6l-.7.2zm.2-12.6.6-.5h-.6zm.4 7.2-.3.6v.7l.5.4-.1-.8.6-.5.4-.7-.5-.3-.8-.1zm1.3-8.3.5.5-.2.8.2.6.4-1 .1-.8-.6-.6zm0 4.5.9.3-.3-.6zm.7.9-.7-.4.2.5zm.4-5.9h.9l-.5-.3zm0 3.1h.4l-.2-.5zm.6 11.8h.3v-.3h-.3zm.5-1.4h.4v-.4h-.4zm17.2-17 2.2 1 2.2.6.3.9.6.4-.1 3.7.3 9.2-.7 1.3v1.1l-1.3 1.1-.8.4-3.1-.3-.7.3-1.4-.3-4.9.3-.9-.3-1 .1-.7-.5-.4-.6-.7-.5-.3-3.9.3-.7-.3-1.4v-1.7l.3-1.4-.4-1.1.8-.3-.4-.7-.1-2.4-.3-.8.8-.4-.6-.4.2-.8.6-.5-.1-.8.3-1.5 2-3.4.6-1.4.3-1.5.7-.6.9-1.4.6-1.5.9-1.5.9-.1.4-.5 1.7.5 1.4.8 1.1 1.2.4.7-.9 4.7-.2 2.3-.5.4zm-11.1 14 .5.3.4-.3zm1.7-3.7.5-.3.6.1-.5-.7-.8-.4-.1.9zm.3-5 .8.1.7-.3-1.1-.2zm.2-4.4.3.4.6.1-.2-.7zm.4 10.1.6-.3-.6-.4zm.9-1.1.3-.8-.5-.6-.3.8zm0 5.4.2-.7h-.6zm1.1-10 .8-.3-.4-1-.3.6zm.4-4.6.7.4.2-.8zm.9 12.6.2-.8h-1.1l.2.6zm-.7-7.2h.5l.6-.4-.7-.1zm.7 2.5h1.3l-.4-.6h-.9zm.2 3.6.7-.2v.8l.3.5.7.1-.1-.8-.5-.4h.6l-1.1-1.3-.4-.8-.3.6.2.6zm.7 3.5-.1-.6-.4-.4v.7zm-.3-12.2.8-.2.5-.6h-.9zm.5 5.9.4.8.7.1-.4-.7zm.4-2.8.6-.5-.6-.6zm.5 8.3-.3-.7v.8zm.8-10.1h.5v-.6h-.5zm.2-4.1h.3v-.4h-.3zm.7 8.3.5-.3-.3-.4zm.6 5.2.8.2.6-.6h-.6l-.7-.4zm2-8.3-.9-.2.3.4z" transform="translate(-13.287 -18.611)" style="fill:#c9165a"/>
    </g>
</svg>
