<svg xmlns="http://www.w3.org/2000/svg" width="40.685" height="32.014" viewBox="0 0 40.685 32.014">
    <g>
        <path fill="#c91559" d="M180.034 430.061a9.18 9.18 0 0 1 4.669-1.667q3 0 3 2c0 1.115-.667 2.335-2 3.668s-2 3.335-2 6a8.091 8.091 0 0 0 .667 3.835 10.094 10.094 0 0 0 1.667 2.168 10.421 10.421 0 0 1 1.667 2.168 7.277 7.277 0 0 1 .667 3.5 9.515 9.515 0 0 1-2.168 5.836q-2.173 2.837-7.837 2.835a9.1 9.1 0 0 1-5.5-2.168q-2.837-2.165-2.835-7.837a19.264 19.264 0 0 1 1.5-7.337 37.8 37.8 0 0 1 3.5-6.669 33.08 33.08 0 0 1 5.003-6.332zm22.343 0a9.182 9.182 0 0 1 4.669-1.667q3 0 3 2c0 1.115-.667 2.335-2 3.668s-2 3.335-2 6a8.091 8.091 0 0 0 .667 3.835 10.1 10.1 0 0 0 1.667 2.168 10.435 10.435 0 0 1 1.667 2.168 7.278 7.278 0 0 1 .667 3.5 9.514 9.514 0 0 1-2.168 5.836q-2.173 2.837-7.837 2.835a9.1 9.1 0 0 1-5.5-2.168q-2.837-2.165-2.835-7.837a19.264 19.264 0 0 1 1.5-7.337 37.8 37.8 0 0 1 3.5-6.669 33.054 33.054 0 0 1 5.004-6.332z" transform="translate(-170.03 -428.394) translate(0 0)"/>
    </g>
</svg>
