<svg xmlns="http://www.w3.org/2000/svg" width="20.926" height="17.006" viewBox="0 0 20.926 17.006">
    <path fill="#fff" d="M6.663 13.182A12.132 12.132 0 0 0 18.878.967q0-.279-.012-.555a8.737 8.737 0 0 0 2.142-2.223 8.566 8.566 0 0 1-2.465.676A4.309 4.309 0 0 0 20.43-3.51a8.611 8.611 0 0 1-2.73 1.042 4.288 4.288 0 0 0-3.13-1.356A4.294 4.294 0 0 0 10.276.468a4.289 4.289 0 0 0 .111.979 12.19 12.19 0 0 1-8.85-4.486A4.283 4.283 0 0 0 .957-.88a4.29 4.29 0 0 0 1.91 3.574 4.26 4.26 0 0 1-1.944-.538v.055A4.294 4.294 0 0 0 4.367 6.42a4.309 4.309 0 0 1-1.132.151 4.267 4.267 0 0 1-.807-.077 4.3 4.3 0 0 0 4.011 2.981 8.613 8.613 0 0 1-5.332 1.838 8.737 8.737 0 0 1-1.024-.06 12.153 12.153 0 0 0 6.581 1.929" transform="translate(-0.082 3.824)"/>
</svg>
