<svg xmlns="http://www.w3.org/2000/svg" width="164.467" height="102.336">
    <defs>
        <style>
            .cls-1{fill:#ff3f6c}
        </style>
    </defs>
    <g id="Svetlana_layer_3" transform="translate(-5.12 -7.339)">
        <g id="TIkjok_1_">
            <g id="XMLID_3_">
                <path id="XMLID_47_" class="cls-1" d="M159.694 21.846c.111.5.257.984.327 1.485.32 2.283.635 4.567.919 6.854.137 1.1.184 2.22.3 3.328.176 1.661.316 3.33.583 4.977.489 3.023.95 6.057 1.629 9.04.551 2.418.7 4.879 1.1 7.31.2 1.212.17 2.462.285 3.69.1 1.067.26 2.129.391 3.194.107.868.221 1.736.312 2.606.256 2.453.424 4.918.774 7.357.322 2.243.853 4.455 1.257 6.687.467 2.583.9 5.172 1.339 7.76.1.57.162 1.145.277 1.978-1.9-.917-3.291-2.219-5.1-2.956-.1 2.961-.191 5.8-.285 8.674a15.585 15.585 0 0 0-2.373.027 14.461 14.461 0 0 0-2.224.724 1.525 1.525 0 0 1-.127-.536c.127-1.305.321-2.605.419-3.912.127-1.708.188-3.421.273-5.132.087-1.751.157-3.5.258-5.255.048-.837.43-1.024 1.2-.624.176.092.327.23.5.331s.348.178.506.258c-.024-2.533.005-5.032-.083-7.527-.108-3.065-.206-6.138-.51-9.187-.223-2.239-.1-4.468-.192-6.7-.083-2.072-.136-4.145-.249-6.216-.133-2.424-.316-4.846-.482-7.269 0-.059-.065-.114-.173-.294-.1 1.546-.165 2.973-.281 4.4-.1 1.266-.257 2.528-.4 3.792q-.274 2.49-.561 4.98c-.125 1.065-.272 2.126-.4 3.19-.1.829-.222 1.656-.281 2.488-.111 1.59-.211 3.182-.262 4.775a4.06 4.06 0 0 1-.617 2.266 11.182 11.182 0 0 0-.743 1.538l-.262-.075c.081-.636.155-1.273.245-1.907q.437-3.07.882-6.139c.271-1.889.548-3.777.806-5.667.145-1.063.283-2.129.378-3.2.187-2.1.281-4.211.526-6.3a51.431 51.431 0 0 0 .451-6.79c-.005-.292-.051-.583-.083-.923-.152.1-.261.137-.27.189-.362 1.953-.746 3.9-1.061 5.864-.4 2.512-.749 5.033-1.121 7.55-.273 1.849-.538 3.7-.826 5.547-.319 2.043-.66 4.083-.991 6.124-.3 1.883-.6 3.769-.917 5.65s-.662 3.762-1.008 5.64c-.025.138-.156.257-.321.514-2.029-2.334-3.656-4.877-5.819-7.262 0 1.212-.022 2.194.008 3.174.019.634.138 1.264.168 1.9.1 2.071.108 4.148.288 6.212.245 2.82.445 5.638.465 8.47.011 1.632.156 3.263.223 4.895.016.39-.036.783-.073 1.467a8.078 8.078 0 0 1-.8-.957 14.655 14.655 0 0 0-2.661-3.067 4.475 4.475 0 0 0-2.347-1.121.663.663 0 0 1-.63-.816c.1-1.51.2-3.02.306-4.529.04-.554.137-1.1.171-1.658.342-5.547.277-11.1.234-16.654-.01-1.352-.218-2.705-.193-4.055.039-2.065.2-4.128.322-6.387.549.638 1.032 1.171 1.484 1.728 1.579 1.949 3.146 3.909 4.723 5.86.425.526.911 1.008 1.3 1.56a10.385 10.385 0 0 1 .7 1.437 4.281 4.281 0 0 0 .773-2.558c.337-3.37.923-6.695 1.589-10.012.359-1.791.557-3.614.841-5.42.173-1.1.372-2.2.56-3.295.456-2.665.884-5.335 1.375-7.994.564-3.051 1.2-6.089 1.771-9.139.322-1.719.568-3.453.864-5.177a5.479 5.479 0 0 1 .273-.817c.114.008.232.022.351.037z"/>
                <path id="XMLID_46_" class="cls-1" d="M71.979 40.665c1.035 1.54 1.967 2.965 2.938 4.362 2 2.881 4.1 5.7 6.015 8.635 2.068 3.174 3.992 6.438 5.934 9.695 2.923 4.9 5.553 9.971 8.785 14.682 1.759 2.564 3.551 5.106 5.324 7.66.246.355.467.727.854 1.334-.437-.168-.671-.188-.787-.315a7.438 7.438 0 0 0-2.209-1.613 3.162 3.162 0 0 1-.992-1c-.822-1.12-1.607-2.269-2.474-3.369.506 1.515 1.644 2.712 2.241 4.272a6.526 6.526 0 0 0-.774.138.849.849 0 0 1-1.1-.421c-1.061-1.689-2.163-3.353-3.223-5.042-1.315-2.094-2.576-4.223-3.912-6.3-2.112-3.29-4.3-6.534-6.391-9.836a77.425 77.425 0 0 1-2.984-5.186 88.435 88.435 0 0 0-5.007-8.013 7.927 7.927 0 0 1-.557-.92 111.954 111.954 0 0 0-5.5-9.957c-.339-.541-.227-.833.374-.886a16.754 16.754 0 0 1 1.677 0 3.643 3.643 0 0 0 .7.012c.684-.129.9-.434.7-1.1-.19-.649-.469-1.272-.7-1.909-.452-1.236-.9-2.473-1.415-3.9l.7.261c-1.882-4.095-3.846-8.092-5.568-12.19-1.709-4.068-3.173-8.239-4.645-12.419.68.334.927 1.007 1.305 1.554 1.476 2.129 2.872 4.315 4.38 6.421 1.693 2.364 3.461 4.676 5.224 6.989.892 1.171 1.87 2.276 2.768 3.443 1.214 1.579 2.461 3.14 3.562 4.8 1.748 2.627 3.7 5.093 5.671 7.549 1.494 1.864 3.145 3.612 4.524 5.556 1.307 1.841 3.071 3.246 4.413 5.034.281.375.737.69.307 1.236-.364.463-.72.484-1.5.165-1.026-.418-2.067-.8-3.373-1.3a6 6 0 0 0 .406.808c1.74 2.229 3.536 4.415 5.222 6.685a110.124 110.124 0 0 1 6.89 10.062 12.047 12.047 0 0 0 1.058 1.445c1.771 2.2 3.577 4.381 5.324 6.6 1.8 2.286 3.552 4.6 5.3 6.928 1.316 1.752 2.6 3.53 3.875 5.31a3.5 3.5 0 0 1 .52 1.061.974.974 0 0 1-.384 1.064.919.919 0 0 1-1.118.05 2.244 2.244 0 0 1-.625-.529c-1.434-1.861-2.841-3.743-4.28-5.6-1.732-2.235-3.526-4.422-5.223-6.683-2.535-3.378-5-6.805-7.511-10.205-2.411-3.271-4.767-6.586-7.283-9.774A47.043 47.043 0 0 0 85.6 52.22a9.047 9.047 0 0 1-1.194-1.475c-.583-.9-1.1-1.851-1.645-2.779-.424-.722-.855-1.44-1.269-2.168a3.835 3.835 0 0 1-.209-.63 5.7 5.7 0 0 1 2.289.728c.7.236 1.419.394 2.292.63a9.781 9.781 0 0 0-1.959-3.052c-3.007-3.822-5.943-7.695-8.669-11.725a270.91 270.91 0 0 0-4.956-7.043c-.765-1.058-1.636-2.04-2.481-3.083-.041.131-.1.219-.079.267 1.89 3.966 3.763 7.942 5.695 11.887.771 1.575 1.692 3.077 2.513 4.629.353.669.636 1.376.923 2.077a.655.655 0 0 1 0 .542.628.628 0 0 1-.528.07 65.168 65.168 0 0 1-2.409-.712 1.921 1.921 0 0 0-1.935.282z"/>
                <path id="XMLID_45_" class="cls-1" d="M41.221 85.419a11.669 11.669 0 0 0-2.675-3.03c-1.023-.946-2.1-1.835-3.16-2.738-1.365-1.161-2.741-2.309-4.108-3.468-.729-.618-1.461-1.235-2.172-1.874-1.779-1.6-3.543-3.216-5.321-4.816-2.222-2-4.48-3.957-6.668-5.992-1.108-1.03-2.1-2.189-3.139-3.289-.247-.261-.491-.526-.745-.78q-3.771-3.779-7.546-7.553a2.092 2.092 0 0 1-.413-.43 2.585 2.585 0 0 1-.154-.626c.216 0 .505-.088.636.018a11.326 11.326 0 0 1 2.4 2.127 23.686 23.686 0 0 0 5.537 5.4c2.434 1.865 4.891 3.706 7.241 5.673a30.986 30.986 0 0 1 2.92 3.159c.346.384.663.795 1.007 1.18.744.832 1.485 1.668 2.249 2.481a49.246 49.246 0 0 0 8.393 7.086 20.268 20.268 0 0 1 4 3.4c.576.66 1.122 1.346 1.687 2.016a332.04 332.04 0 0 0 2.241 2.64c.364.423.764.816 1.119 1.247s.323.62-.2.732c-.93.2-1.875.331-2.813.493-.295.051-.59.107-1.012.183.589.913 1.381.769 2.089.748.741-.022 1.48-.152 2.391-.255-.583 1-1.491.629-2.243.854a103.016 103.016 0 0 0 12.412 10.023 38.856 38.856 0 0 1 6.374 5.03 4.907 4.907 0 0 0 .986.664c.324.2.658.389 1.017.6-.68.766-1.295 1.415-1.849 2.113-.133.167-.037.5-.1.745a.983.983 0 0 1-.283.479c-.049.043-.286-.07-.394-.163-2.914-2.489-6.122-4.584-9.171-6.892-1.713-1.3-3.351-2.7-4.961-4.122-2.061-1.823-4.034-3.746-6.093-5.571a75.609 75.609 0 0 0-7.372-5.7 2.448 2.448 0 0 1-.586-.406c-.146-.193-.311-.518-.239-.689a.847.847 0 0 1 .65-.353c2.534-.086 5.069-.139 7.6-.207a2.108 2.108 0 0 0 .468-.137z"/>
                <path id="XMLID_44_" class="cls-1" d="M21.077 61.865c1.251.887 2.542 1.724 3.746 2.671 2.565 2.018 5.083 4.1 7.624 6.143.279.225.57.562.882.6 1.185.125 1.83 1.065 2.707 1.651q3.479 2.327 6.955 4.658 3.222 2.169 6.434 4.354c.494.334 1 .651 1.488.994 1.106.781 2.187 1.6 3.31 2.355 1.487 1 2.99 1.979 4.516 2.918a11.294 11.294 0 0 0 1.449.551c.155.067.253.266.377.4-.153.092-.3.243-.462.264-.512.068-1.037.052-1.541.147-.169.032-.429.435-.419.446.57.586-.157.906-.385 1.427.585.291 1.1.563 1.636.809 1.845.857 3.707 1.68 5.537 2.57a3.915 3.915 0 0 1 1.915 1.52 5.78 5.78 0 0 0-1.364 1.1 6.434 6.434 0 0 0-.523 1.773 2.425 2.425 0 0 1-.616-.13 24.084 24.084 0 0 1-5.906-3.811 30.878 30.878 0 0 0-7.331-4.895c-.149-.068-.242-.258-.36-.391a2.111 2.111 0 0 1 .486-.284c1.013-.276 2.033-.53 3.316-.861-.678-.461-1.118-.786-1.583-1.072a71.762 71.762 0 0 1-7.875-5.617q-4.019-3.29-8.017-6.605c-1.743-1.453-3.44-2.962-5.179-4.42-1.646-1.381-3.316-2.733-4.982-4.09-1.759-1.433-3.53-2.851-5.285-4.288a6.751 6.751 0 0 1-.679-.741z"/>
                <path id="XMLID_43_" class="cls-1" d="M94.471 66.051c.78 1.1 1.551 2.206 2.34 3.3 2.867 3.975 5.727 7.956 8.616 11.914 1.409 1.93 2.886 3.809 4.309 5.729.168.226.35.65.25.823a.934.934 0 0 1-1.163.36 2.173 2.173 0 0 1-1.371-1.247 23.008 23.008 0 0 0-1.077-2.272A17.438 17.438 0 0 0 105.218 83c-.491-.676-1.026-1.324-1.484-2.022-1.617-2.47-3.212-4.954-4.81-7.436Q96.755 70.176 94.6 66.8a5.928 5.928 0 0 1-.306-.625z"/>
                <path id="XMLID_42_" class="cls-1" d="m164.7 86.06 4.89 3.189c-.451.073-.667.179-.76.113-1.386-.984-2.756-1.99-4.128-2.994-.021-.014-.002-.075-.002-.308z"/>
                <path id="XMLID_41_" class="cls-1" d="M145.819 93.156a2.749 2.749 0 0 1-2.518-1.482c-.061-.082.021-.284.065-.422.01-.032.159-.062.208-.033a21.143 21.143 0 0 1 2.245 1.937z"/>
                <path id="XMLID_29_" class="cls-1" d="M164.908 89.431c-.132-.728-.238-1.217-.3-1.712a.4.4 0 0 1 .241-.313.427.427 0 0 1 .346.225 1.493 1.493 0 0 1 .047.674 10.718 10.718 0 0 1-.334 1.126z"/>
                <path id="XMLID_28_" class="cls-1" d="M83.5 44.958a8.767 8.767 0 0 1-.809-.618c-.068-.064-.006-.268 0-.407.145.015.345-.025.423.055a7 7 0 0 1 .568.748 3.284 3.284 0 0 0-.182.222z"/>
            </g>
        </g>
    </g>
</svg>
