<svg xmlns="http://www.w3.org/2000/svg" width="163.268" height="103.976">
    <defs>
        <style>
            .cls-1{fill:#ff3f6c}
        </style>
    </defs>
    <g id="Svetlana_layer_1" transform="translate(-5.345 -6.673)">
        <g id="kYWlhh_1_">
            <g id="XMLID_1_">
                <path id="XMLID_40_" class="cls-1" d="M5.345 50.8c.366.083.84.049 1.08.269a17.7 17.7 0 0 1 2.643 2.723A20.009 20.009 0 0 0 13.1 57.86c2.737 2.2 5.485 4.4 8.185 6.645a12.855 12.855 0 0 1 1.831 2.052 70.362 70.362 0 0 0 7.977 8.607 54.425 54.425 0 0 0 4.719 3.675 22.882 22.882 0 0 1 4.888 4.9c1.018 1.38 2.122 2.7 3.229 4.011.432.512.335.757-.264.886-.621.134-1.247.25-1.874.351a8.382 8.382 0 0 0-1.064.121c-.174.053-.285.316-.425.484.157.1.313.285.472.288 1.028.016 2.057-.01 3.086-.016.188 0 .376.027.564.041a3.375 3.375 0 0 1-.5.439 1.527 1.527 0 0 1-.467.082c-.366.071-.731.149-1.1.224a10.827 10.827 0 0 0 .76.9 113.927 113.927 0 0 0 12.015 9.891c1.836 1.334 3.52 2.877 5.291 4.3a18.793 18.793 0 0 0 1.677 1.149c.355.228.583.4.14.8a4.371 4.371 0 0 0-1.769 2.67c-.08.588-.54.14-.795-.06-2.2-1.726-4.357-3.509-6.6-5.174A99.464 99.464 0 0 1 42.221 95.7a69.877 69.877 0 0 0-9.363-7.835 1.7 1.7 0 0 1-.474-.359c-.142-.213-.326-.516-.266-.711a.845.845 0 0 1 .614-.443c.673-.073 1.357-.047 2.036-.073 1.715-.067 3.43-.132 5.144-.222a2.926 2.926 0 0 0 .745-.248 3.044 3.044 0 0 0-.411-.687c-2.1-2.024-4.188-4.06-6.33-6.039-1.993-1.842-4.081-3.582-6.067-5.432-3.243-3.023-6.488-6.049-9.636-9.171-2.519-2.5-4.874-5.16-7.343-7.71-1.807-1.865-3.68-3.666-5.524-5.495l-.001-.475z"/>
                <path id="XMLID_39_" class="cls-1" d="M161.965 74.377c-.063-6.835-.091-13.67-.205-20.5-.058-3.432-.274-6.862-.421-10.292a4.37 4.37 0 0 0-.07-.464 3.324 3.324 0 0 0-.141.487c-.6 4.594-1.206 9.185-1.771 13.783-.331 2.695-.655 5.394-.854 8.1a10.725 10.725 0 0 1-1.333 4.409 1.128 1.128 0 0 1-.24.232 1.622 1.622 0 0 1-.1-.528c.389-2.406.835-4.8 1.186-7.215.656-4.5 1.273-9.014 1.881-13.525.325-2.413.614-4.831.886-7.251a18.888 18.888 0 0 0 .056-2.156c0-.125-.135-.25-.208-.375-.085.119-.215.227-.248.36-.236.929-.5 1.856-.667 2.8-1.4 7.827-2.777 15.659-4.186 23.484-.559 3.107-1.184 6.2-1.778 9.3a2.664 2.664 0 0 1-.084.471c-.1.251-.231.488-.35.731a3.087 3.087 0 0 1-.624-.478c-.543-.691-1.048-1.412-1.575-2.116-.957-1.28-1.911-2.563-2.888-3.828a2.756 2.756 0 0 0-.631-.458 3.621 3.621 0 0 0-.106.677c.051 1.516.14 3.03.18 4.546.1 4.034.184 8.069.289 12.1.059 2.276.152 4.551.219 6.826.014.479-.009.96-.041 1.439a1.5 1.5 0 0 1-.159.416 1.274 1.274 0 0 1-.366-.233c-.241-.318-.417-.69-.681-.986-.9-1.011-1.8-2.034-2.77-2.977a3.342 3.342 0 0 0-1.379-.681c-1.219-.353-1.181-.335-1.05-1.623.323-3.177.673-6.354.858-9.54.235-4.065.529-8.146.4-12.208-.107-3.448.357-6.85.328-10.278a2.507 2.507 0 0 1 .229-.73 3.372 3.372 0 0 1 .517.445c1.915 2.459 3.833 4.915 5.72 7.4.5.653.887 1.386 1.334 2.077.059.091.219.23.242.215.151-.1.364-.222.4-.373.2-.855.361-1.718.521-2.582.625-3.378 1.218-6.762 1.872-10.134q2.226-11.473 4.5-22.938c.527-2.665 1.1-5.323 1.644-7.984a1.094 1.094 0 0 1 .067-.35 3.036 3.036 0 0 1 .36-.4 1.832 1.832 0 0 1 .326.461 3.545 3.545 0 0 1 .081.712c.3 2.939.6 5.877.886 8.816.262 2.7.423 5.416.774 8.106.449 3.445 1.086 6.865 1.557 10.307.287 2.094.426 4.208.609 6.315.238 2.744.454 5.489.677 8.234.169 2.069.275 4.145.517 6.206.307 2.617.717 5.222 1.1 7.83.42 2.886.87 5.767 1.267 8.656a5.576 5.576 0 0 1-.147 1.356 10.962 10.962 0 0 1-1.15-.553c-.813-.51-1.594-1.07-2.4-1.588-1.023-.656-1.2-.581-1.257.605a383.265 383.265 0 0 0-.263 6.343c-.044 1.277-.034 1.191-1.339 1.269a17.118 17.118 0 0 0-2.771.592 6.213 6.213 0 0 0-.625.212 2.965 2.965 0 0 1-.093-.691c.153-1.59.348-3.175.491-4.766.243-2.7.456-5.409.685-8.114a13.453 13.453 0 0 1 .162-1.546c.172-.847.365-.93 1.144-.609 1.09.45 1.09.45 1.089-.688v-4.559a.665.665 0 0 1-.083-.001z"/>
                <path id="XMLID_38_" class="cls-1" d="M69.928 38.329a9.823 9.823 0 0 0 1.235.158c1.1-.023 1.436-.489 1.114-1.52-.262-.84-.591-1.66-.826-2.506-.33-1.191-.52-2.425-.915-3.592-.614-1.81-1.349-3.578-2.035-5.363-1.719-4.476-3.45-8.948-5.154-13.431-.554-1.457-1.05-2.937-1.544-4.416a4.691 4.691 0 0 1-.116-.986c.195.235.411.456.582.708 3.384 5 6.686 10.052 10.162 14.984q6.421 9.113 13.092 18.047c1.976 2.655 4.2 5.126 6.317 7.676.448.54 1.233 1.034.714 1.827-.545.833-1.275.238-1.92-.018-.669-.266-1.334-.542-2.011-.782a2.624 2.624 0 0 0-.669-.055 2.864 2.864 0 0 0 .274.634c1.346 1.786 2.793 3.5 4.045 5.352 2.508 3.706 4.874 7.508 7.375 11.219 1.113 1.652 2.447 3.155 3.617 4.771q4.959 6.846 9.862 13.733c.673.94 1.361 1.875 1.958 2.864.493.817.356 1.41-.247 1.771-.575.345-1.159.107-1.707-.639-3.216-4.381-6.474-8.731-9.652-13.139-2.384-3.307-4.653-6.7-7-10.029s-4.705-6.659-7.132-9.933c-.779-1.051-1.819-1.906-2.7-2.887a18.969 18.969 0 0 1-2.018-2.48c-.849-1.351-1.562-2.788-2.307-4.2a3.667 3.667 0 0 1-.215-.877 4.441 4.441 0 0 1 .885.121c.906.31 1.795.669 2.7.98a1.444 1.444 0 0 0 .56-.048 1.919 1.919 0 0 0-.079-.555 4.108 4.108 0 0 0-.49-.821c-4.807-6.15-9-12.724-13.336-19.2-.865-1.294-1.829-2.523-2.758-3.773a2.173 2.173 0 0 0-.434-.348 2.39 2.39 0 0 0 .109.542c2.269 4.98 4.164 10.131 6.837 14.929a28.719 28.719 0 0 1 1.379 3.186 3.1 3.1 0 0 1 .108.768 5.281 5.281 0 0 1-.8-.1c-.731-.205-1.451-.45-2.181-.66a1.921 1.921 0 0 0-.819-.124 4.876 4.876 0 0 0-.969.39 7.743 7.743 0 0 0 .393.815c4.028 6.428 8.546 12.545 12.163 19.235 2.7 4.993 5.356 10.012 8.209 14.916 1.946 3.346 4.2 6.513 6.308 9.764.369.569.717 1.153 1.054 1.743a1.23 1.23 0 0 1 .06.451 1.774 1.774 0 0 1-.491-.155 15.631 15.631 0 0 1-5.012-5.48c-.093-.172-.305-.279-.462-.417a3.615 3.615 0 0 0 .2.539c.51.9 1.058 1.79 1.535 2.712.137.264.182.87.094.907-.451.192-.977.472-1.419-.056a3.006 3.006 0 0 1-.257-.4c-4.437-7.357-8.909-14.7-13.289-22.091-1.73-2.921-3.069-6.086-4.921-8.921-2.638-4.039-4.459-8.493-6.856-12.645-.3-.519-.615-1.032-.876-1.57-.167-.345-.448-.944-.328-1.057a2.723 2.723 0 0 1 1.004-.468z"/>
                <path id="XMLID_37_" class="cls-1" d="M60 89.713a3.679 3.679 0 0 1-.525.229c-.311.073-.627.126-.942.18-.566.1-1.2.123-.8 1.006.045.1-.068.31-.164.421-.4.463-.164.675.281.881 1.306.6 2.619 1.192 3.894 1.855a37.94 37.94 0 0 1 3.73 2.137c.807.544.743.689-.083 1.173a1.9 1.9 0 0 0-1.02 1.516c-.115.951-.347 1.109-1.143.649a27.272 27.272 0 0 1-4.321-2.781 43.065 43.065 0 0 0-7.947-5.74 2.85 2.85 0 0 1-.567-.549 5.221 5.221 0 0 1 .7-.347c.721-.235 1.453-.437 2.177-.664a3.689 3.689 0 0 0 .491-.237 2.521 2.521 0 0 0-.383-.425c-1.731-1.221-3.518-2.369-5.194-3.661-2.212-1.705-4.359-3.5-6.5-5.294-1.987-1.669-3.93-3.391-5.889-5.093-2.291-1.99-4.566-4-6.869-5.972-2.334-2-4.693-3.971-7.042-5.954a2.086 2.086 0 0 1-.286-.217c-.212-.259-.407-.531-.608-.8.263.148.539.278.788.448a115.7 115.7 0 0 1 10.823 8.705 5.6 5.6 0 0 0 1.218.605 4.806 4.806 0 0 1 .715.394c1.282.949 2.533 1.94 3.833 2.863 5.212 3.7 10.414 7.412 15.674 11.042 1.73 1.194 3.624 2.149 5.44 3.219a5.591 5.591 0 0 1 .519.411z"/>
                <path id="XMLID_36_" class="cls-1" d="M95.381 67.805c.246.312.508.612.736.936q6.264 8.916 12.521 17.836c.252.36.51.717.731 1.1.4.682.21 1.017-.582 1.078a1.631 1.631 0 0 1-1.709-1.067c-2.093-4.733-5.47-8.689-7.955-13.186-1.233-2.232-2.538-4.424-3.81-6.634z"/>
                <path id="XMLID_35_" class="cls-1" d="M143.05 91.846c.621.593 1.211 1.152 1.787 1.725.031.03-.085.266-.089.264a3.152 3.152 0 0 1-1.172-.417 4.982 4.982 0 0 1-.82-1.253c-.016-.024.127-.141.294-.319z"/>
                <path id="XMLID_34_" class="cls-1" d="M165.926 87.971c.85.514 1.705 1.02 2.544 1.552.1.06.1.265.143.4-.144 0-.333.052-.424-.019-.781-.613-1.545-1.249-2.314-1.878z"/>
                <path id="XMLID_33_" class="cls-1" d="M164.155 89.022c.064-.246.158-.608.262-.968 0 0 .2.03.2.054a5.451 5.451 0 0 1 .033 1.111 5.622 5.622 0 0 1-.323.994l-.172-1.191z"/>
                <path id="XMLID_32_" class="cls-1" d="M95.312 67.865c-.322-.44-.65-.876-.958-1.325-.052-.076-.019-.211-.024-.318.09.048.221.073.264.148.273.472.527.955.787 1.435z"/>
                <path id="XMLID_31_" class="cls-1" d="m165.875 88.03-1.411-.99c.023-.03.065-.086.066-.085q.7.5 1.4 1.016z"/>
                <path id="XMLID_30_" class="cls-1" d="M84.19 44.6c-.232 0-.371.041-.419-.007a6.972 6.972 0 0 1-.466-.573c.1-.032.25-.12.287-.085a8.331 8.331 0 0 1 .598.665z"/>
            </g>
        </g>
    </g>
</svg>
