<svg xmlns="http://www.w3.org/2000/svg" id="Group_2406" width="99.268" height="99.267" viewBox="0 0 99.268 99.267">
    <defs>
        <style>
            .cls-1{fill:#0d0d0d}
        </style>
    </defs>
    <path id="Path_16912" d="M174.175 175.975H76.893V78.693h97.282zm.993-98.275H75.9v99.267h99.268z" class="cls-1" transform="translate(-75.9 -77.7)"/>
    <g id="Group_2403" transform="translate(19.357 70.52)">
        <path id="Path_16913" d="M177.847 432.9l-4.447 11.872h3.971l.516-1.568H182l.516 1.568h3.971l-4.431-11.872zm.953 7.465l.834-2.521a10.751 10.751 0 0 0 .318-1.529 8.423 8.423 0 0 0 .338 1.529l.834 2.521z" class="cls-1" transform="translate(-173.4 -432.9)"/>
    </g>
    <path id="Path_16914" d="M247.431 432.9H243.5v11.872h8.994v-3.435h-5.063z" class="cls-1" transform="translate(-210.226 -362.38)"/>
    <g id="Group_2404" transform="translate(43.36 70.52)">
        <path id="Path_16915" d="M299.422 432.9H294.3v11.872h5.122c4.249 0 6.155-2.462 6.155-5.936.02-3.474-1.886-5.936-6.155-5.936m-.1 8.577h-1.112v-5.3h1.112c1.39 0 2.243.715 2.243 2.64 0 1.946-.854 2.66-2.243 2.66" class="cls-1" transform="translate(-294.3 -432.9)"/>
        <path id="Path_16916" d="M354.427 432.9L350 444.772h3.971l.516-1.568h4.11l.516 1.568h3.971l-4.428-11.872zm.953 7.465l.834-2.521a10.764 10.764 0 0 0 .318-1.529 8.419 8.419 0 0 0 .337 1.529l.834 2.521z" class="cls-1" transform="translate(-338.942 -432.9)"/>
        <path id="Path_16917" d="M428.537 440.623a3.641 3.641 0 0 0 2.045-3.534c0-3.236-2.521-4.189-5.063-4.189H420v11.872h3.911v-3.514h.913l2.442 3.514h4.308zm-3.1-2.3h-1.509V436.1h1.509a1.116 1.116 0 1 1 0 2.224" class="cls-1" transform="translate(-395.044 -432.9)"/>
    </g>
    <path id="Rectangle_853" d="M0 0H12.031V22.057H0z" class="cls-1" transform="translate(67.562 15.883)"/>
    <g id="Group_2405" transform="translate(19.615 15.863)">
        <path id="Path_16918" d="M404.478 293.086c0 1.946-1.668 1.926-2.8 1.926H396.1v9.768h16v-18.92a23.8 23.8 0 0 0-7.7-8.259l-7.127 7.048c.02-.04 7.207 3.693 7.207 8.438" class="cls-1" transform="translate(-352.144 -253.776)"/>
        <path id="Path_16919" d="M256.8 173.642a17.823 17.823 0 0 1 4.11-10.939l8.2 4.586c-3.911 4.924-3.077 10.026 1.469 10.026s4.407-4.149 4.407-4.646V157.6h9.728v15.784A14.017 14.017 0 0 1 270.7 187.3a13.826 13.826 0 0 1-13.9-13.659" class="cls-1" transform="translate(-240.5 -157.6)"/>
        <path id="Path_16920" d="M191.317 286.1h-4.189v4.686c0 10.681-5.877 11.614-9.272 11.575H174.7v9.252h15.684c5.42-3.852 8.3-10.344 8.7-19.6a17.014 17.014 0 0 1-7.763-5.916" class="cls-1" transform="translate(-174.7 -260.588)"/>
        <path id="Path_16921" d="M318.785 307.616a16.387 16.387 0 0 1-1.985-.119v18.662h12.011V304.3a16.736 16.736 0 0 1-10.026 3.316" class="cls-1" transform="translate(-288.588 -275.175)"/>
    </g>
</svg>
