<svg xmlns="http://www.w3.org/2000/svg" width="170.04" height="46.669" viewBox="0 0 170.04 46.669">
    <path fill="#0d0d0d" d="M-2184.683-1362.254c-.722 8.638-3.988 16.594-6.634 24.716-.8 2.453-1.654 4.887-2.625 7.746a51.427 51.427 0 0 0 5.881-.665c.611-.136 1.168-1.116 1.495-1.828q2.9-6.3 5.757-12.612l2.9-6.375c1.372-3.021 2.39-7.3 5.737-8.821 1.129-.514 2 1.478 2.279 2.245a18.644 18.644 0 0 1 .672 5.774 29.129 29.129 0 0 1-.269 5.05 19.932 19.932 0 0 1-3.64 9.082 21.118 21.118 0 0 1-4.27 4.235c-.9.678-1.662 1.568-2.615 2.149-3.273 1.992-3.386 5.136-3.151 8.388a3.144 3.144 0 0 0 3.226 3.165 16.149 16.149 0 0 0 4.692-.63c.568-.156 1.084-1.065 1.331-1.738 1.623-4.423 3.216-8.858 4.7-13.328.441-1.324.979-2.145 2.488-2.361a38.558 38.558 0 0 0 4.7-1.293c-.949 2.2-1.792 4.161-2.855 6.633.78-.574 1.143-.868 1.531-1.123 2.709-1.78 5.385-3.616 8.161-5.286a7.45 7.45 0 0 1 3.038-.839c2.023-.2 2.96.986 2.449 2.97a14.445 14.445 0 0 1-.714 1.854 5.328 5.328 0 0 0-.543 2.025 33.22 33.22 0 0 1 3.137-2.422c2.315-1.4 4.681-2.725 7.09-3.955a6.156 6.156 0 0 1 2.519-.469c2.285-.082 3.13.9 2.413 3.1-1.068 3.276-2.361 6.479-3.561 9.712-.184.5-.421.977-.572 1.483-.764 2.565.241 4 2.934 4.114a27.086 27.086 0 0 0 2.912-.183c-1.477-10.423 11.07-18.314 18.731-18.323 3.471 0 5.365 2.437 3.771 5.51a15.685 15.685 0 0 1-4.688 5.493c-2.953 2.066-6.342 3.508-9.708 5.3a8.974 8.974 0 0 0 6.6 2.861 58.392 58.392 0 0 0 8.491-.6 1.591 1.591 0 0 0 1.16-.807c1.466-4.674 2.856-9.372 4.261-14.065a1.536 1.536 0 0 0-.026-.35h-3.257c.66-1.622 1.1-3.076 3.253-2.781.45.062 1.278-.6 1.479-1.1a68.2 68.2 0 0 0 2.252-6.588 2.163 2.163 0 0 1 2.035-1.773c1.434-.194 2.858-.464 4.63-.757l-3.578 10.5c2.65 0 5.02.066 7.378-.061.424-.023.977-.777 1.177-1.305.8-2.109 1.541-4.242 2.173-6.405a2.072 2.072 0 0 1 2.15-1.808 38.9 38.9 0 0 0 4.531-.747l-3.587 10.4h4.109c-.423 2.146-1.36 3.273-3.563 2.652-.979-.276-1.591.04-1.92 1.118-.87 2.853-1.934 5.648-2.765 8.511-1.308 4.5.068 6.305 4.8 6.486.457.017.917-.039 1.577-.071-1.464-4.307.007-7.905 2.645-11.076a20.934 20.934 0 0 1 13.4-7.562c.263-.039.53-.045.795-.068 2.034-.179 4.151-.306 5.288 1.8 1.184 2.2.111 4.178-1.24 5.873-3.011 3.776-7.256 5.7-11.621 7.4-.594.23-1.2.441-1.833.675 2.469 3.162 6.151 3.981 15.008 3.693-1.582.414-3.153.882-4.751 1.226a34.52 34.52 0 0 1-5.1.863c-2.569.156-5.155.137-7.729.05a3.826 3.826 0 0 1-2.4-.825c-1.617-1.607-3.268-1.149-5.1-.6-1.771.534-3.612.843-5.432 1.2-2.186.432-4.125.161-5.223-2.2-2.434.592-4.8 1.2-7.18 1.732a13.871 13.871 0 0 1-2.755.327c-2.492.046-2.92-.3-4.087-2.943-4.581.9-9.1 1.945-13.678 2.648-3.525.542-7.065.537-9.673-2.671-.222-.274-1.078-.222-1.556-.067-2.71.883-5.357 1.973-8.1 2.746-3.313.936-4.955-.791-3.928-4.063 1.073-3.417 2.349-6.77 3.426-10.186.231-.733.276-2.121-.088-2.325a3.669 3.669 0 0 0-2.9-.4 8.125 8.125 0 0 0-3.421 2.847 111.164 111.164 0 0 0-5.329 10.438c-.769 1.705-1.628 2.878-3.6 3.09a27.308 27.308 0 0 0-3.536.882c1.421-4 2.764-7.772 4.094-11.545.331-.937.665-1.877.916-2.836.538-2.049-.491-3.312-2.476-2.636a7.655 7.655 0 0 0-3.884 2.8 50.682 50.682 0 0 0-4.56 9.242c-.986 2.72-2.107 4.735-5.328 4.707a8.179 8.179 0 0 0-1.756.425l.451-2.277a34.858 34.858 0 0 1-3.529 1.392 25.835 25.835 0 0 1-6.131 1.348c-2.859.055-4.319-1.672-4.444-4.551a16.627 16.627 0 0 1 .2-2.774c.116-.915.312-1.819.51-2.936-1.99.125-3.89.19-5.773.409-.364.042-.828.637-.955 1.064-.618 2.09-1.094 4.223-1.725 6.31a2.131 2.131 0 0 1-1.089 1.3c-1.885.6-3.823 1.031-5.98 1.585l3.51-10.48c-2.916 0-5.573-.043-8.224.05-.365.013-.756.669-1.051 1.087-.917 1.3-1.764 2.655-2.689 3.953a14.934 14.934 0 0 1-11.464 6.327 11.659 11.659 0 0 0-1.693.4h-3.989l-.663-1.823c7.919 1.588 12.641-2.109 16.065-8.335 2.205-4.01 4.468-8 6.928-11.856 3.989-6.257 8.307-12.3 12.288-18.563 2.742-4.315 2.4-3.468 7.021-4.883a20.7 20.7 0 0 0 3.035-1.209zm-6.411 4.486c-5.379 9.468-11.512 19.14-16.947 28.706 2.643-.3 5.046-.7 7.463-.8a1.772 1.772 0 0 0 1.887-1.532c1.082-3.42 2.183-6.834 3.28-10.249.792-2.466 1.685-4.9 2.409-7.387.222-.759 2.379-8.561 1.908-8.733zm94.664 36.939l4.927-15.989c-2.341 0-4.513.047-6.681-.019a1.757 1.757 0 0 0-1.955 1.5c-.746 2.4-1.556 4.781-2.4 7.148-2.314 6.465.593 7.922 6.109 7.36zm20.657-2.994c4.279-2.329 7.807-5.087 8.381-10.194a3.282 3.282 0 0 0-1.024-2.705 3.915 3.915 0 0 0-3.138 0c-3.913 1.795-6.216 8.691-4.219 12.899zm-51.147-.854c4.009-1.224 7.778-5.371 8.52-9.19.274-1.412.521-2.84-.991-3.718s-2.874-.2-4.009.777a12.036 12.036 0 0 0-4.161 9.917 8.994 8.994 0 0 0 .641 2.214zm-46.169-30.044c-2.773 7.105-5.973 15-8.746 22.107l.61.284c2.751-1.136 5.094-2.711 6.162-5.716 1.795-5.054 2.013-11.354 1.974-16.674z" transform="translate(2230.021 1362.254)"/>
</svg>
