<svg xmlns="http://www.w3.org/2000/svg" id="b24_com" width="188.879" height="35.752" viewBox="0 0 188.879 35.752">
    <defs>
        <style>
            .cls-1{fill:#0d0d0d}
        </style>
    </defs>
    <g id="Group">
        <g id="Group_2" transform="translate(116.401 5.776)">
            <g id="Vector">
                <path id="Path_16983" d="M0 29.536h20.381v-4.468H6.866c1.853-7.411 13.188-9.046 13.188-17.329C20.054 3.27 17 0 10.681 0A21.98 21.98 0 0 0 .872 2.4l1.417 4.139a17.811 17.811 0 0 1 7.52-1.962c2.4 0 4.578.981 4.578 3.706C14.5 14.387 1.2 14.823 0 29.536z" class="cls-1" transform="translate(0)"/>
            </g>
        </g>
        <g id="Group_3" transform="translate(166.209 6.43)">
            <g id="Vector_2">
                <path id="Path_16984" d="M11.335 22.67A11.4 11.4 0 0 1 0 11.335 11.4 11.4 0 0 1 11.335 0 11.4 11.4 0 0 1 22.67 11.335 11.4 11.4 0 0 1 11.335 22.67zm0-20.6a9.264 9.264 0 1 0 9.265 9.265 9.256 9.256 0 0 0-9.265-9.264z" class="cls-1" transform="translate(0 0)"/>
            </g>
        </g>
        <g id="Vector_3" transform="translate(176.781 12.098)">
            <path id="Path_16985" d="M7.193 5.667H1.526V0H0v7.193h7.193z" class="cls-1" transform="translate(0 0)"/>
        </g>
        <g id="Group_4">
            <g id="Group_5">
                <g id="Vector_4" transform="translate(0 1.744)">
                    <path id="Path_16986" d="M0 0h9.809C17 0 20.272 4.142 20.272 8.5a7.714 7.714 0 0 1-4.033 6.975v.109a8.057 8.057 0 0 1 6.321 8.065c0 5.231-3.924 9.918-11.771 9.918H0zm9.046 14.06c3.379 0 5.231-1.853 5.231-4.469 0-2.507-1.635-4.469-5.231-4.469H6.212v8.938zm.981 14.5c4.033 0 6.321-1.526 6.321-4.9 0-2.834-2.18-4.578-5.558-4.578H6.212v9.482z" class="cls-1" transform="translate(0 0)"/>
                </g>
                <g id="Vector_5" transform="translate(27.138)">
                    <path id="Path_16987" d="M0 3.706A3.675 3.675 0 0 1 3.706 0 3.7 3.7 0 0 1 7.52 3.706 3.68 3.68 0 0 1 3.706 7.3 3.522 3.522 0 0 1 0 3.706zm.654 7.52h6.1v24.087h-6.1z" class="cls-1" transform="translate(0 0)"/>
                </g>
                <g id="Vector_6" transform="translate(37.71 3.924)">
                    <path id="Path_16988" d="M4.36 25.5V12.1H0V7.3h4.36V1.744L10.463 0v7.3h7.3l-1.526 4.8h-5.774v11.88c0 2.289.763 3.052 2.4 3.052a6.816 6.816 0 0 0 3.706-1.2l1.853 4.142a13.72 13.72 0 0 1-7.084 1.853c-4.363.107-6.978-2.291-6.978-6.327z" class="cls-1" transform="translate(0 0)"/>
                </g>
                <g id="Vector_7" transform="translate(59.29 10.681)">
                    <path id="Path_16989" d="M.109.545h5.122l.654 2.725C8.065 1.09 10.027 0 12.534 0a6.388 6.388 0 0 1 3.379.981L13.733 6.1a5.181 5.181 0 0 0-2.725-.763c-1.635 0-2.943.654-4.9 2.4v17H0V.545z" class="cls-1" transform="translate(0)"/>
                </g>
                <g id="Vector_8" transform="translate(77.601)">
                    <path id="Path_16990" d="M0 3.706A3.675 3.675 0 0 1 3.706 0a3.675 3.675 0 0 1 3.705 3.706A3.68 3.68 0 0 1 3.6 7.3 3.433 3.433 0 0 1 0 3.706zm.654 7.52h6.1v24.087h-6.1z" class="cls-1" transform="translate(0 0)"/>
                </g>
                <g id="Vector_9" transform="translate(87.846 11.226)">
                    <path id="Path_16991" d="M8.828 11.989L.109 0H6.43l5.67 7.847L17.874 0H24.2l-8.832 11.989 8.937 12.1h-6.322l-5.776-8.065-5.886 8.063H0z" class="cls-1" transform="translate(0)"/>
                </g>
            </g>
        </g>
        <g id="Vector_10" transform="translate(137.436 5.776)">
            <path id="Path_16992" d="M18.31 18.092V0H14.5L0 18.855v3.6h13.079v7.193h5.231v-7.196h4.36v-4.36zm-5.231-4.251v4.142H9.591c-1.09 0-3.052.109-3.706.109L13.3 8.065c0 .872-.221 3.488-.221 5.777z" class="cls-1" transform="translate(0)"/>
        </g>
    </g>
</svg>
