<svg xmlns="http://www.w3.org/2000/svg" width="138.045" height="97.054" viewBox="0 0 138.045 97.054">
    <defs>
        <style>
            .cls-2,.cls-3,.cls-4{fill:#0d0d0d}.cls-2,.cls-4{stroke:#fff;stroke-miterlimit:2.613;stroke-width:.138px}.cls-2,.cls-3,.cls-5,.cls-6,.cls-7,.cls-8{fill-rule:evenodd}.cls-5{fill:#fff}.cls-6{fill:#191000}.cls-7{fill:#c3c3c3}.cls-8{fill:#76654c}
        </style>
    </defs>
    <g id="Group_2401" style="mix-blend-mode:luminosity;isolation:isolate">
        <path id="Path_453" d="M251.7 375.507h-5.344v.127h.191c.318 0 .446 0 .573.127.126.064.126.191.126.573v2.481c0 .382 0 .509-.126.573-.127.127-.255.127-.573.127h-.191v.127h5.407v-1.527h-.127a6.741 6.741 0 0 1-.954.954 2.168 2.168 0 0 1-1.4.446h-.509v-1.972h.191a1.109 1.109 0 0 1 .763.255 1.485 1.485 0 0 1 .445.445h.127v-1.59h-.127a1.377 1.377 0 0 1-1.208.763h-.191v-1.781h.7a1.425 1.425 0 0 1 1.082.382 3.87 3.87 0 0 1 1.017 1.017h.127v-1.527z" class="cls-2" transform="translate(-217.662 -356.827)"/>
        <path id="Path_454" d="M251.76 377.034h-.191a3.115 3.115 0 0 0-1.017-1.017 1.346 1.346 0 0 0-1.082-.382h-.636v1.781h.127a1.377 1.377 0 0 0 1.208-.763h.127v1.654h-.127a1.178 1.178 0 0 0-.445-.509 1.109 1.109 0 0 0-.763-.255h-.127v1.972h.508a2.114 2.114 0 0 0 1.337-.446 4.516 4.516 0 0 0 .954-.954h.127v1.527h-5.407v-.127h.191c.318 0 .446 0 .573-.127.126-.064.191-.191.191-.573v-2.481c0-.382-.065-.509-.191-.573-.127-.127-.255-.127-.573-.127h-.191v-.127h5.407v1.527zm-4.517-1.4c.191.127.191.255.191.636v2.608c0 .382 0 .509-.191.637h1.082v-3.881zm2.736 1.463a1.144 1.144 0 0 1-.573.382 1.8 1.8 0 0 1 .573.382v-.761zm1.336 1.59a4.619 4.619 0 0 1-.572.509 1.764 1.764 0 0 1-.573.318h1.145v-.827zm-1.081-3.053a3.226 3.226 0 0 1 1.017.827v-.827z" class="cls-3" transform="translate(-217.662 -356.827)"/>
        <path id="Path_455" d="M258.784 375.413h-.127l-.763.509a3.168 3.168 0 0 0-1.845-.573 2.415 2.415 0 0 0-1.4.382 1.181 1.181 0 0 0-.636 1.081c0 .764.572 1.209 1.845 1.337l1.208.191a8.283 8.283 0 0 1 .827.191c.381.127.572.254.572.508 0 .382-.445.573-1.208.573a3.166 3.166 0 0 1-1.845-.573 3.754 3.754 0 0 1-1.145-1.081h-.127v1.718h.127l.89-.637a3.2 3.2 0 0 0 .445.318 3.711 3.711 0 0 0 1.654.382c1.272 0 1.972-.509 1.972-1.336a1.25 1.25 0 0 0-.573-1.082 4.256 4.256 0 0 0-1.336-.382l-1.146-.19a7.38 7.38 0 0 1-1.018-.191c-.191-.127-.318-.255-.318-.445 0-.382.445-.637 1.146-.637a3.14 3.14 0 0 1 2.671 1.463h.127v-1.527z" class="cls-2" transform="translate(-219.151 -356.796)"/>
        <path id="Path_456" d="M258.784 376.939h-.127a3.114 3.114 0 0 0-2.608-1.463c-.7 0-1.209.255-1.209.637 0 .191.127.318.318.445a7.38 7.38 0 0 0 1.018.191l1.146.19a5.414 5.414 0 0 1 1.4.382 1.417 1.417 0 0 1 .573 1.082c0 .826-.764 1.4-2.036 1.4a3.778 3.778 0 0 1-1.654-.445 3.2 3.2 0 0 1-.445-.318l-.827.637h-.191v-1.718h.191a3.482 3.482 0 0 0 1.081 1.081 3.166 3.166 0 0 0 1.845.573c.764 0 1.208-.191 1.208-.573 0-.255-.191-.382-.509-.508-.19-.064-.636-.127-.89-.191l-1.208-.191c-1.208-.128-1.845-.573-1.845-1.337a1.181 1.181 0 0 1 .636-1.081 2.415 2.415 0 0 1 1.4-.382 2.832 2.832 0 0 1 1.845.636l.763-.573h.127v1.527zm-2.862.191a3.363 3.363 0 0 1-1.082-.255.668.668 0 0 1-.318-.572 1.016 1.016 0 0 1 .191-.509 1.147 1.147 0 0 0-.572 1.017 1.1 1.1 0 0 0 .509.891 4.246 4.246 0 0 0 1.336.382l1.017.128a3.83 3.83 0 0 1 1.145.254.589.589 0 0 1 .446.572.692.692 0 0 1-.064.318.992.992 0 0 0 .382-.764c0-.7-.573-1.081-1.717-1.272l-1.272-.191zm-1.022 1.97a2.766 2.766 0 0 1-.636-.572v1.017l.636-.445zm3.118-3.053l.381.382v-.7l-.381.318z" class="cls-3" transform="translate(-219.151 -356.796)"/>
        <path id="Path_457" d="M266.512 375.507h-5.471v1.845h.127a5.576 5.576 0 0 1 .763-1.208 1.3 1.3 0 0 1 .955-.509h.127v3.181c0 .382-.064.509-.191.573-.064.127-.191.127-.573.127h-.191v.127h3.435v-.127h-.193c-.381 0-.508 0-.636-.127-.064-.064-.127-.191-.127-.573v-3.181h.127c.318 0 .508.127.89.445a3.621 3.621 0 0 1 .827 1.272h.127v-1.845z" class="cls-2" transform="translate(-220.517 -356.827)"/>
        <path id="Path_458" d="M266.512 377.352h-.127a3.621 3.621 0 0 0-.827-1.272c-.382-.318-.572-.445-.89-.445h-.127v3.181c0 .382.064.509.191.573.064.127.191.127.572.127h.191v.127h-3.435v-.127h.191c.382 0 .509 0 .636-.127.064-.064.127-.191.127-.573v-3.181h-.127a1.3 1.3 0 0 0-.955.509 3.752 3.752 0 0 0-.7 1.208h-.191v-1.845h5.471v1.845zm-5.28-.954a2.533 2.533 0 0 1 .636-.764h-.636v.764zm2.926 3.117a.822.822 0 0 1-.127-.509v-3.371h-.831v3.308c0 .318-.064.445-.255.573zm1.017-3.881a3.633 3.633 0 0 1 .891.827v-.827z" class="cls-3" transform="translate(-220.517 -356.827)"/>
        <path id="Path_459" d="M270.385 377.894v-2.418h.318c.382 0 .509 0 .636.127.191.191.255.509.255 1.082a1.757 1.757 0 0 1-.127.89.424.424 0 0 1-.445.318h-.636zm-.955-.382c0 .191 0 .254-.064.318a.691.691 0 0 1-.382.063h-.127v.127h2.418c.254-.064.445-.064.636-.127a1.35 1.35 0 0 0 .763-1.208 1.406 1.406 0 0 0-.381-.955 1.874 1.874 0 0 0-.827-.318c-.191 0-.255-.064-.509-.064h-2.1v.127h.127a.688.688 0 0 1 .382.064c.064.064.064.127.064.382v1.59z" class="cls-3" transform="translate(-222.037 -356.796)"/>
        <path id="Path_460" d="M270.385 377.894v-2.418h.318c.382 0 .509 0 .636.127.191.191.255.509.255 1.082a1.757 1.757 0 0 1-.127.89.424.424 0 0 1-.445.318h-.636m-.955-.382c0 .191 0 .254-.064.318a.691.691 0 0 1-.382.063h-.127v.127h2.418c.254-.064.445-.064.636-.127a1.35 1.35 0 0 0 .763-1.208 1.406 1.406 0 0 0-.381-.955 1.874 1.874 0 0 0-.827-.318c-.191 0-.255-.064-.509-.064h-2.1v.127h.127a.688.688 0 0 1 .382.064c.064.064.064.127.064.382v1.59z" class="cls-4" transform="translate(-222.037 -356.796)"/>
        <path id="Path_461" d="M269.431 375.922c0-.255 0-.318-.064-.382a.688.688 0 0 0-.382-.064h-.127v-.127h2.1c.255 0 .382.064.509.064a1.616 1.616 0 0 1 .827.318 1.406 1.406 0 0 1 .381.955 1.35 1.35 0 0 1-.763 1.208 5.469 5.469 0 0 1-.636.127h-2.418v-.127h.127a.691.691 0 0 0 .382-.063c.064-.064.064-.127.064-.318v-1.59zm0-.446a.539.539 0 0 1 .127.382v1.654c0 .254-.064.318-.127.382h.636v-2.418zm1.208 2.418h.445a.4.4 0 0 0 .382-.318 1.684 1.684 0 0 0 .191-.89 1.454 1.454 0 0 0-.318-1.082c-.127-.127-.255-.127-.636-.127h-.318v2.418zm1.082-1.208a2.23 2.23 0 0 1-.191 1.018.875.875 0 0 1-.254.191.738.738 0 0 0 .636-.255 1.3 1.3 0 0 0-.255-2.036.683.683 0 0 0-.382-.127c.318.127.445.509.445 1.209z" class="cls-3" transform="translate(-222.037 -356.796)"/>
        <path id="Path_462" d="M270.883 379.771a.426.426 0 0 0-.445.382.435.435 0 0 0 .445.445.426.426 0 0 0 .382-.445.411.411 0 0 0-.382-.382z" class="cls-2" transform="translate(-222.344 -357.656)"/>
        <path id="Path_463" d="M271.265 380.153a.426.426 0 0 1-.382.445.435.435 0 0 1-.445-.445.426.426 0 0 1 .445-.382.411.411 0 0 1 .382.382zm-.7 0a.3.3 0 0 0 .318.318.486.486 0 0 0 .127-.318.331.331 0 0 0-.127-.255.292.292 0 0 0-.318.255z" class="cls-3" transform="translate(-222.344 -357.656)"/>
        <path id="Path_464" d="M323.126 375.191h-.191a3.315 3.315 0 0 1-.7.509 3.732 3.732 0 0 1-1.463.254h-.191v.127h.509c.382 0 .508.127.508.509v2.162c0 .382-.063.509-.19.573-.127.127-.255.127-.573.127h-.191v.127h3.435v-.127h-.255c-.318 0-.445 0-.572-.127-.127-.064-.127-.191-.127-.573v-3.562z" class="cls-2" transform="translate(-232.092 -356.766)"/>
        <path id="Path_465" d="M323.062 378.753c0 .382.064.509.127.573.127.127.255.127.635.127h.191v.127h-3.435v-.127h.191c.382 0 .509 0 .636-.127.064-.064.127-.191.127-.573v-2.162c0-.382-.127-.509-.509-.509h-.445v-.127h.191a3.623 3.623 0 0 0 1.4-.254 3.95 3.95 0 0 0 .764-.509h.127v3.562zm-.509-3.117a3.25 3.25 0 0 1-1.081.446c.191.064.254.255.254.573v2.226c0 .318-.063.445-.254.573h1.208c-.127-.127-.127-.191-.127-.509v-3.308z" class="cls-3" transform="translate(-232.092 -356.766)"/>
        <path id="Path_466" d="M328.427 376.558a1.582 1.582 0 0 1-.445-.255c-.255-.127-.318-.191-.318-.318a.524.524 0 0 1 .254-.382 2.632 2.632 0 0 1 .89-.127 3.211 3.211 0 0 1 1.209.191.749.749 0 0 1 .572.764c0 .381-.191.572-.572.7l-1.591-.572zm1.845.636a.744.744 0 0 0 .637-.763c0-.7-.7-1.082-2.163-1.082a2.632 2.632 0 0 0-1.336.254 1.231 1.231 0 0 0-.764 1.018c0 .445.191.7.7 1.017-.509.191-.763.445-.763.891a1.147 1.147 0 0 0 .763.954 5.093 5.093 0 0 0 3.18 0 1.246 1.246 0 0 0 .7-1.081 1.121 1.121 0 0 0-.382-.827 2.859 2.859 0 0 0-.573-.382zm-.763 1.273c.509.254.7.381.7.636 0 .318-.445.509-1.336.509-1.336 0-1.972-.318-1.972-1.081 0-.446.191-.637.636-.764l1.972.7z" class="cls-3" transform="translate(-233.258 -356.796)"/>
        <path id="Path_467" d="M328.427 376.558a1.582 1.582 0 0 1-.445-.255c-.255-.127-.318-.191-.318-.318a.524.524 0 0 1 .254-.382 2.632 2.632 0 0 1 .89-.127 3.211 3.211 0 0 1 1.209.191.749.749 0 0 1 .572.764c0 .381-.191.572-.572.7l-1.591-.572m1.845.636a.744.744 0 0 0 .637-.763c0-.7-.7-1.082-2.163-1.082a2.632 2.632 0 0 0-1.336.254 1.231 1.231 0 0 0-.764 1.018c0 .445.191.7.7 1.017-.509.191-.763.445-.763.891a1.147 1.147 0 0 0 .763.954 5.093 5.093 0 0 0 3.18 0 1.246 1.246 0 0 0 .7-1.081 1.121 1.121 0 0 0-.382-.827 2.859 2.859 0 0 0-.573-.382m-.763 1.273c.509.254.7.381.7.636 0 .318-.445.509-1.336.509-1.336 0-1.972-.318-1.972-1.081 0-.446.191-.637.636-.764l1.972.7z" class="cls-4" transform="translate(-233.258 -356.796)"/>
        <path id="Path_468" d="M330.829 377.576a1.34 1.34 0 0 1 .318.827 1.246 1.246 0 0 1-.7 1.081 3.313 3.313 0 0 1-1.59.318 4.432 4.432 0 0 1-1.527-.255 1.279 1.279 0 0 1-.827-1.017 1.073 1.073 0 0 1 .764-.891 1.048 1.048 0 0 1-.636-1.017 1.157 1.157 0 0 1 .7-1.018 2.9 2.9 0 0 1 1.4-.254c1.4 0 2.163.382 2.163 1.082 0 .381-.191.636-.7.763.318.191.446.255.636.382zm-2.862-.7c-.509-.127-.7-.381-.7-.7a.686.686 0 0 1 .127-.446 1.105 1.105 0 0 0-.636.891.9.9 0 0 0 .445.763 4.236 4.236 0 0 0 .764.382l1.4.509a4.128 4.128 0 0 1 .764.381.58.58 0 0 1 .191.445.349.349 0 0 1-.128.318c.382-.255.573-.445.573-.827 0-.444-.318-.763-1.145-1.081l-1.654-.636zm-.509.891a.749.749 0 0 0-.573.764c0 .763.636 1.081 1.909 1.081.891 0 1.4-.191 1.4-.509 0-.255-.19-.382-.763-.636l-1.972-.7zm2.481-.636c.445-.127.572-.318.572-.7a.748.748 0 0 0-.572-.764 2.992 2.992 0 0 0-1.146-.127 2.887 2.887 0 0 0-.89.064.4.4 0 0 0-.255.382c0 .127.064.191.255.318a1.281 1.281 0 0 0 .508.255l1.527.572z" class="cls-3" transform="translate(-233.243 -356.796)"/>
        <path id="Path_469" d="M335.442 378.324h-1.972l1.972-1.717v1.717zm2.545 0h-1.018v-3.054h-.064l-3.69 3.054v.254h2.226v.191c0 .382 0 .509-.127.573-.126.127-.254.127-.572.127h-.255v.127h3.5v-.127h-.255c-.318 0-.445 0-.572-.127-.128-.064-.191-.191-.191-.573v-.191h1.018v-.254z" class="cls-3" transform="translate(-234.548 -356.781)"/>
        <path id="Path_470" d="M335.442 378.324h-1.972l1.972-1.717v1.717m2.545 0h-1.018v-3.054h-.064l-3.69 3.054v.254h2.226v.191c0 .382 0 .509-.127.573-.126.127-.254.127-.572.127h-.255v.127h3.5v-.127h-.255c-.318 0-.445 0-.572-.127-.128-.064-.191-.191-.191-.573v-.191h1.018v-.254z" class="cls-4" transform="translate(-234.548 -356.781)"/>
        <path id="Path_471" d="M337.971 378.578h-1.018v.191c0 .382 0 .509.127.573.126.127.254.127.572.127h.318v.127h-3.5v-.127h.191c.382 0 .509 0 .572-.127.127-.064.191-.191.191-.573v-.191h-2.29v-.254l3.69-3.054h.127v3.054h1.018v.254zm-2.545-1.971l-2.035 1.717h2.035v-1.717zm.127-.127v2.42c0 .318 0 .446-.191.573h1.209c-.127-.127-.127-.191-.127-.509v-3.18l-.891.7z" class="cls-3" transform="translate(-234.532 -356.781)"/>
        <path id="Path_472" d="M342.918 377.7a1.592 1.592 0 0 1-.89.255.536.536 0 0 1-.445-.255 2.4 2.4 0 0 1-.064-.764v-.7a.92.92 0 0 1 .127-.446.5.5 0 0 1 .509-.318.639.639 0 0 1 .636.382 3.99 3.99 0 0 1 .127 1.017v.827zm0 .318a2.51 2.51 0 0 1-.127 1.145c-.127.318-.382.445-.827.445a1.962 1.962 0 0 1-.636-.064.742.742 0 0 0 .445-.7c0-.381-.318-.635-.764-.635a.654.654 0 0 0-.7.635.964.964 0 0 0 .445.7 3.572 3.572 0 0 0 1.273.191 3.091 3.091 0 0 0 1.781-.445 2.34 2.34 0 0 0 .827-1.718 1.887 1.887 0 0 0-.636-1.527 2.542 2.542 0 0 0-1.909-.7 3.033 3.033 0 0 0-1.4.318 1.414 1.414 0 0 0-.763 1.145c0 .764.827 1.337 1.909 1.337a2.249 2.249 0 0 0 1.081-.255v.127z" class="cls-3" transform="translate(-235.853 -356.796)"/>
        <path id="Path_473" d="M342.918 377.7a1.592 1.592 0 0 1-.89.255.536.536 0 0 1-.445-.255 2.4 2.4 0 0 1-.064-.764v-.7a.92.92 0 0 1 .127-.446.5.5 0 0 1 .509-.318.639.639 0 0 1 .636.382 3.99 3.99 0 0 1 .127 1.017v.827m0 .318a2.51 2.51 0 0 1-.127 1.145c-.127.318-.382.445-.827.445a1.962 1.962 0 0 1-.636-.064.742.742 0 0 0 .445-.7c0-.381-.318-.635-.764-.635a.654.654 0 0 0-.7.635.964.964 0 0 0 .445.7 3.572 3.572 0 0 0 1.273.191 3.091 3.091 0 0 0 1.781-.445 2.34 2.34 0 0 0 .827-1.718 1.887 1.887 0 0 0-.636-1.527 2.542 2.542 0 0 0-1.909-.7 3.033 3.033 0 0 0-1.4.318 1.414 1.414 0 0 0-.763 1.145c0 .764.827 1.337 1.909 1.337a2.249 2.249 0 0 0 1.081-.255v.127z" class="cls-4" transform="translate(-235.853 -356.796)"/>
        <path id="Path_474" d="M342.918 377.894a2.679 2.679 0 0 1-1.145.255c-1.018 0-1.845-.573-1.845-1.337a1.342 1.342 0 0 1 .7-1.145 3.035 3.035 0 0 1 1.4-.318 2.452 2.452 0 0 1 1.909.7 1.937 1.937 0 0 1 .7 1.527 2.113 2.113 0 0 1-.89 1.718 2.76 2.76 0 0 1-1.718.509 2.952 2.952 0 0 1-1.273-.255.964.964 0 0 1-.445-.7.62.62 0 0 1 .7-.635c.445 0 .764.254.764.635a.744.744 0 0 1-.509.7 2.386 2.386 0 0 0 .7.064.807.807 0 0 0 .827-.445 3.978 3.978 0 0 0 .127-1.145v-.127zm-2.163-2.1a1.232 1.232 0 0 0-.636 1.017q0 .859 1.146 1.146a1.814 1.814 0 0 1-.318-1.209 1.738 1.738 0 0 1 .318-1.146 1.215 1.215 0 0 0-.509.191zm.573 3.053c0-.317-.127-.508-.382-.508a.5.5 0 0 0-.509.508c0 .255.127.382.382.573.064 0 .127.064.191.064h.064a.738.738 0 0 0 .255-.636zm1.59-1.972a2.231 2.231 0 0 0-.191-1.017.556.556 0 0 0-.572-.318c-.318 0-.509.064-.573.254a4.053 4.053 0 0 0-.127.446v.7a2.4 2.4 0 0 0 .064.764.426.426 0 0 0 .445.255 1.955 1.955 0 0 0 .954-.255v-.827zm.127-.508v.572a2.386 2.386 0 0 1 .064.7 6.027 6.027 0 0 1-.127 1.4 1.144 1.144 0 0 1-.382.573 1.283 1.283 0 0 0 .955-.7 2 2 0 0 0 .446-1.336 2.448 2.448 0 0 0-.509-1.527 1.477 1.477 0 0 0-.827-.509 1.665 1.665 0 0 1 .382.827z" class="cls-3" transform="translate(-235.853 -356.796)"/>
        <path id="Path_475" d="M346.049 392.8H213.411a2.744 2.744 0 0 0-2.672 2.735l.636 55.854a2.8 2.8 0 0 0 2.736 2.736h42.559v2.227a.87.87 0 0 0 .89.89h44.658a.91.91 0 0 0 .891-.89v-2.227h42.3a2.744 2.744 0 0 0 2.672-2.736l.7-55.854a2.755 2.755 0 0 0-2.735-2.735z" class="cls-3" transform="translate(-210.739 -360.189)"/>
        <path id="Path_476" d="M344.966 451.53a.682.682 0 0 0 .445-.19.9.9 0 0 0 .128-.382v-.064l.7-53.882a.55.55 0 0 0-.191-.382.578.578 0 0 0-.446-.191h-130.73a.453.453 0 0 0-.381.191.55.55 0 0 0-.191.382l.7 53.882v.064a.9.9 0 0 0 .127.382.577.577 0 0 0 .445.19h129.394zm0 .955H215.572a1.828 1.828 0 0 1-1.145-.445 1.658 1.658 0 0 1-.445-1.081l-.636-53.882v-.064a1.521 1.521 0 0 1 1.527-1.527H345.6a1.83 1.83 0 0 1 1.146.445 1.807 1.807 0 0 1 .445 1.082v.064l-.636 53.882a1.9 1.9 0 0 1-.509 1.081 1.536 1.536 0 0 1-1.081.445z" class="cls-5" transform="translate(-211.246 -360.711)"/>
        <path id="Path_477" d="M316.59 411.33v-.954a4.121 4.121 0 0 0-.763-2.927 1.73 1.73 0 0 0-.955-.573c-.255-.127-.382-.127-.382-.508 0-.318.064-.445.318-.445.509 0 1.082.127 1.718.127.764 0 1.4-.127 1.845-.127.573 0 .7.318 1.018 1.017l4.072 9.288c.127.318.254.509.317.509.127 0 .254-.191.382-.509l4.517-9.923c.127-.191.255-.382.508-.382a10.409 10.409 0 0 0 1.655.191c.89 0 1.527-.191 1.972-.191.254 0 .381.127.381.508 0 .573-.636.191-1.4.7-.636.382-.764 1.082-.764 2.163v.636l.255 7.252c.064 1.717.255 2.735 1.082 3.371.445.255.954.064.954.509 0 .508-.191.573-.7.573-.7 0-1.655-.128-2.927-.128a24.125 24.125 0 0 0-2.544.191c-.318 0-.446-.063-.446-.508s.508-.382.954-.763a1.578 1.578 0 0 0 .573-1.463c0-.318-.064-.636-.064-1.081l-.191-6.362c-.064-.318-.064-.445-.127-.445s-.191.064-.255.255l-4.516 9.8c-.127.318-.191.509-.446.509-.382 0-.445-.255-.573-.573l-3.944-9.67c-.127-.191-.19-.318-.318-.318q-.094 0-.19.573l-.191 6.107v.254a2.866 2.866 0 0 0 .636 2.1 3.023 3.023 0 0 0 1.209.573c.318.064.445.191.445.509 0 .381-.191.508-.573.508-.891 0-1.59-.191-2.1-.191-.954 0-1.59.191-2.036.191-.382 0-.509-.127-.509-.508 0-.509.636-.382 1.018-.763a3.84 3.84 0 0 0 .89-2.8l.191-6.3zm-57.89-1.781a3.027 3.027 0 0 0-.572-2.227 2.688 2.688 0 0 0-1.273-.509c-.127 0-.255-.191-.255-.382a.435.435 0 0 1 .445-.445c.127 0 1.082.127 2.926.127 1.591 0 2.545-.191 2.863-.191a.454.454 0 0 1 .509.445c0 .508-.7.445-1.082.827s-.381.955-.381 1.845v9.288c0 .891 0 1.463.636 1.972.573.446 1.4.255 1.4.891 0 .318-.191.508-.381.508-.445 0-1.464-.254-2.99-.254s-2.544.254-3.053.254a.435.435 0 0 1-.446-.445c0-.573.827-.573 1.272-1.146a4.034 4.034 0 0 0 .382-2.353v-8.207zm46.948-3.5q.1-.382.382-.382c.191 0 .255.127.382.445l5.662 13.168a2.507 2.507 0 0 0 .89 1.209c.573.255.827.255.827.636 0 .445-.255.509-.764.509-.954 0-2.036-.191-3.371-.191a16.726 16.726 0 0 0-2.163.191c-.318 0-.446-.128-.446-.382 0-.445.255-.445.7-.636a1.165 1.165 0 0 0 .7-1.145 2.311 2.311 0 0 0-.127-.7l-.509-1.4c-.318-.827-.573-.891-1.463-.891h-3.054c-.763 0-1.145 0-1.463.764l-.446 1.145a2.032 2.032 0 0 0-.19.891 1.412 1.412 0 0 0 1.018 1.336c.7.255 1.208.127 1.208.636 0 .317-.127.445-.508.445-.509 0-1.4-.191-2.609-.191-.827 0-1.336.128-1.654.128-.382 0-.509-.128-.509-.382 0-.382.191-.445.445-.636a3.392 3.392 0 0 0 1.4-1.781l5.662-12.787zm.445 9.16c.573 0 .764-.064.764-.255a2.185 2.185 0 0 0-.255-.826l-1.4-3.372c-.126-.191-.191-.318-.317-.318-.064 0-.127.127-.255.318l-1.591 3.69a2.646 2.646 0 0 0-.126.445c0 .255.191.318.7.318zm-13.868-5.662a2.762 2.762 0 0 0-.636-2.227 2.482 2.482 0 0 0-1.209-.509c-.127 0-.255-.191-.255-.382a.425.425 0 0 1 .382-.445c.191 0 1.145.127 2.99.127 1.59 0 2.544-.191 2.862-.191a.454.454 0 0 1 .509.445c0 .508-.7.445-1.082.827-.445.382-.445.955-.445 1.845v9.288a2.137 2.137 0 0 0 .7 1.972c.573.446 1.4.255 1.4.891 0 .318-.191.508-.382.508-.446 0-1.464-.254-2.99-.254s-2.608.254-3.053.254a.435.435 0 0 1-.445-.445c0-.573.827-.573 1.272-1.146a4.034 4.034 0 0 0 .382-2.353v-8.207zm-12.723 0a2.758 2.758 0 0 0-.637-2.227 2.476 2.476 0 0 0-1.208-.509c-.127 0-.255-.191-.255-.382a.5.5 0 0 1 .509-.508 23.144 23.144 0 0 0 2.926.191 25.238 25.238 0 0 0 2.8-.191.454.454 0 0 1 .509.445c0 .508-.7.445-1.082.827s-.446.891-.446 1.845v9.224c0 1.591.127 2.036 1.273 2.036a5.434 5.434 0 0 0 4.389-1.845c.509-.572.509-1.145.891-1.145q.382 0 .382.573a4.972 4.972 0 0 1-.573 2.1 2.536 2.536 0 0 1-2.481 1.655c-.89 0-2.544-.191-5.025-.191-1.654 0-2.735.254-3.244.254a.478.478 0 0 1-.446-.445c0-.573.89-.573 1.336-1.146a4.034 4.034 0 0 0 .382-2.353v-8.207zm59.989-1.59a1.972 1.972 0 1 1-1.972-1.972 1.982 1.982 0 0 1 1.972 1.972zm-3.562 0a1.59 1.59 0 1 0 1.59-1.59 1.575 1.575 0 0 0-1.59 1.59zm1.972 1.017l-.127-.318a.933.933 0 0 0-.318-.381c-.064-.127-.127-.127-.318-.127h-.064v.826h-.445v-2.1h1.018a.62.62 0 0 1 .7.636c0 .318-.255.509-.573.573.191.064.255.127.446.508l.254.382zm-.382-1.145a.358.358 0 0 0 .382-.318c0-.191-.191-.255-.445-.255h-.382v.573zm-70.677 1.718a2.759 2.759 0 0 0-.636-2.227 2.479 2.479 0 0 0-1.208-.509c-.127 0-.255-.191-.255-.382a.5.5 0 0 1 .509-.508 24.884 24.884 0 0 0 2.99.191 23.406 23.406 0 0 0 2.736-.191c.381 0 .572.191.572.445 0 .508-.7.445-1.081.827-.446.382-.446.891-.446 1.845v9.224c0 1.591.064 2.036 1.208 2.036a5.66 5.66 0 0 0 4.453-1.845c.446-.572.446-1.145.827-1.145.255 0 .446.191.446.573a5.191 5.191 0 0 1-.636 2.1 2.485 2.485 0 0 1-2.481 1.655c-.827 0-2.544-.191-4.962-.191a32.532 32.532 0 0 0-3.244.254.435.435 0 0 1-.446-.445c0-.573.827-.573 1.272-1.146a4.034 4.034 0 0 0 .382-2.353v-8.207zm-32.7-2.29a3.317 3.317 0 0 0-1.272-1.781c-.509-.382-1.081-.382-1.081-.827a.654.654 0 0 1 .7-.636c.382 0 1.146.191 2.354.191 1.59 0 2.8-.191 3.69-.191.382 0 .509.191.509.573 0 .318-.127.445-.445.572-.509.255-.954.382-.954 1.082a4.789 4.789 0 0 0 .445 1.4l2.99 8.206a.5.5 0 0 0 .318.318c.126 0 .19-.127.254-.318l1.909-5.025a1.259 1.259 0 0 0 .191-.7 2.048 2.048 0 0 0-.064-.509l-.827-2.354a2.429 2.429 0 0 0-1.209-1.781c-.509-.382-1.081-.382-1.081-.827a.716.716 0 0 1 .763-.636 21.785 21.785 0 0 0 2.227.191c1.527 0 2.736-.191 3.626-.191a.506.506 0 0 1 .573.573c0 .318-.191.445-.509.572-.445.255-.89.382-.89 1.082a5.629 5.629 0 0 0 .318 1.4l2.735 8.016c.064.19.127.255.255.255s.191-.065.255-.255l2.608-7.062a6.194 6.194 0 0 0 .318-1.781 1.447 1.447 0 0 0-1.208-1.527c-.636-.191-1.145-.191-1.145-.763 0-.318.191-.509.636-.509a18.769 18.769 0 0 0 2.609.191 12 12 0 0 0 1.845-.191c.318 0 .446.191.446.509 0 .508-.446.635-.7.954a8.948 8.948 0 0 0-1.336 2.545l-4.008 10.56c-.891 2.481-1.209 3.435-1.781 3.435-.318 0-.446-.254-.573-.763l-3.117-9.1a.278.278 0 0 0-.064-.191.2.2 0 0 0-.191.191l-2.609 6.488c-.89 2.29-1.081 3.371-1.845 3.371-.318 0-.381-.254-.572-.763l-5.09-14zm95.169 32.953a3.269 3.269 0 0 1-.127-.7c0-.191.191-.318.445-.318.446 0 .382.7 1.146 1.908a4.621 4.621 0 0 0 3.944 2.545 2.445 2.445 0 0 0 2.736-2.609 2.638 2.638 0 0 0-.509-1.59 6.954 6.954 0 0 0-2.48-1.272c-3.371-1.464-4.9-2.418-4.9-5.344s1.909-4.9 4.453-4.9c1.908 0 2.926.955 3.435.955.445 0 .764-.318.955-.318.254 0 .318.127.318.318.064.191-.064.445-.064.89 0 1.336.318 2.354.318 2.99 0 .382-.064.445-.382.445-.572 0-.445-.7-.89-1.59-.954-1.654-2.227-2.544-3.626-2.544a2.215 2.215 0 0 0-2.418 2.162c0 1.527 1.018 2.036 2.863 2.736a10.127 10.127 0 0 1 3.435 1.781 5.087 5.087 0 0 1 1.463 3.69c0 3.308-1.909 5.344-5.089 5.344a20.608 20.608 0 0 1-3.626-.763c-.509-.065-.636-.127-.764-.827l-.636-2.99zm-2.606-10.11c.827.382-.127 1.59-.382 1.908-.191.191-.509.446-.255.7s.7-.064.7-.064a4.036 4.036 0 0 0 1.909-4.2 1.492 1.492 0 0 0-1.464-1.145 1.388 1.388 0 0 0-1.463 1.4 1.487 1.487 0 0 0 .955 1.4zm-18.83-.509c-.573-.508-1.145-.382-1.145-.827q0-.573.381-.573c.254 0 .955.127 2.1.127.891 0 1.463-.127 1.845-.127a.88.88 0 0 1 .764.445l8.524 9.86a.581.581 0 0 0 .318.191c.191 0 .191-.191.191-.7v-5.537c0-1.59-.064-2.545-.891-2.99-.763-.446-1.781-.127-1.781-.89 0-.254.127-.382.446-.382.445 0 1.209.191 2.354.191 1.272 0 2.036-.191 2.481-.191.381 0 .508.127.508.445 0 .572-.572.446-1.017.763-.7.573-.827 1.527-.891 3.118l-.191 11.259c-.063.7-.127 1.018-.318 1.018-.254 0-.381-.255-.7-.509l-10.37-11.959a.747.747 0 0 0-.383-.323c-.127 0-.127.255-.127.637v6.934c0 1.972 0 3.053 1.145 3.69.827.508 1.463.191 1.463.764 0 .381-.127.572-.445.572-.89 0-1.717-.127-2.48-.127-1.273 0-2.1.127-2.545.127-.254 0-.318-.127-.318-.445 0-.7.509-.445 1.018-.89.763-.7 1.081-1.972 1.081-4.135v-6.807a3.014 3.014 0 0 0-1.017-2.736zm-18.957 7.061a8.938 8.938 0 0 1 1.527-5.153 8.278 8.278 0 0 1 6.871-3.562 7.68 7.68 0 0 1 8.079 8.079 9.015 9.015 0 0 1-1.527 5.026 8.12 8.12 0 0 1-7 3.817c-4.772 0-7.952-3.18-7.952-8.207zm8.651 6.935c2.672 0 4.262-2.1 4.262-5.916a13.018 13.018 0 0 0-1.145-5.407c-.891-2.036-2.227-3.118-3.753-3.118-2.863 0-4.517 2.163-4.517 6.171 0 4.963 2.29 8.27 5.153 8.27zm-21.184-3.372c0-.254-.064-.508-.064-.7s.127-.318.445-.318c.381 0 .381.7 1.081 1.908a4.7 4.7 0 0 0 3.944 2.545c1.781 0 2.8-.955 2.8-2.609a2.329 2.329 0 0 0-.572-1.59 7.2 7.2 0 0 0-2.418-1.272c-3.371-1.464-4.9-2.418-4.9-5.344s1.909-4.9 4.453-4.9c1.909 0 2.863.955 3.371.955s.827-.318 1.018-.318a.3.3 0 0 1 .318.318c0 .191-.064.445-.064.89 0 1.336.255 2.354.255 2.99 0 .382-.064.445-.318.445-.636 0-.446-.7-.955-1.59a4.18 4.18 0 0 0-3.626-2.544 2.2 2.2 0 0 0-2.354 2.162c0 1.527.955 2.036 2.8 2.736a9.911 9.911 0 0 1 3.5 1.781 5.084 5.084 0 0 1 1.463 3.69c0 3.308-1.972 5.344-5.153 5.344a18.88 18.88 0 0 1-3.562-.763c-.573-.065-.7-.127-.827-.827l-.636-2.99zm-21.185-9.038a3.187 3.187 0 0 0-1.145-1.718c-.509-.255-1.018-.255-1.018-.7a.588.588 0 0 1 .636-.573c.382 0 1.081.191 2.163.191 1.527 0 2.671-.191 3.435-.191.382 0 .509.127.509.509 0 .317-.127.382-.446.508-.445.255-.827.382-.827 1.018a4.376 4.376 0 0 0 .382 1.336l2.8 7.57c.063.191.191.318.254.318.127 0 .191-.127.255-.318l1.782-4.643a2.088 2.088 0 0 0 .19-.636 2.586 2.586 0 0 0-.127-.446l-.7-2.227a2.543 2.543 0 0 0-1.146-1.718c-.508-.255-1.017-.255-1.017-.7 0-.318.255-.573.7-.573a19.84 19.84 0 0 0 2.1.191c1.4 0 2.544-.191 3.371-.191.381 0 .508.127.508.509 0 .317-.127.382-.445.508-.445.255-.827.382-.827 1.018a5.439 5.439 0 0 0 .318 1.336l2.48 7.443c.064.127.128.191.255.191s.191-.064.255-.191l2.354-6.552a4.2 4.2 0 0 0 .382-1.717c0-.764-.382-1.146-1.209-1.4-.572-.191-1.017-.191-1.017-.7 0-.255.191-.445.573-.445.19 0 1.017.127 2.417.127a15.6 15.6 0 0 0 1.718-.127c.318 0 .445.127.445.445 0 .446-.445.572-.7.827a13.894 13.894 0 0 0-1.209 2.417l-3.69 9.8c-.89 2.289-1.145 3.18-1.654 3.18-.318 0-.445-.254-.573-.7l-2.862-8.461c-.064-.064-.064-.127-.127-.127s-.127.064-.127.191l-2.418 5.98c-.827 2.163-1.017 3.117-1.718 3.117-.255 0-.381-.254-.572-.7l-4.708-12.976zm-7.888-2.862q.1-.382.382-.382c.191 0 .318.127.445.382l5.916 13.741a2.454 2.454 0 0 0 .89 1.272c.573.254.827.318.827.7 0 .445-.255.508-.827.508-.89 0-2.1-.191-3.435-.191a18.553 18.553 0 0 0-2.29.191c-.318 0-.445-.127-.445-.382 0-.445.255-.445.764-.7a1.3 1.3 0 0 0 .7-1.209 2.7 2.7 0 0 0-.127-.7l-.509-1.463c-.382-.891-.636-.891-1.527-.891H244.9c-.827 0-1.209 0-1.527.764l-.508 1.208a2.127 2.127 0 0 0-.191.955 1.358 1.358 0 0 0 1.017 1.336c.764.254 1.273.127 1.273.7 0 .318-.127.445-.445.445-.573 0-1.527-.191-2.8-.191-.827 0-1.4.127-1.718.127-.381 0-.509-.127-.509-.446s.191-.445.509-.636a3.525 3.525 0 0 0 1.4-1.845l5.916-13.3zm.509 9.542c.509 0 .764-.064.764-.318a2.553 2.553 0 0 0-.255-.827l-1.527-3.5c-.064-.255-.191-.318-.255-.318s-.191.127-.255.318l-1.717 3.817a1.963 1.963 0 0 0-.127.509c0 .255.255.318.7.318zm-20.293-7.443c0-1.273-.127-2.1-.7-2.609a2.635 2.635 0 0 0-1.4-.573.5.5 0 0 1-.318-.508.534.534 0 0 1 .573-.573 22.428 22.428 0 0 0 6.743 0 .582.582 0 0 1 .636.509c0 .636-.827.509-1.272.954-.509.446-.509 1.082-.509 2.163v10.814c0 1.845.064 2.354 1.4 2.354a6.355 6.355 0 0 0 5.153-2.1c.636-.7.636-1.336 1.081-1.336.255 0 .445.255.445.636a5.9 5.9 0 0 1-.7 2.48 3.015 3.015 0 0 1-2.926 1.972c-.955 0-2.927-.255-5.853-.255-1.908 0-3.181.255-3.753.255a.548.548 0 0 1-.509-.509c0-.636.954-.636 1.463-1.336a4.954 4.954 0 0 0 .446-2.8v-9.542z" class="cls-5" transform="translate(-213.533 -362.369)"/>
        <path id="Path_478" d="M271.043 461.975h40.842a1.279 1.279 0 0 1 .508.255.785.785 0 0 1 .255.509v.064l-.064 5.025a.862.862 0 0 1-.446.7c-.064 0-.064.064-.127.064a.235.235 0 0 0-.191.064h-40.65a.861.861 0 0 1-.7-.381.234.234 0 0 1-.064-.191.234.234 0 0 1-.064-.191v-.064l-.064-5.025v-.064a.9.9 0 0 1 .763-.764z" class="cls-5" transform="translate(-222.313 -373.636)"/>
        <path id="Path_479" d="M271.229 462.607h-.064c-.064 0-.127.064-.191.127-.064 0-.064.127-.064.191l.064 5.025v.128a.35.35 0 0 0 .318.191h40.65l.064-.064a.342.342 0 0 0 .19-.255l.064-5.025c0-.128-.064-.191-.127-.191 0-.064-.064-.127-.191-.127h-40.713z" class="cls-5" transform="translate(-222.436 -373.759)"/>
        <path id="Path_480" d="M305.785 467.114c-.064 0-.064 0-.064-.063a.063.063 0 0 1 .064-.064c.191-.064.254-.127.254-.381v-2.1c0-.254-.064-.318-.254-.382-.064 0-.064 0-.064-.064s0-.064.064-.064h1.015a.941.941 0 0 1 .445-.064 3.223 3.223 0 0 1 .827.127 1.456 1.456 0 0 1 .955 1.4 1.982 1.982 0 0 1-.445 1.145 1.646 1.646 0 0 1-1.336.572h-.446a1.791 1.791 0 0 0-.509-.064zm.955-.318a.742.742 0 0 0 .445.127c.636 0 1.081-.508 1.081-1.335s-.445-1.4-1.208-1.4c-.318 0-.382.064-.382.191v1.972a2.232 2.232 0 0 0 .064.445zm-2.99-2.29c0-.254-.065-.318-.255-.382-.126 0-.126 0-.126-.064s.064-.064.126-.064h.764c.064 0 .127 0 .127.064s-.064.064-.127.064c-.191.064-.191.127-.191.382v2.608a.137.137 0 0 1-.127.127c-.064 0-.064 0-.064-.064h-.064l-2.226-2.417v1.845c0 .254.064.381.254.381.127 0 .127 0 .127.064s0 .063-.127.063h-.827c-.064 0-.064 0-.064-.063a.063.063 0 0 1 .064-.064c.191-.064.255-.127.255-.381v-2.227c-.064-.064-.127-.191-.255-.255-.064 0-.064 0-.064-.064s0-.064.064-.064h.636c.126 0 .126 0 .19.064l1.909 2.036v-1.59zm-6.426 2.1c0 .064-.064.127-.064.19a.169.169 0 0 0 .191.191h.127v.064c0 .063 0 .063-.064.063h-.764c-.127 0-.127 0-.127-.063a.063.063 0 0 1 .064-.064h.064a.682.682 0 0 0 .191-.317l1.145-2.545c.064-.191.064-.191.127-.191.127 0 .127 0 .191.127v.255l.955 2.354a.479.479 0 0 0 .127.254.223.223 0 0 0 .127.064.063.063 0 0 1 .064.064c0 .063 0 .063-.064.063h-1.082c-.127 0-.127 0-.127-.063a.063.063 0 0 1 .064-.064.169.169 0 0 0 .191-.191.233.233 0 0 0-.064-.19l-.127-.382h-1.017l-.127.382zm1.018-.636l-.382-.955-.381.955zm-5.535 1.145c-.063 0-.063 0-.063-.063a.063.063 0 0 1 .063-.064c.191-.064.255-.127.255-.381v-2.1c0-.254-.064-.318-.255-.382-.063 0-.063 0-.063-.064s0-.064.063-.064h1.146c.064 0 .064 0 .064.064s0 .064-.064.064c-.191.064-.255.127-.255.382v1.908a1.37 1.37 0 0 0 .064.381c.064.064.255.064.445.064a1.359 1.359 0 0 0 1.082-.508l.064-.064c.064-.064.064-.064.127-.064a.062.062 0 0 1 .064.064v.064l-.127.318-.127.317a.136.136 0 0 1-.127.127h-2.354zm-2.481-.508c0 .254 0 .317.191.381a.218.218 0 0 1 .127.064c0 .063-.063.063-.127.063h-1.081c-.064 0-.127 0-.127-.063 0 0 0-.064.127-.064.127-.064.191-.127.191-.381v-2.29h-.064c-.318 0-.445 0-.573.127a.811.811 0 0 0-.318.445c-.063.064-.063.126-.127.126s-.063-.063-.063-.126v-.382a.7.7 0 0 0 .063-.318c0-.191.065-.191.255-.191h2.417a.169.169 0 0 1 .191.191v.318l.064.317v.065c0 .064 0 .126-.064.126s-.064-.063-.127-.126a.81.81 0 0 0-.318-.445c-.127-.127-.318-.127-.572-.127h-.064v2.29zm-4.771-2.736a1.621 1.621 0 0 1 1.654 1.718 1.6 1.6 0 0 1-1.654 1.654 1.569 1.569 0 0 1-1.654-1.654 1.587 1.587 0 0 1 1.654-1.718zm0 3.117c.573 0 .891-.508.891-1.4s-.318-1.4-.955-1.4c-.509 0-.89.509-.89 1.336 0 .891.381 1.463.954 1.463zm-3.117-.127c0 .064 0 .127-.064.127a1.971 1.971 0 0 1-1.018.255 2.1 2.1 0 0 1-1.336-.445 2 2 0 0 1-.446-1.208 1.737 1.737 0 0 1 .509-1.209 1.584 1.584 0 0 1 1.208-.446 2.022 2.022 0 0 1 .827.127c.127 0 .191 0 .191.064a.223.223 0 0 1 .127.064v.318l.064.317v.065a.062.062 0 0 1-.064.064c-.064 0-.127 0-.127-.128a1.2 1.2 0 0 0-1.018-.7c-.636 0-.954.509-.954 1.336 0 .954.382 1.527 1.081 1.527a.921.921 0 0 0 .446-.127.767.767 0 0 0 .445-.445l.064-.064c0-.064.064-.064.127-.064a.062.062 0 0 1 .064.064v.064l-.064.255c0 .064 0 .19-.064.19zm-6.489-2.036c0-.508.445-.89 1.146-.89a1.257 1.257 0 0 1 .7.127.222.222 0 0 1 .127.064c.064.064.064.127.064.382v.317c0 .065 0 .128-.064.128s-.064-.064-.127-.128c-.191-.445-.446-.636-.763-.636s-.509.127-.509.446c0 .19.127.318.446.445l.508.254a1.011 1.011 0 0 1 .7.955.973.973 0 0 1-1.081.954 1.928 1.928 0 0 1-.764-.19h-.064a.062.062 0 0 0-.064.063c-.064.064-.064.127-.127.127a.222.222 0 0 1-.064-.127c0-.318-.064-.508-.064-.7l-.064-.191a.222.222 0 0 1 .064-.127c.064 0 .064 0 .127.064l.127.255a.636.636 0 0 0 .255.318.976.976 0 0 0 .636.254.5.5 0 0 0 .508-.508c0-.191-.127-.382-.445-.509l-.572-.255a1.025 1.025 0 0 1-.636-.891z" class="cls-3" transform="translate(-223.403 -374.004)"/>
        <path id="Path_481" d="M286.194 373.226a4.717 4.717 0 0 1-1.336.446 7.937 7.937 0 0 0 .763-.509 10.229 10.229 0 0 1-1.845.573c-.445-.064-.89.064-1.209-.127.318 0 .636-.064 1.018-.064a7.21 7.21 0 0 0 3.944-1.908h.127a10.2 10.2 0 0 0 2.99-2.418 1.142 1.142 0 0 1-.318.446 7.988 7.988 0 0 1-2.1 2.036l.064.064a1.6 1.6 0 0 0-.382.89s.127.064.064.064l-.827.064c-.254 0-.572-.064-.7.191-.127.127-.064.255-.064.382v5.981c0 .636.064 1.336.127 1.972 0 .127.064.317.064.508a6.712 6.712 0 0 0 .318 1.209c.063.191.191.445.254.636a9.306 9.306 0 0 0 4.263 3.817 11.013 11.013 0 0 0 1.527.636c2.8-1.145 5.344-2.671 6.107-5.344a4.059 4.059 0 0 1 .127-.446c.064-.318.064-.573.127-.763a3.633 3.633 0 0 0 .064-.827c.064-2.545.064-5.089.064-7.57-.064-.191-.127-.318-.254-.318-.509 0-.954-.064-1.463-.064a1.919 1.919 0 0 0-.318-1.018c0-.064.064-.064.064-.127a9.319 9.319 0 0 1-2.036-1.781 2.088 2.088 0 0 1-.382-.509 12.047 12.047 0 0 0 2.99 2.29c.127-.064.317.191.445.318a8.2 8.2 0 0 0 4.708 1.59 3.043 3.043 0 0 1-1.845 0c-.445-.127-.827-.318-1.209-.445v.064a4.285 4.285 0 0 0 .7.446 10.519 10.519 0 0 1-1.336-.382v.255a4.155 4.155 0 0 0 1.463.382 4.62 4.62 0 0 0 4.39-1.209 1.83 1.83 0 0 0 .191-1.4c-.064-.064-.127-.191-.064-.254a.618.618 0 0 1 .572.254 1.333 1.333 0 0 1 .191.764.8.8 0 0 1-.064.381c.064 0 0 .127.064.127a.687.687 0 0 0 .191-.445c.064-.127.064-.318.127-.382a1.841 1.841 0 0 0-.127-1.146 2.393 2.393 0 0 0-1.972-1.081 3.857 3.857 0 0 0-1.527.382c-.127 0-.064-.064-.127-.127a1.469 1.469 0 0 1 .764-.891c0-.064.064-.064 0-.127a2.373 2.373 0 0 0-2.163.191 2.2 2.2 0 0 0-.509.573 2.31 2.31 0 0 1 .827-1.209 3.8 3.8 0 0 1 3.5-.7 3.313 3.313 0 0 1 2.227 2.354 3.045 3.045 0 0 1 .064 1.527c0 .191-.064.318-.064.573a.852.852 0 0 0-.191.318 3.731 3.731 0 0 1-2.736 2.163 7.176 7.176 0 0 1-4.771-.572c-.064-.064-.127-.191-.255-.191v.254a6.978 6.978 0 0 0 4.707 1.845c.127.063.255 0 .382 0a1.575 1.575 0 0 1-.445.254c-1.846.509-3.054-.827-4.39-1.654-.064-.064-.127 0-.127.064.7.636 1.718 1.082 2.1 1.908a1.806 1.806 0 0 1 .254.827s.064.191 0 .255a1.082 1.082 0 0 1-.254.826c-.127-.064-.127-.255-.127-.381a6.666 6.666 0 0 0-.827-1.464 4.166 4.166 0 0 0-.827-1.017c-.127-.064-.255-.191-.382-.255v.318a5.411 5.411 0 0 1 1.017 1.081 2.626 2.626 0 0 1 .446.7 9.892 9.892 0 0 0-.827-.764 5.5 5.5 0 0 0-.636-.446c-.064 0-.064.127-.064.127l.064.127a3.6 3.6 0 0 1 .954.764c.318.382.764.7.891 1.209a.477.477 0 0 1 .064.318c.064.127.255.064.318.064a.789.789 0 0 1 .381.509 4.607 4.607 0 0 1 .573 1.4.808.808 0 0 0 .064.382 5.415 5.415 0 0 1 0 1.017 2.021 2.021 0 0 1-.127.891 2.623 2.623 0 0 1-.636.827 1.163 1.163 0 0 1-1.018-.191.9.9 0 0 1 .064-.572 1.6 1.6 0 0 1 .254-.445 1.193 1.193 0 0 1 1.018-.255.61.61 0 0 0 .127-.572 1.158 1.158 0 0 0-.254-.7 1.449 1.449 0 0 0-1.272-.318 3.114 3.114 0 0 0 .255-.7 3.454 3.454 0 0 0 0-1.145 1.976 1.976 0 0 0-.382-.827 1.938 1.938 0 0 0-1.145-.827c-.127 0-.191.064-.191.127a2.889 2.889 0 0 1 .255 1.145 1.81 1.81 0 0 1-.255.764 17.573 17.573 0 0 1-.064 2.481 8 8 0 0 1-.573 1.909 3.528 3.528 0 0 0 2.1 1.527 3.275 3.275 0 0 0 2.8-.573 3.361 3.361 0 0 0 1.081-2.1c.064-.064 0-.255 0-.318a13.3 13.3 0 0 0-.064-1.59c.064.064.191.255.382.255a11.45 11.45 0 0 0 .127-1.4 3.725 3.725 0 0 0-.891-2.1.2.2 0 0 1 .064-.127 2.606 2.606 0 0 0 .7-.064 1.732 1.732 0 0 0 1.4-1.209.99.99 0 0 0-.191-.763 1.292 1.292 0 0 0-1.272-.445 2.389 2.389 0 0 1-.064.636c0 .127-.191.191-.382.255a5.965 5.965 0 0 1-3.626-.764c-.127-.127-.382-.191-.446-.318a7.746 7.746 0 0 0 2.991.382 4.525 4.525 0 0 0 3.753-1.972c.064-.191.191-.382.255-.573a3.7 3.7 0 0 0 .254-1.145 3.331 3.331 0 0 0-.191-1.59 2.623 2.623 0 0 0-.254-.636 3.8 3.8 0 0 0-3.881-1.718 3.848 3.848 0 0 0-2.1 1.017 3.661 3.661 0 0 0-1.018 2.037 1.762 1.762 0 0 0 .064.572c0 .127.127.318.127.509a4.616 4.616 0 0 1-2.289-.445c-.064-.127-.318-.127-.318-.318.445-.064.89.064 1.272-.126a1.618 1.618 0 0 0 1.208-1.337 1.658 1.658 0 0 0-.191-.7c-.19-.254-.445-.508-.763-.445a1.322 1.322 0 0 1-.382.636c-.318.382-.954.255-1.4.191a2 2 0 0 1-1.145-.827 4.65 4.65 0 0 0 2.29 0c1.018-.255 1.717-1.018 2.863-.891a1.4 1.4 0 0 1 .763.318.635.635 0 0 0 .255-.318 1.083 1.083 0 0 0-.064-.445 1.482 1.482 0 0 0-1.272-.636c0-.064-.064-.064 0-.127.508-.446 1.018-.827 1.463-1.272.254.063.445.254.7.254.127-.064.191.065.127.065a2.984 2.984 0 0 1-.573 1.4c.127.126.382.064.509.126a2.963 2.963 0 0 0 2.353-1.208.222.222 0 0 1 .064.127.713.713 0 0 0 .445.509c.191-.509.446-.954.636-1.527a4.824 4.824 0 0 0 .191-1.018 1.913 1.913 0 0 0-.955-1.527 2.957 2.957 0 0 0-2.99-.127 2.235 2.235 0 0 1-.509.318 2.023 2.023 0 0 1-.191-.573.935.935 0 0 0-.7-.572c-.064 0-.191-.064-.191.063.127.509.064.446 0 1.146a4.753 4.753 0 0 1-.382.827c-.064.065-.064.255-.127.255a4.135 4.135 0 0 0-.573-1.463c-.191-.064-.191-.318-.382-.255-.191.255-.318.573-.508.827l-.191-.191a3.213 3.213 0 0 0-2.545-1.272h-.064a5.421 5.421 0 0 0 0 1.017 1.929 1.929 0 0 0 .764 1.336 2.575 2.575 0 0 0-.573.318 4.387 4.387 0 0 0-.255.636v.318c.064.191.127.381.318.445a1.151 1.151 0 0 1 .573-.254.952.952 0 0 1 .763.318 2.116 2.116 0 0 1-1.4.19 3.049 3.049 0 0 1-1.145-.381 19.121 19.121 0 0 0-.7-2.037c.127 0 .191.065.318.065a.949.949 0 0 0 .509-.191.69.69 0 0 0 .127-.509.536.536 0 0 0-.446-.446 2.772 2.772 0 0 0-.955-.509c-.064-.126-.064-.254-.127-.381a6.3 6.3 0 0 1 .7-1.082c-.191-.191-.446-.254-.446-.509a3.756 3.756 0 0 1 1.273-.381 3.868 3.868 0 0 0 1.463.191c.382-.255.89-.064 1.272-.318v-.191c-.7-.191-1.336-.382-2.036-.636-.318-.064-.382-.318-.572-.508a18.036 18.036 0 0 0-1.782-1.273c-1.145-.7-2.544-.445-3.562-1.336-.064-.191-.317-.255-.191-.573a4.352 4.352 0 0 0-.064-1.272c-.127-.127-.127-.318-.317-.382a1.55 1.55 0 0 0-1.4 0c-.064.318-.572.191-.763.382-.064.127-.255.191-.191.318a2.711 2.711 0 0 1 .7.127 1.066 1.066 0 0 0-.7.572c.382 0 .7-.126 1.081.127a.476.476 0 0 1 .064.318 14.3 14.3 0 0 0-.127 1.654 1.611 1.611 0 0 0 0 .955c.127.127 0 .445.127.572.191.127.127.509.318.636.318.127.382.382.636.573a5.523 5.523 0 0 0 2.036.7 1.506 1.506 0 0 0 .572.509.661.661 0 0 1-.254.509c-.446.064-.7.445-1.018.508-.445 0-.636.382-1.081.318a1.227 1.227 0 0 0-.891.636c0 .255-.064.382 0 .573.127.191.318.191.509.254-.191.573-.382 1.209-.636 1.782.064.127 0 .19 0 .317a.55.55 0 0 0-.382.191 2.668 2.668 0 0 1-2.1 0 .794.794 0 0 1 .763-.318c.255 0 .382.191.636.191a.384.384 0 0 0 .191-.381.753.753 0 0 0-.064-.637c-.064-.318-.382-.509-.7-.7l.127-.127a1.789 1.789 0 0 0 .573-1.017 3.106 3.106 0 0 0-.064-1.082c.064-.063 0-.126-.064-.126a3.187 3.187 0 0 0-2.609 1.527c-.254-.318-.318-.636-.636-.891a3.1 3.1 0 0 0-.826 1.845 4.247 4.247 0 0 1-.637-1.972c-.064-.064.127-.191.064-.382a.8.8 0 0 0-.382.065c-.381.126-.508.572-.572 1.017 0 .064-.127.064-.191.064a2.846 2.846 0 0 0-2.481-.573 2.1 2.1 0 0 0-1.654 1.4 1.614 1.614 0 0 0-.127.764 6.547 6.547 0 0 0 .827 2.29h.063a1.968 1.968 0 0 0 .445-.573c.064 0 .127.127.191.191a2.7 2.7 0 0 0 2.608.89c-.127-.445-.509-.827-.573-1.336a.231.231 0 0 1 .064-.19c.255.063.509-.128.827-.255a8.186 8.186 0 0 0 1.336 1.209c.064.064.127.064.064.191-.509.064-1.081.191-1.272.7 0 .191-.064.318 0 .446.064.064.064.254.191.254a2.165 2.165 0 0 1 1.972-.191 6.9 6.9 0 0 0 2.8.891 7.155 7.155 0 0 0 1.145-.191v.127a2.616 2.616 0 0 1-1.781.827c-.445.064-.636-.255-.954-.445-.127-.127-.127-.382-.254-.509-.382 0-.509.318-.7.509a1.166 1.166 0 0 0 .191 1.463 2.211 2.211 0 0 0 1.908.635c.064 0 .191 0 .191.064-.064.255-.382.255-.572.382a4.956 4.956 0 0 1-1.972.382 2.391 2.391 0 0 0 .063-1.336c0-.191-.126-.318-.126-.445a3.3 3.3 0 0 0-.382-.827 3.8 3.8 0 0 0-6.553.636 3.232 3.232 0 0 0-.255 1.59c.064.382.191 1.018.318 1.463a3.832 3.832 0 0 0 2.418 2.1 6.606 6.606 0 0 0 3.69.127c.318 0 .636-.191.89-.191l-.19.191a5.147 5.147 0 0 1-4.2.764c-.064-.127-.191-.382-.127-.509.064-.064 0-.127.064-.191a.139.139 0 0 0-.191-.064 1.374 1.374 0 0 0-1.272.764 1.187 1.187 0 0 0 .445 1.208 2.879 2.879 0 0 0 1.655.573c.063.127 0 .127-.064.191a3.222 3.222 0 0 0-.573 1.017.683.683 0 0 0-.127.382 3.093 3.093 0 0 0-.064.763c0 .382.064.764.064 1.146.191.254.318-.191.509-.191a6.148 6.148 0 0 0 0 2.163 2.973 2.973 0 0 0 2.608 2.481 3.46 3.46 0 0 0 3.244-1.527s-.318-.954-.572-1.972a23.143 23.143 0 0 1-.127-2.417 2.681 2.681 0 0 1-.255-1.273c-.064-.317.255-.508.191-.827-.127 0-.255.064-.382.064a3.178 3.178 0 0 0-.763.509 2.428 2.428 0 0 0-.509 2.035 2.359 2.359 0 0 0 .255.891 1.036 1.036 0 0 0-.764.064.915.915 0 0 0-.636.636.9.9 0 0 0-.063.572c0 .127.063.318.19.318.191-.127.382 0 .636 0a1.233 1.233 0 0 1 .7 1.208c-.064.191-.382.318-.7.318-.382 0-.573-.318-.764-.572a3.25 3.25 0 0 1-.381-1.972c0-.191.127-.318 0-.382.127-.509.255-.955.381-1.4.191-.191.255-.509.509-.7.064-.191.255.064.382-.127a1.518 1.518 0 0 1 .318-.89 6.79 6.79 0 0 1 1.59-1.4v-.191s0-.127-.064-.064a8.379 8.379 0 0 0-1.4 1.145 5.272 5.272 0 0 1 1.463-1.717V373.8c-.064.064-.127.064-.191.127a6.927 6.927 0 0 1-4.135.763 3.947 3.947 0 0 1-3.5-2.481 4.574 4.574 0 0 1-.255-1.4c.064-.317.064-.573.127-.827a3.363 3.363 0 0 1 3.067-2.482 3.559 3.559 0 0 1 2.99 1.145 2.053 2.053 0 0 1 .509.891 2.2 2.2 0 0 0-.7-.636 2.118 2.118 0 0 0-2.036-.127v.127a1.693 1.693 0 0 1 .7.636c.064.191.127.318 0 .382a2.8 2.8 0 0 0-1.908-.318 2.126 2.126 0 0 0-1.654 1.208 3.068 3.068 0 0 0 .127 1.527c.064.127.064.191.19.254 0-.191-.063-.445-.063-.572a.986.986 0 0 1 .572-.955c.127 0 .254-.127.254.064-.064.254-.254.573-.127.891a1.837 1.837 0 0 0 .827 1.208c1.336 1.018 3.69.954 5.216.318v-.318zm16.731-4.262c-.127.254-.382.509-.318.827a.528.528 0 0 0 .191.509c.255-.065.382-.255.573-.318a2.47 2.47 0 0 1 2.417.191.893.893 0 0 1 .382.763V371a1.412 1.412 0 0 0-1.018-.191l-.191.127c.064.127.191.318.254.445a1.422 1.422 0 0 1-.254 1.336c-.764.955-2.354.636-3.5.445a1.634 1.634 0 0 1-.764-.318v-.064a1.429 1.429 0 0 0 .891-.382 2.471 2.471 0 0 0 2.48-.064c.191-.19.509-.318.509-.636 0-.064.064-.127.064-.191-.064-.064-.064-.127-.191-.191-.317.064-.635.318-1.018.191a.661.661 0 0 0 .382-.509c-.064 0 0-.127-.064-.191-.127-.064-.382.064-.509 0a1.156 1.156 0 0 1-.955-.89 1.528 1.528 0 0 1 .382-.955c.064-.064.255-.191.255 0zm-19.721.445c.19.127.127.446.127.7a2 2 0 0 1-.573.7 3.1 3.1 0 0 1-.764.064c-.064.064-.127.064-.127.191l.064.127a.743.743 0 0 0 .382.382c-.382.127-.763-.191-1.145-.127-.127 0-.064.191-.064.318a1.818 1.818 0 0 0 1.59 1.018 3.532 3.532 0 0 0 1.463-.318 1.665 1.665 0 0 0 .827.382c0 .127-.191.191-.318.191a5.971 5.971 0 0 1-2.99.318 2.206 2.206 0 0 1-.954-.7 1.407 1.407 0 0 1-.191-1.336.542.542 0 0 0 .191-.318 1.042 1.042 0 0 0-.764-.127 1.345 1.345 0 0 1-.445.191c-.063-.509.382-.827.764-1.018a2.289 2.289 0 0 1 2.036 0c.191.064.318.255.509.317.191 0 .191-.127.255-.19a1.446 1.446 0 0 0-.318-1.146c-.064-.064 0-.064 0-.127a.712.712 0 0 1 .445.509zm11.069-9.415a2.285 2.285 0 0 1-.255.7c-.127.064-.255.254-.446.254 0-.126-.064-.19-.064-.254l.573-.764c.064-.064.255 0 .191.064zm2.227 12.787a.737.737 0 0 0-.255-.636 1.228 1.228 0 0 0-.955.064 1.856 1.856 0 0 0-.636.572c.064 0 0-.064.064 0zm-7.38 0h1.909c-.381-.382-.827-.827-1.463-.636-.381.064-.381.381-.445.636z" class="cls-6" transform="translate(-223.787 -352.32)"/>
        <path id="Path_482" d="M304.793 394.663c0 .191-.064.318-.064.508a9.806 9.806 0 0 0-.509 1.209 1.493 1.493 0 0 1-1.145 1.463c-1.655.191-3.118-.573-4.772-.382-1.718.127-3.244 1.018-5.025.764-1.654-.254-3.181-1.017-4.962-.7-1.145.127-2.417.573-3.626.255a1.231 1.231 0 0 1-.763-.826c-.191-.255-.127-.7-.318-.955-.127-.446-.636-.954-.254-1.527a2.634 2.634 0 0 1 2.1-.509 1.171 1.171 0 0 1 .763.318 7.919 7.919 0 0 1-.254 1.018 21.712 21.712 0 0 1 3.562-.382 4.355 4.355 0 0 1 2.036.445l.317.127a.062.062 0 0 1-.063.064 9.477 9.477 0 0 0-3.309-.382c-1.018.191-2.1.318-3.117.445a3.77 3.77 0 0 1-1.718-.191c.064.318.254.509.318.827.127.509.255 1.145.954 1.336a7.347 7.347 0 0 0 2.609-.318 7.267 7.267 0 0 1 3.308.064c1.463.318 2.862.891 4.39.509a11.01 11.01 0 0 1 4.58-.7c.955.127 1.845.382 2.863.445.445-.064.954-.191 1.081-.635a11.7 11.7 0 0 1 .573-1.591 4.955 4.955 0 0 1-1.336.254c-1.209-.064-2.418-.317-3.627-.445a9.836 9.836 0 0 0-3.308.382v-.064a3.368 3.368 0 0 0 .636-.381 6.805 6.805 0 0 1 2.545-.191c.89.127 1.845.191 2.735.317a2.7 2.7 0 0 0-.255-.763c-.064-.382.318-.382.573-.509.827-.191 1.972-.127 2.418.573l.064.127z" class="cls-6" transform="translate(-224.828 -360.397)"/>
        <path id="Path_483" d="M296.188 395.863a9.839 9.839 0 0 1 3.308-.382c1.209.128 2.418.382 3.627.445a4.956 4.956 0 0 0 1.336-.254 11.722 11.722 0 0 0-.573 1.591c-.127.445-.636.572-1.081.636-1.018-.064-1.908-.318-2.863-.445a11.01 11.01 0 0 0-4.58.7c-1.527.382-2.927-.191-4.39-.509a7.268 7.268 0 0 0-3.308-.064 7.344 7.344 0 0 1-2.609.318c-.7-.191-.826-.826-.954-1.336-.064-.318-.255-.509-.318-.827a3.771 3.771 0 0 0 1.717.191c1.017-.127 2.1-.254 3.117-.445a9.479 9.479 0 0 1 3.309.382c.763.254 2.162.636 2.162.636l2.1-.636z" class="cls-7" transform="translate(-224.938 -360.707)"/>
        <path id="Path_484" d="M308.973 394.72c.127.127 0 .255-.064.382a2.743 2.743 0 0 1-.764.255 2.025 2.025 0 0 1 .191-.573c0-.064-.064-.064-.064-.127a3.075 3.075 0 0 1-1.081 0 1.761 1.761 0 0 1 .572-.064c.064 0 .064-.064 0-.064-.255-.127-.508 0-.763.064h-.191a1.413 1.413 0 0 1 1.017-.191.062.062 0 0 0 .064-.064c-.191-.127-.508-.064-.7-.064a4.061 4.061 0 0 0-.445.127c-.064 0-.064.064-.064.127v-.191a2.653 2.653 0 0 1 1.718-.064c.255.127.509.255.573.446z" class="cls-7" transform="translate(-229.39 -360.454)"/>
        <path id="Path_485" d="M285.915 394.477c0 .064 0 .064-.064.127.064 0 0-.191 0-.191a2.757 2.757 0 0 0-1.018-.064c-.064 0-.127.064-.064.064a1.832 1.832 0 0 1 1.018.191s-.127.127-.191.064c0-.064-.127-.064-.127-.127a.9.9 0 0 0-.7.064c.191.064.446.064.7.127a6.882 6.882 0 0 1-1.145 0c0 .255.127.508.127.7-.318-.063-.827-.191-.827-.508.064-.382.446-.445.764-.636a2.589 2.589 0 0 1 1.4.064l.127.127z" class="cls-7" transform="translate(-224.908 -360.465)"/>
        <path id="Path_486" d="M308.019 395.045c0 .191-.127.317-.127.508a5.2 5.2 0 0 1-1.017-.063v-.065a.281.281 0 0 0 .318 0v-.064c-.127-.063-.255-.19-.382-.063a.919.919 0 0 1-.127-.445 2.375 2.375 0 0 0 1.336.191z" class="cls-7" transform="translate(-229.39 -360.588)"/>
        <path id="Path_487" d="M286.145 394.933a1.171 1.171 0 0 1-.127.445c-.127-.126-.254 0-.382.064-.064 0 0 .065.064.065.127.063.191 0 .318-.065 0 .127-.064.065 0 .127a5.42 5.42 0 0 1-1.018 0 3.1 3.1 0 0 1-.191-.445c.127-.064.318.064.509 0a1.763 1.763 0 0 0 .827-.191z" class="cls-7" transform="translate(-225.138 -360.603)"/>
        <path id="Path_488" d="M307.661 395.218v.064a1.762 1.762 0 0 1-.827-.064c0-.064-.064-.127 0-.127a3.222 3.222 0 0 0 .827.127z" class="cls-6" transform="translate(-229.414 -360.634)"/>
        <path id="Path_489" d="M286.11 395.17c0 .127-.064.127-.127.127-.191 0-.509.127-.7 0a3.226 3.226 0 0 0 .827-.127z" class="cls-6" transform="translate(-225.23 -360.649)"/>
        <path id="Path_490" d="M308.745 396.038c-.064 0 0 .064 0 .127a2.166 2.166 0 0 1-1.272 0l.064-.064a2.636 2.636 0 0 0 1.208-.064z" class="cls-6" transform="translate(-229.543 -360.818)"/>
        <path id="Path_491" d="M288.705 396.038a3.714 3.714 0 0 0-.255 1.146c-.191-.064-.255-.318-.382-.445l-.191.573c-.255-.318-.382-.764-.7-.955v-.064l.382-.064c.064.064 0 .127 0 .255.127.127.191.318.318.445.064-.064.064-.255.127-.318-.064-.127-.127-.318-.318-.382a1.085 1.085 0 0 1 .446-.064c.064.064-.127.127 0 .191a1.026 1.026 0 0 0 .255.445c.064-.127.064-.318.127-.445-.064-.064-.064-.191-.191-.191.064-.127.191-.064.255-.127z" class="cls-6" transform="translate(-225.598 -360.818)"/>
        <path id="Path_492" d="M302.356 396.1c0 .064.064.191 0 .255-.064 0-.064-.191-.254-.191-.064-.064-.127 0-.191.064 0 .318.445.191.509.446 0 .127.064.255-.064.318a.481.481 0 0 1-.509.064 2.752 2.752 0 0 0-.064-.318c.127.064.127.254.318.254.064.064.127 0 .191-.064.064-.382-.636-.255-.509-.7.064-.064.127-.191.255-.191s.191.064.318.064z" class="cls-6" transform="translate(-228.434 -360.818)"/>
        <path id="Path_493" d="M285.375 396.181a.062.062 0 0 1-.064.063 1.758 1.758 0 0 1-1.145 0c-.064-.063-.064-.127 0-.127a3.766 3.766 0 0 0 1.208.064z" class="cls-6" transform="translate(-225.004 -360.834)"/>
        <path id="Path_494" d="M301.054 396.189c-.191.318-.127.636-.255 1.018h-.063a2.764 2.764 0 0 0-.255-.445c0 .255-.127.382-.127.509h-.064c-.191-.254-.318-.573-.509-.827-.064.064-.064 0-.127 0v-.063a.807.807 0 0 1 .382-.064c.064.064-.064.191 0 .254.127.128.127.255.255.382.064-.064.064-.191.127-.318-.064-.127-.064-.254-.255-.318.064 0 .255-.127.382-.064-.127.255.127.382.254.573a1.581 1.581 0 0 1 .064-.509c0-.064-.19 0-.126-.127.126 0 .19-.064.317 0z" class="cls-6" transform="translate(-228.024 -360.842)"/>
        <path id="Path_495" d="M289.756 396.2c.064.064-.064.064-.064.064a2.584 2.584 0 0 0 0 .7c.064.063.127.127.191.127-.064.127-.318.064-.445.064 0-.064.127-.127.063-.254v-.573l-.19-.127z" class="cls-6" transform="translate(-226.013 -360.849)"/>
        <path id="Path_496" d="M290.624 396.189c0 .127-.127.064-.127.127a2.583 2.583 0 0 0 0 .7c.191.064.318-.064.446-.127 0 .127 0 .191-.064.191-.191.127-.445 0-.7.064 0-.127.064-.127.127-.127a2.578 2.578 0 0 0 0-.7c0-.064-.064-.064-.127-.127.191 0 .318-.064.445 0z" class="cls-6" transform="translate(-226.182 -360.842)"/>
        <path id="Path_497" d="M304.838 396.26c.127.255.255.446.382.7a1.52 1.52 0 0 0 .127-.509c-.064-.064-.127-.064-.127-.127.127-.064.19 0 .317.064.064.064-.127 0-.127.191a2.672 2.672 0 0 1-.127.7h-.063a5.313 5.313 0 0 0-.509-.764c-.064 0 0 .127 0 .191-.127.127-.064.382 0 .509a2.761 2.761 0 0 1-.318-.064.485.485 0 0 0 .127-.318c.064-.127.064-.318.127-.509 0-.064-.191-.064-.127-.127a.477.477 0 0 1 .318.064z" class="cls-6" transform="translate(-228.945 -360.849)"/>
        <path id="Path_498" d="M291.872 396.26c-.063.064-.191.064-.191.191a1.419 1.419 0 0 1-.063.509c0 .127.063.191.127.191.191 0 .255-.127.382-.127.064.064-.064.064-.064.191-.254.127-.509-.064-.7 0a1.748 1.748 0 0 0 .127-.827c.063 0 0-.064 0-.064l-.064-.064v-.06c.126.064.317 0 .445.064z" class="cls-6" transform="translate(-226.412 -360.849)"/>
        <path id="Path_499" d="M303.913 396.293c0 .127.064.255.064.382a.882.882 0 0 1-.509.445.917.917 0 0 1-.445-.127c-.064-.191-.191-.382-.064-.573 0-.191.191-.318.381-.382a.806.806 0 0 1 .573.255zm-.509-.127c-.064 0-.191 0-.191.127-.126.064-.063.382-.063.509.063.064.126.191.254.191a.33.33 0 0 0 .254-.127c.127-.064.064-.382.064-.509a.35.35 0 0 0-.318-.191z" class="cls-6" transform="translate(-228.655 -360.818)"/>
        <path id="Path_500" d="M292.978 396.422a.062.062 0 0 1 .064.064c-.064.064-.191.064-.191.127a2.389 2.389 0 0 0-.064.7c.064 0 .127 0 .064.064a.421.421 0 0 1-.382-.064c0-.064.127-.064.127-.191 0-.191.127-.446.064-.637l-.064-.064c.064-.127.255.064.382 0z" class="cls-6" transform="translate(-226.627 -360.884)"/>
        <path id="Path_501" d="M308.618 396.433c.064.127-.064.127-.127.191a1.814 1.814 0 0 1-1.018-.064 3.713 3.713 0 0 0 1.145-.127z" class="cls-6" transform="translate(-229.543 -360.895)"/>
        <path id="Path_502" d="M285.41 396.576h.064a.888.888 0 0 1-.573.191c-.191-.064-.381-.064-.572-.127 0-.064-.064-.064 0-.127a3.1 3.1 0 0 0 1.081.064z" class="cls-6" transform="translate(-225.039 -360.91)"/>
        <path id="Path_503" d="M297.488 396.828c.064.127-.127.064-.064.127.064.255.064.573.127.827 0 .063.191 0 .255 0 .064-.064.064-.127.127-.255.127 0 .064.127.064.19-.127.255-.509.191-.764.191 0-.064.127-.064.064-.191-.064-.254 0-.572-.191-.763-.064 0-.127 0-.064-.127.127.064.318 0 .445 0z" class="cls-6" transform="translate(-227.511 -360.972)"/>
        <path id="Path_504" d="M308.444 396.892c-.064.191-.446.127-.636.127a.853.853 0 0 1-.572-.127 3.565 3.565 0 0 0 1.145-.064.062.062 0 0 1 .064.064z" class="cls-6" transform="translate(-229.497 -360.972)"/>
        <path id="Path_505" d="M295.125 397.027a2.031 2.031 0 0 0 .191.573l.382-.573c.127 0 .254-.064.254 0 0 .127-.126.064-.126.127a3.013 3.013 0 0 0 0 .763l.064.064c-.064.064-.255-.064-.382 0-.064-.127.064-.064.064-.127 0-.19.064-.254.064-.445-.191.127-.255.382-.382.508l-.064-.064-.191-.572a.234.234 0 0 0-.064.191c0 .064-.064.191 0 .318 0 .063.127 0 .064.063-.064 0-.255.064-.318-.063a.221.221 0 0 0 .127-.064c-.064-.318.191-.572 0-.827 0-.064.127 0 .255 0l.064.127z" class="cls-6" transform="translate(-227.057 -360.98)"/>
        <path id="Path_506" d="M285.623 396.907v.064a1.4 1.4 0 0 1-1.145.064c-.064 0-.064-.064-.064-.127a3.844 3.844 0 0 0 1.208 0z" class="cls-6" transform="translate(-225.061 -360.987)"/>
        <path id="Path_507" d="M294.007 397.1c.064.191 0 .445.127.636-.127-.064-.255-.064-.381-.127 0-.064.126-.064.126-.127 0-.191-.191-.191-.317-.254-.064.064-.191.127-.127.254.064 0 .064 0 .064.064-.127.064-.191-.064-.318-.064a5.385 5.385 0 0 0 .7-.891c.127.127.064.382.127.509zm-.254-.191c-.065.127-.127.127-.127.191a.232.232 0 0 0 .19.064c0-.127-.063-.127-.063-.255z" class="cls-6" transform="translate(-226.765 -360.926)"/>
        <path id="Path_508" d="M298.867 396.655c.191.254.382.445.573.7l.127.064c-.064.127-.255.064-.382.127 0-.064.064-.127 0-.254-.127-.127-.255 0-.382.064-.063 0 0 .127-.063.191.063.064.19 0 .19.127-.127-.063-.255.064-.381 0a2.969 2.969 0 0 0 .254-1.081l.064.064zm0 .318c0 .064-.064.191 0 .191 0 0 .127.064.127 0-.064-.064-.064-.191-.127-.191z" class="cls-6" transform="translate(-227.809 -360.926)"/>
        <path id="Path_509" d="M308.286 397.414a1.578 1.578 0 0 1-1.208-.064 1.837 1.837 0 0 0 1.145-.127c.127 0 .064.127.064.191z" class="cls-6" transform="translate(-229.467 -361.048)"/>
        <path id="Path_510" d="M285.854 397.366v.064c0 .064-.127.064-.255.127a2.421 2.421 0 0 1-.954-.064c0-.064-.064-.127 0-.191a1.94 1.94 0 0 0 1.208.064z" class="cls-6" transform="translate(-225.1 -361.064)"/>
        <path id="Path_511" d="M308.113 397.761a.136.136 0 0 1-.127.126 1.761 1.761 0 0 1-1.145 0 4.738 4.738 0 0 0 1.272-.19v.064z" class="cls-6" transform="translate(-229.421 -361.141)"/>
        <path id="Path_512" d="M286 397.9v.064a2.205 2.205 0 0 1-1.273-.064c.064-.063 0-.063.064-.127a2.629 2.629 0 0 0 1.209.127z" class="cls-6" transform="translate(-225.122 -361.156)"/>
        <path id="Path_513" d="M299.142 381.278h.318v2.29l-.573-.763c-.127-.064-.064-.255-.064-.382a7.672 7.672 0 0 1 0-1.209.574.574 0 0 0 .318.064zm-7.888.637v.763a10.9 10.9 0 0 0-.636.891c-.064-.573 0-1.208-.064-1.781a3.42 3.42 0 0 1 .064-.509 1.134 1.134 0 0 0 .636-.254v.89zm-.89-.637v2.609c-.064.064-.127.191-.191.255-.191.191-.255.446-.509.636v-3.943a.971.971 0 0 0 .7.445zm8.016-2.036a1.372 1.372 0 0 0-.318 1.209 2.386 2.386 0 0 0 .509.763 6.8 6.8 0 0 0 0 1.146c-.191-.255-.445-.573-.7-.891v-3.244c0-.064-.127-.064-.191-.064v2.99a9 9 0 0 1-.7-.954v-1.972c-.064-.064-.127-.064-.255-.064v1.718a9.629 9.629 0 0 1-.636-.827c-.064-.191.064-.446-.064-.509h-.125c.127-.064.191-.191.318-.191.191-.064.191-.254.318-.318 0 .064.063.064.127.064 1.463 0 2.926-.064 4.453 0 .064 0 .127.064.064.127 0 .89.064 1.845.064 2.736v1.908c-.064 1.018-.064 1.972-.064 2.99-.191-.191-.318-.445-.509-.636-.063-.827 0-1.463-.063-1.972h.063a1.448 1.448 0 0 1-.063-.255q.1-2.385 0-4.771c0-.064-.127-.064-.127-.064-.063 2.227-.063 4.453-.063 6.679a5.828 5.828 0 0 0-.573-.636 1.2 1.2 0 0 1-.127-.509c-.064-.827.064-1.654 0-2.545a1.178 1.178 0 0 0 .573-1.081c-.064-.318-.127-.509-.318-.637a.875.875 0 0 0-.191-.255 4.5 4.5 0 0 1-.064-.954c0-.064-.127-.064-.191 0-.064.255 0 .573-.064.827a.882.882 0 0 0-.573 0 .062.062 0 0 1-.064-.064c.064-.191-.064-.445 0-.7a.137.137 0 0 0-.127-.127l-.127.064v.89c.064-.063-.127.064-.191.127zm-4.962-1.208h-4.453c-.191.127-.064.191-.127.318.064 1.336 0 2.672.064 4.008h-.064a.64.64 0 0 1 .064.191h-.064c0 .827 0 1.654.064 2.48h-.064l.064.255h-.064c.064.191 0 .382.064.509.064 0 .064 0 .064-.064l.064-.064c.191-.318.508-.445.381-.891.064-2.162 0-4.389 0-6.552a.193.193 0 0 1 .255 0v1.145a.878.878 0 0 1 .254-.191c.127-.126.318-.126.382-.19l.064-.764c0-.064.064-.064.127-.064a3.915 3.915 0 0 1 .064.827 1.02 1.02 0 0 1 .7.317v-1.081c.064 0 .191-.064.191 0v1.336a1.171 1.171 0 0 1 .127 1.018c-.127.255-.064.446-.127.636.064.382 0 .764.064 1.146a1.294 1.294 0 0 1 .382-.445 4.348 4.348 0 0 1 .318-.446 12.263 12.263 0 0 0-.064-1.526 14.892 14.892 0 0 0 0-1.718c.127-.064.127 0 .255-.064v2.99a8.436 8.436 0 0 0 .7-.89v-2.1c.063 0 .254 0 .19.127 0 .573.064 1.145.064 1.59.127-.127.509-.764.7-.954v-.382c-.191-.127-.382-.318-.636-.509zm6.616 11.324c-.064.127-.191.254-.255.382v-.7a1.383 1.383 0 0 1 .255.318zm-.955-1.208c.064 0 .064.127.127.127.064.064.064.127.127.191h.064c0 .063 0 .19.127.19-.064.573.064.827 0 1.336-.255.191-.445.446-.7.636.064-.89 0-1.845 0-2.862.064.127.255.191.255.382zM298 386.686a9.538 9.538 0 0 0 .636.827h-.064c0 .955 0 1.845.064 2.8-.128.255.063.573-.191.7a3.54 3.54 0 0 1-.509.318c-.064-1.59 0-3.18 0-4.708.064 0 0 .064.064.064zm-.827-1.146c0 .191.191.255.255.446.382.127.191.7.255 1.081a3.065 3.065 0 0 0 0 .764v3.69a5.614 5.614 0 0 1-.636.382c-.064-2.163-.064-4.326-.064-6.553.064.064.064.191.191.191zm-1.018-1.336a6.51 6.51 0 0 0 .572.827c0 2.354.064 4.644.064 7-.254.126-.445.191-.7.318v-4.325c-.127-.191.127-.318.127-.573a.984.984 0 0 0-.127-.763c-.064-1.018-.064-1.4-.064-2.608.064.064.064.127.127.127zm-.318 4.453c0 1.273.064 2.545 0 3.817-.191.127-.446.127-.636.255-.064-1.463 0-2.926 0-4.389.064 0 .127.063.191 0a1.747 1.747 0 0 0 .446-.255 1.725 1.725 0 0 0 0 .572zm-.382-5.407c.064.191.318.318.382.573-.064.826 0 1.781-.064 2.481a.873.873 0 0 0-.636-.318v-3.118c.127.127.191.255.318.382zm-.509-.064v2.8a2.358 2.358 0 0 0-.7.318v-2.354c-.127-.191.127-.318.191-.509.19-.127.255-.382.445-.573.063.191 0 .127.063.318zm-.445 4.963c.191.064.255.191.445.191v4.389c-.19.064-.254-.191-.508-.127l-.191-.127c0-1.463.064-2.989 0-4.452a.483.483 0 0 1 .255.127zm-.509-4.071c0 1.781 0 3.562.064 5.28v1.145c-.064.573 0 1.209-.064 1.845a1.215 1.215 0 0 0-.509-.191c0-.126-.191-.064-.127-.19.064-2.354-.064-4.644-.064-7a4.777 4.777 0 0 0 .7-.89zm-.89 1.272c0 .764-.065 1.527 0 2.227.063 1.463 0 2.863 0 4.326-.191-.127-.318-.191-.509-.318v.064c0-.127-.318-.127-.127-.382.064-1.654-.127-3.308-.064-5.025.255-.318.382-.637.636-.891zm-.955 1.463c0 1.464.127 2.99 0 4.517-.191-.064-.191-.255-.382-.318-.064-.064-.318-.127-.255-.318v-2.417c.064-.318-.127-.7.127-1.018a4.9 4.9 0 0 0 .509-.7v.254zm-.827 3.5c-.064.064 0 .255-.064.318-.191-.127-.317-.381-.508-.445 0-.191-.191-.191-.127-.382v-1.146c.191-.317.445-.572.636-.89.064.954.064 1.908.064 2.544zm-.955-.763v.127a1.331 1.331 0 0 1-.255-.382c.127-.064.127-.191.255-.318v.573z" class="cls-7" transform="translate(-225.921 -357.318)"/>
        <path id="Path_514" d="M291.779 353.9a.223.223 0 0 1-.128-.063c-.127.126-.317.063-.445.126.127-.191.382-.191.508-.254l.191.19z" class="cls-5" transform="translate(-226.381 -352.59)"/>
        <path id="Path_515" d="M292.043 353.673c.064.064.127.128.255 0 .064-.063-.191-.127-.127-.254.127-.064.064-.255.127-.318.191 0 0 .318.255.255a.231.231 0 0 0 .064.19c.127 0 .127-.063.127-.126.064-.127 0-.255.127-.318.064-.191 0-.255-.064-.446-.064-.064-.191 0-.127.064 0 .064.064.127.064.254-.064.064-.127.127-.191.064a.686.686 0 0 0-.509-.127c-.064 0-.064-.064-.064-.127a.661.661 0 0 1 .509-.255c.318.064.764.127.827.445a.394.394 0 0 1 .064.446c0 .126-.127.191-.254.317-.064 0-.191 0-.191.127.127.064.318-.063.445-.063 0 .254-.318.318-.445.445.127.191.445-.191.445.127a.672.672 0 0 1-.445.382h-.191c-.064 0 0 .127.064.127a.707.707 0 0 0 .7-.255c.063.064.063.127.063.255-.127.127-.317.255-.445.382-.064.127.127 0 .191.063.317 0 .382-.572.572-.19.064 0 .064 0 .064.064a1.014 1.014 0 0 1-.636.508.137.137 0 0 0 .127.127 1.126 1.126 0 0 0 .7-.445c.191-.127.318.063.509.126 0 .127-.191.127-.255.191s-.318-.191-.255.064c.127.064.318.064.382.318a1.2 1.2 0 0 1-.509-.127c-.064 0-.064-.127-.191-.127-.127.064-.064.127-.064.254-.318.127-.572-.191-.763-.382-.191.064-.255.255-.445.318a1.084 1.084 0 0 1-.446-.064 9.436 9.436 0 0 1 .191-1.208c0-.318.064-.573-.127-.827l-.254-.255z" class="cls-7" transform="translate(-226.519 -352.36)"/>
        <path id="Path_516" d="M291.875 353.259a.234.234 0 0 0-.064.191.873.873 0 0 0-.763-.254c0-.064.127-.064.191-.127.191-.064.572-.127.636.191z" class="cls-5" transform="translate(-226.351 -352.455)"/>
        <path id="Path_517" d="M295.495 356.493c.063.127 0 .127-.064.191-.127.064-.382 0-.445.191.127.127.445.255.509.509a.9.9 0 0 1-.573-.064c-.127-.064-.127.064-.127.064v.064c.191.127.509.191.509.509a1.753 1.753 0 0 1-1.273-.318c-.064.127.064.191.064.255a1.582 1.582 0 0 1-.254.572c-.064.191-.255.255-.509.382a.6.6 0 0 1-.573-.064c0-.064-.191-.127-.064-.255a1.409 1.409 0 0 0 1.146-.89 2.789 2.789 0 0 0 .063-.318c.255.064.509.255.827.127 0-.255-.064-.255-.064-.446 0-.064.191.064.191-.127.064-.064-.127-.191-.064-.318.127-.064.255-.191.191-.318a.569.569 0 0 1 .509.254z" class="cls-7" transform="translate(-226.662 -353.081)"/>
        <path id="Path_518" d="M296.595 356.873c-.064.127-.382-.064-.255.127.064.064.127.191.191.255-.254.064-.381-.127-.509-.255.128-.064.318-.127.382-.255v-.191c.127.064.255.127.191.318z" class="cls-5" transform="translate(-227.317 -353.143)"/>
        <path id="Path_519" d="M297.209 356.873q0 .1-.191.191h-.127a.483.483 0 0 0 .127-.255c0-.064-.127-.127-.127-.255a.523.523 0 0 1 .318.318z" class="cls-5" transform="translate(-227.486 -353.143)"/>
        <path id="Path_520" d="M297.811 357.047c.064.191-.255.255-.318.446l-.127-.191c.064-.127.191-.191.191-.382-.064-.064-.127-.064-.127-.127a.585.585 0 0 1 .382.255z" class="cls-8" transform="translate(-227.579 -353.189)"/>
        <path id="Path_521" d="M293.029 356.919a.546.546 0 0 1-.445.382c-.127.064-.318 0-.509 0v-.255c.318 0 .636 0 .764-.255.127 0 .191.064.191.127z" class="cls-5" transform="translate(-226.55 -353.189)"/>
        <path id="Path_522" d="M294.794 357.345c-.064.064-.254-.064-.382-.064-.064-.064-.127-.127-.127-.191.127-.191.318.064.445.064.064 0 .064.127.064.191z" class="cls-5" transform="translate(-226.98 -353.233)"/>
        <path id="Path_523" d="M298.323 357.411c.064.127-.064.127-.126.127 0 0-.127 0-.127.064 0 .127.19.191.127.382 0 .127-.255 0-.255.19a1.067 1.067 0 0 0 .445.065 2.594 2.594 0 0 0 1.4.126c.127.064.318.127.318.255a4.9 4.9 0 0 1-2.545-.381 1.824 1.824 0 0 1-.827 0 .423.423 0 0 0 .318-.255c.127-.064.382-.064.446-.191 0-.127-.064-.191-.064-.255.064 0 .255.064.255.127s.127.127.064.191c-.064.127-.255 0-.318.127v.064c.191.064.382.126.509 0 .064 0 .064-.127.064-.191 0-.191-.191-.255-.255-.382a.33.33 0 0 0 .127-.255.234.234 0 0 0-.064-.191.553.553 0 0 1 .508.382z" class="cls-7" transform="translate(-227.456 -353.235)"/>
        <path id="Path_524" d="M293.229 357.3a.818.818 0 0 1-.636.636c-.127 0-.318.064-.382-.064-.064-.064-.127-.127-.064-.255a.573.573 0 0 0 .636-.064c.191-.127.254-.318.382-.445.127 0 .064.127.064.191z" class="cls-5" transform="translate(-226.559 -353.251)"/>
        <path id="Path_525" d="M293.631 357.251a1.071 1.071 0 0 1-.508 1.081.676.676 0 0 1-.764.064c-.064-.064-.064-.127-.127-.191a1.31 1.31 0 0 0 1.146-.636c.064-.127 0-.318.126-.382.064 0 .127 0 .127.064z" class="cls-5" transform="translate(-226.581 -353.266)"/>
        <path id="Path_526" d="M297.227 357.742c-.127.127-.382.064-.573-.064.064-.064.255-.064.255-.127s.064-.127 0-.127a.523.523 0 0 1 .318.318z" class="cls-5" transform="translate(-227.44 -353.312)"/>
        <path id="Path_527" d="M300.006 358.3a1.246 1.246 0 0 1-.827.064c-.127-.064-.191-.064-.318-.127.064-.064.064-.127.064-.255 0-.064-.126-.064-.064-.127s.127-.127.127-.191a1.877 1.877 0 0 1 1.018.636z" class="cls-5" transform="translate(-227.866 -353.358)"/>
        <path id="Path_528" d="M296.61 358.089c0 .127-.127.127-.191.127-.191.064-.191-.127-.318-.191 0-.127.254-.064.254-.127.127.064.255.127.255.191z" class="cls-5" transform="translate(-227.333 -353.404)"/>
        <path id="Path_529" d="M295.589 358.641c.127.127 0 .254.127.382-.063.064-.063.255-.19.255a1.951 1.951 0 0 1-1.082-.255 2.022 2.022 0 0 0 .191-.573 2.553 2.553 0 0 0 .955.191z" class="cls-5" transform="translate(-227.011 -353.511)"/>
        <path id="Path_530" d="M297.51 358.751a5.4 5.4 0 0 0 1.081.382 4.647 4.647 0 0 1-2.29.255v-.064a6.984 6.984 0 0 0 1.654-.127c0-.064 0-.127-.064-.127a4.461 4.461 0 0 1-1.59.064c-.064-.064-.064-.064-.064-.127a4.72 4.72 0 0 0 1.337-.064s0-.127-.064-.127a3.107 3.107 0 0 1-1.336-.064c-.064-.064 0-.064 0-.064a3.16 3.16 0 0 0 1.336.064z" class="cls-5" transform="translate(-227.342 -353.557)"/>
        <path id="Path_531" d="M302.892 359.892a.475.475 0 0 1-.317.064 17.779 17.779 0 0 1-1.972-.573l.445-.064c.637.191 1.273.382 1.845.573z" class="cls-5" transform="translate(-228.208 -353.68)"/>
        <path id="Path_532" d="M301.318 359.906c.127.127.318.127.509.191h-.127a6.7 6.7 0 0 1-2.29-.509 3.066 3.066 0 0 1-1.017.509c.19-.127.127-.382.381-.509.382-.064.764-.318 1.146-.127a5.128 5.128 0 0 0 1.4.446z" class="cls-7" transform="translate(-227.778 -353.694)"/>
        <path id="Path_533" d="M295.644 359.859a.785.785 0 0 1-.636.318.088.088 0 0 0 0 .127c.127.127.318.064.445 0a.136.136 0 0 0 .127.127.706.706 0 0 0 .7-.254c.064-.127.127-.127.191-.255l.318-.064c-.064.191-.255.255-.509.382 0 .064 0 .191.064.191a1.73 1.73 0 0 0 .636.508c-.064.509-.573.7-.636 1.146a.234.234 0 0 0 .064.191 3.173 3.173 0 0 0-1.336.063c.127-.254.509-.317.827-.381a1.649 1.649 0 0 1 .445-.7v-.127h-.255a1.911 1.911 0 0 1-.508-.508 4.731 4.731 0 0 1-2.163-.891 5.062 5.062 0 0 0 .573-.255 4.825 4.825 0 0 0 1.654.382z" class="cls-7" transform="translate(-226.811 -353.711)"/>
        <path id="Path_534" d="M298.223 359.791a.844.844 0 0 1-.7.509c.254-.191.254-.573.7-.509z" class="cls-7" transform="translate(-227.609 -353.771)"/>
        <path id="Path_535" d="M299.813 360.126a1.73 1.73 0 0 1-.573 0 2.955 2.955 0 0 1-1.463.573c-.063-.065-.254-.065-.254-.191a4.005 4.005 0 0 0 1.717-.636c.191.064.382.191.573.254z" class="cls-7" transform="translate(-227.609 -353.788)"/>
        <path id="Path_536" d="M296.674 360.023c0 .127-.191.255-.318.318h-.256c.064-.127.254-.191.191-.318.19 0 .317-.064.381 0z" class="cls-8" transform="translate(-227.333 -353.812)"/>
        <path id="Path_537" d="M299.014 361.434c-.191.382-.381.7-.572 1.146a.331.331 0 0 1 .127.254 1.031 1.031 0 0 0-.572-.191c.381-.317.381-.827.636-1.145-.064-.191-.318 0-.445-.064 0-.127-.064-.191 0-.318.19 0 .381-.127.508-.064s.191.255.318.382z" class="cls-7" transform="translate(-227.701 -354.014)"/>
        <path id="Path_538" d="M296.68 363.254c-.127.255-.191.509-.445.636l-.7.064c-.127-.064 0-.127 0-.255a.486.486 0 0 1 .127-.318 1.4 1.4 0 0 1 1.018-.127z" class="cls-5" transform="translate(-227.212 -354.435)"/>
        <path id="Path_539" d="M298.116 363.4a3.5 3.5 0 0 1-.445.573 2.616 2.616 0 0 1-.7-.064.947.947 0 0 1 .255-.573 1.431 1.431 0 0 1 .891.064z" class="cls-7" transform="translate(-227.502 -354.453)"/>
        <path id="Path_540" d="M295.13 363.41c-.064.382-.382.573-.7.764-.191 0-.318 0-.382-.064a.686.686 0 0 1 .127-.509 2.285 2.285 0 0 1 .7-.254.382.382 0 0 1 .255.064z" class="cls-7" transform="translate(-226.934 -354.463)"/>
        <path id="Path_541" d="M299.331 363.838v.064c-.191.127-.318.382-.573.382-.191-.064-.445-.064-.445-.254s.191-.318.382-.445a.816.816 0 0 1 .636.255z" class="cls-5" transform="translate(-227.763 -354.509)"/>
        <path id="Path_542" d="M293.676 363.865a1.805 1.805 0 0 1-.509.7c-.064 0-.127.064-.191.064s-.127-.127-.191-.127a1.2 1.2 0 0 1 .127-.509 1.014 1.014 0 0 1 .764-.255v.127z" class="cls-5" transform="translate(-226.688 -354.537)"/>
        <path id="Path_543" d="M300.309 364.454a.35.35 0 0 1-.191.318.641.641 0 0 1-.7-.191c0-.254.255-.318.445-.445a.479.479 0 0 1 .445.318z" class="cls-7" transform="translate(-227.978 -354.617)"/>
        <path id="Path_544" d="M297.23 364.568a1.686 1.686 0 0 1 .89 1.081l.064.064a5.205 5.205 0 0 0-1.4-1.208.807.807 0 0 0-.382.064c0 .191.255.127.318.255a4.934 4.934 0 0 1 1.59 1.845c.127.191.318.446.254.637a6.927 6.927 0 0 1-.318 1.654 5.321 5.321 0 0 0-2.481-2.036 2.365 2.365 0 0 0-1.208.572 5.54 5.54 0 0 0-1.463 1.527 2.685 2.685 0 0 1-.191-.763c0-.318-.255-.7-.127-1.018 0-.064.064-.126 0-.191a6.494 6.494 0 0 1 2.036-2.48c0-.127-.191 0-.255 0-.636.127-.955.7-1.336 1.081a3.585 3.585 0 0 1 .254-.763 5.014 5.014 0 0 1 2.926-.446c.255.064.509.064.827.127z" class="cls-5" transform="translate(-226.68 -354.667)"/>
        <path id="Path_545" d="M298.333 367.178c0 .254-.064.445-.064.7-.064.064-.064.191-.191.127s0-.191-.064-.318a3.35 3.35 0 0 0 .064-.827s.127-.064.127 0c.064.127.191.191.127.318zm-.445-.7c-.064.318-.064.7-.127 1.017 0 .064-.063.127-.063.064l-.191-.19c.063-.382.063-.764.127-1.082.127 0 .191.127.255.191zm-.636-.7a3.963 3.963 0 0 1-.064 1.209c-.064.064-.127 0-.191-.064a6.89 6.89 0 0 1 0-1.146c.064-.191.255-.127.255 0zm-.573-.572c-.064.445 0 .89-.064 1.4a.222.222 0 0 1-.127.064c-.127-.064-.191-.127-.127-.318a8.481 8.481 0 0 0 0-1.272c.064-.127.255.063.318.127zm-.7-.382a14.394 14.394 0 0 1-.064 1.654c-.064 0-.254.127-.254 0a7 7 0 0 1 .065-1.146c.063 0-.255-.763.19-.572l.064.064zm-.763.382v1.4c-.127.064-.127.127-.255.064-.064-.446 0-1.082-.064-1.59a.222.222 0 0 1 .127-.064c.127-.064.191.064.191.191zm-.7.445c.064.382 0 .7.064 1.082v.254c0 .064-.064.064-.127.126-.127 0-.064-.126-.127-.126-.064-.445 0-.827-.064-1.209 0-.064.191-.318.255-.127zm-.572.636a7.088 7.088 0 0 1 .127 1.145c0 .064-.064.127-.191.127-.064-.381-.126-.763-.191-1.145.065-.064.191-.318.255-.127zm-.445.954c-.064.255.19.7-.127.827-.064.064-.127 0-.064-.064 0-.318-.318-.891.064-1.208.127.064.064.317.127.445z" class="cls-6" transform="translate(-226.766 -354.732)"/>
        <path id="Path_546" d="M297.464 368.927v.128a6.134 6.134 0 0 0-1.146-.191 4.721 4.721 0 0 0-1.654.191c-.064.064-.064-.064-.064-.064a2.658 2.658 0 0 1 1.336-.827 2.9 2.9 0 0 1 1.527.764z" class="cls-5" transform="translate(-227.041 -355.399)"/>
        <path id="Path_547" d="M292.565 369.592c-.191-.127-.191-.509-.254-.7.064-.064.064-.191.127-.255 0 .318.127.7.127.955z" class="cls-5" transform="translate(-226.596 -355.492)"/>
        <path id="Path_548" d="M300.32 369.335c-.064.064-.064.255-.191.318a2.867 2.867 0 0 1 .191-.7c.064.064 0 .254 0 .382z" class="cls-5" transform="translate(-228.116 -355.553)"/>
        <path id="Path_549" d="M298.2 370.572a3.617 3.617 0 0 1-.445 1.4 2.385 2.385 0 0 1-1.527 1.273 2.011 2.011 0 0 1-2.228-1.019 4.895 4.895 0 0 1-.509-1.717c0-.127-.064-.191 0-.318a6.785 6.785 0 0 1 .636-.763v.636c0 .89.191 1.781 1.018 2.1a1.27 1.27 0 0 1 .636.509.119.119 0 0 0 .19 0c.254-.509 1.018-.7 1.273-1.272a4.184 4.184 0 0 0 .318-1.972c.254.381.7.636.636 1.145z" class="cls-5" transform="translate(-226.82 -355.645)"/>
        <path id="Path_550" d="M296.376 369.6v1.527c0 .064 0 .127.064.064.127.064.064 0 .127 0a15.588 15.588 0 0 1 .127-1.718.062.062 0 0 1 .064-.064 2.252 2.252 0 0 1 .7.191 7.711 7.711 0 0 1-.064 1.209.382.382 0 0 0-.064.254 3.584 3.584 0 0 1-1.273 1.081 4.082 4.082 0 0 1-1.208-.827 5.117 5.117 0 0 1-.255-1.146c.064-.126-.191-.7.191-.636.064.509.064 1.081.127 1.59 0 .064 0 .127.064.127.191-.127 0-.191.127-.382a9.847 9.847 0 0 1 .064-1.336c0-.064 0-.127.127-.064-.064.255.064.508 0 .763.064.382 0 1.146.064 1.273h.127c0-.636.064-1.4.127-2.1a.087.087 0 0 1 .126 0 2.6 2.6 0 0 0 0 .7c.064.445 0 1.146.064 1.591 0 .063.064 0 .127 0 .064-.764.064-1.527.127-2.29a.382.382 0 0 1 .254-.064l.064.255z" class="cls-7" transform="translate(-227.035 -355.63)"/>
        <path id="Path_551" d="M289.048 376.731a1.809 1.809 0 0 1 .382-.89l-.064-.064a7.985 7.985 0 0 0 2.1-2.036 1.141 1.141 0 0 0 .318-.446 10.2 10.2 0 0 1-2.99 2.418h-.127a7.209 7.209 0 0 1-3.944 1.908c-.381 0-.7.064-1.017.064.318.191.764.064 1.208.127a10.215 10.215 0 0 0 1.845-.573 7.916 7.916 0 0 1-.763.509 4.711 4.711 0 0 0 1.336-.446.314.314 0 0 1 .064-.191.617.617 0 0 1 .509-.446c.318 0 1.145.064 1.145.064z" class="cls-7" transform="translate(-224.923 -356.397)"/>
        <path id="Path_552" d="M283.2 365.043v.064c-.382-.128-1.018-.255-1.337.063a.611.611 0 0 0-.191.636 1.271 1.271 0 0 0 .827.955c.064.127 0 .127-.064.19a1.272 1.272 0 0 1-1.208-.317 1.113 1.113 0 0 1-.127-1.082h-.127c-.191.191-.127.573-.127.827.191.445.573.636.954.954.127.382.382.827.509 1.209a2.34 2.34 0 0 1-2.353-1.273 2.265 2.265 0 0 1-.318-1.463c0-.191.127-.255.127-.445a.119.119 0 0 0-.191 0c-.127.191 0 .382-.127.573-.064.636.254.891.191 1.463a.454.454 0 0 1-.191.382c-.127 0-.064-.127-.127-.254a3.766 3.766 0 0 1-.509-2.163c.064-.064.064-.191.127-.254a2 2 0 0 1 1.909-1.209 2.539 2.539 0 0 1 2.354 1.146z" class="cls-7" transform="translate(-223.969 -354.569)"/>
        <path id="Path_553" d="M290.143 363.394a1.73 1.73 0 0 1-.445 1.591c-.318.254-.827.445-1.081.826h.064a1.2 1.2 0 0 1 1.145-.191.673.673 0 0 1 .382.445.477.477 0 0 1 0 .573 1.117 1.117 0 0 0-1.018-.127 1.063 1.063 0 0 0-.7.763 1.6 1.6 0 0 0 .127.636 1.213 1.213 0 0 1-.318-.636 2.794 2.794 0 0 1-.127-1.018 5.309 5.309 0 0 1 1.718-2.481c0-.064-.064-.191-.127-.191a4.506 4.506 0 0 0-.573.445c-.318.382-.572.764-.89 1.209a4.685 4.685 0 0 0-.255.891 3.761 3.761 0 0 0 .064 1.208 2.576 2.576 0 0 1-.382-1.845 2.876 2.876 0 0 1 .764-1.59 2.733 2.733 0 0 1 1.59-.636c.064.127 0 .064.064.127z" class="cls-5" transform="translate(-225.701 -354.448)"/>
        <path id="Path_554" d="M284.752 364.125a4.187 4.187 0 0 0 .827 1.781.681.681 0 0 0 .127.382 2.605 2.605 0 0 0 1.145 1.59.062.062 0 0 0 .064-.064 2.947 2.947 0 0 1-.827-1.208c-.064-.064-.064-.255-.127-.318a3.194 3.194 0 0 1-.127-.764 1.957 1.957 0 0 1 .382-1.208.333.333 0 0 1 .127-.255 2.288 2.288 0 0 1 .445 1.145 6.137 6.137 0 0 0 0 1.082c.064.064 0 .127.064.127v.255a2.8 2.8 0 0 0 2.227 2.1c.127-.064.255 0 .382 0a2.854 2.854 0 0 1-1.654-.254 6.984 6.984 0 0 1-2.99-2.354 12.061 12.061 0 0 0-.954-.891 4.563 4.563 0 0 1 1.272.891c.064.064.064 0 .064-.064s-.127-.127-.191-.255a3.265 3.265 0 0 1-.763-1.718 2.285 2.285 0 0 1 .254-.7h.127a2.287 2.287 0 0 0 .127.7z" class="cls-7" transform="translate(-224.954 -354.478)"/>
        <path id="Path_555" d="M283.759 366.081c1.527 1.4 2.99 3.308 5.28 3.372a3.935 3.935 0 0 1-2.1-.254 8.055 8.055 0 0 1-3.117-2.036c0-.064.127-.127.064-.254-.127-.127-.318 0-.446-.064a1.393 1.393 0 0 1-.764-.827c.064-.064.064-.127.127-.191 1.146.573 1.909 1.781 2.927 2.545l.064-.064c-1.018-.763-1.718-1.972-2.8-2.608 0-.064.127-.064.127-.064l.636.445z" class="cls-7" transform="translate(-224.723 -354.908)"/>
        <path id="Path_556" d="M290.157 366.762c.064.064.064.064.064.191-.191 0-.191-.255-.382-.255a1.166 1.166 0 0 0-.954.318c0 .064-.063.191-.127.127 0-.254.191-.382.445-.509.254-.064.508-.191.763-.064l.191.191z" class="cls-6" transform="translate(-225.905 -355.079)"/>
        <path id="Path_557" d="M291.7 368.2a.817.817 0 0 0-.255.636.723.723 0 0 0 .064.509c-.191.127-.508.064-.763.064a1.914 1.914 0 0 1-1.463-.573l-.128-.445a4.716 4.716 0 0 0 1.336.064 2.01 2.01 0 0 0 1.208-.445c.064.063 0 .126 0 .19z" class="cls-7" transform="translate(-225.982 -355.369)"/>
        <path id="Path_558" d="M287.977 370.426c-1.146.254-2.418-.508-3.562.064a.717.717 0 0 1 .445-.7 1.772 1.772 0 0 1 1.146-.064l1.972.7z" class="cls-5" transform="translate(-225.061 -355.69)"/>
        <path id="Path_559" d="M285.889 369.972a1.451 1.451 0 0 1 .7.191c.063 0 0 0 0 .063-.637-.127-1.464-.318-1.972.127-.064 0-.191 0-.127-.127a1.713 1.713 0 0 1 1.4-.254z" class="cls-6" transform="translate(-225.072 -355.745)"/>
        <path id="Path_560" d="M291.726 370.552c.318.191.318.7.446.955-.064.127.064.127 0 .255a2.726 2.726 0 0 1-2.545.89l-.127-.064a2.557 2.557 0 0 0 1.972-1.59c-.064-.127-.191 0-.255.064-1.145.7-2.735.255-3.817-.255a.062.062 0 0 1-.064-.064 5.712 5.712 0 0 0 3.435-.509c.127-.127.318-.127.446-.254.127.191.509.254.509.572z" class="cls-7" transform="translate(-225.629 -355.753)"/>
        <path id="Path_561" d="M287.633 372.544a2.79 2.79 0 0 0 2.481.827 3.163 3.163 0 0 0 1.908-.891v.127a4.783 4.783 0 0 1-.955 1.018v.064h.127c.318-.254.636-.636.955-.891a3.1 3.1 0 0 1-.7.891 9.919 9.919 0 0 1-2.163 1.718c-.064-.064.064 0 0-.064-.954.509-1.908 1.272-3.053 1.081a.35.35 0 0 1-.318-.191c0-.063.191-.126.254-.19a2.693 2.693 0 0 0 2.227-.509c.064-.064 0-.064-.064-.064a2.925 2.925 0 0 1-1.972.382.481.481 0 0 1 .127-.254 7.333 7.333 0 0 0 1.654-.191 9.181 9.181 0 0 0 2.926-1.845c.064 0 0-.127 0-.127-.954.573-2.227 1.272-3.372.636a1.806 1.806 0 0 1-.573-.636c-.127-.127-.064-.318-.064-.509a.9.9 0 0 1 .127-.382c.127-.064.191-.254.318-.126l.127.126z" class="cls-7" transform="translate(-225.353 -356.218)"/>
        <path id="Path_562" d="M284.5 373.028a2 2 0 0 1 .254 1.273c-.064.063-.064.317-.127.317 0 .064 0 .127.064.127.064-.064.064-.127.127-.191a2.112 2.112 0 0 0-.064-1.527c.127 0 .191.127.255.191a1.662 1.662 0 0 1 .127 1.018 1.463 1.463 0 0 1-.763 1.082.977.977 0 0 1-1.018 0c-.064-.064-.127-.127-.127-.191.255-.064.573-.064.764-.255a1.281 1.281 0 0 0 .572-1.145c0-.318-.317-.509-.381-.828.064 0 .254 0 .317.127z" class="cls-7" transform="translate(-224.831 -356.32)"/>
        <path id="Path_563" d="M285.253 373.693a2.33 2.33 0 0 1 .064 1.336c-.064.255-.318.509-.382.7.191 0 .255-.191.382-.318a1.282 1.282 0 0 0 .191-.7 1.5 1.5 0 0 0 .064-.763c0 .064.064.064.064.127a2.039 2.039 0 0 1 .127 1.081 2.3 2.3 0 0 1-.191.446 2.087 2.087 0 0 1-1.527.89 2.51 2.51 0 0 1-1.782-.572c0-.064-.126-.064-.063-.191a2.48 2.48 0 0 0 1.909 0 1.8 1.8 0 0 0 1.081-1.781c-.064-.191-.064-.446-.191-.573.191.064.191.191.255.318z" class="cls-7" transform="translate(-224.627 -356.413)"/>
        <path id="Path_564" d="M286.959 364.9v.254a12.612 12.612 0 0 0 .127 1.464c.064.064.064.191.127.254a3.079 3.079 0 0 0 .255.7c-.255 0-.191-.255-.318-.381a6 6 0 0 1-.445-1.972c.064-.127.064-.446.254-.446v.127z" class="cls-6" transform="translate(-225.506 -354.739)"/>
        <path id="Path_565" d="M288.284 373.2a2.125 2.125 0 0 1 .382.191 1.611 1.611 0 0 0 .763.127l.064.064a1.4 1.4 0 0 1-1.336-.318 1.689 1.689 0 0 1-.318-.382v-.064c.191.064.255.255.446.382zm-.382 0a2.069 2.069 0 0 0 1.654.636c-.064 0 0 0 0 .064a1.951 1.951 0 0 1-1.718-.509.683.683 0 0 1-.127-.382c.127 0 .127.127.191.191zm0 .446a1.536 1.536 0 0 0 1.082.445v.064a1.547 1.547 0 0 1-1.337-.573c.064-.064-.064-.064 0-.127.127 0 .127.127.255.191z" class="cls-6" transform="translate(-225.686 -356.305)"/>
        <path id="Path_566" d="M286.255 377.2c-1.527.636-3.881.7-5.216-.318a1.837 1.837 0 0 1-.827-1.209c-.127-.318.064-.636.127-.891 0-.191-.127-.064-.255-.064a1.049 1.049 0 0 0-.572.955c0 .127.063.381.063.572-.126-.064-.126-.127-.19-.255a3.066 3.066 0 0 1-.127-1.527 2.126 2.126 0 0 1 1.654-1.208 2.8 2.8 0 0 1 1.908.318c.127-.064.064-.191 0-.382a1.692 1.692 0 0 0-.7-.636v-.127a2.117 2.117 0 0 1 2.036.127 2.2 2.2 0 0 1 .7.636 2.052 2.052 0 0 0-.509-.891 3.558 3.558 0 0 0-2.99-1.145 3.363 3.363 0 0 0-3.054 2.481c-.064.254-.064.509-.127.827a4.577 4.577 0 0 0 .254 1.4 3.948 3.948 0 0 0 3.5 2.48 6.928 6.928 0 0 0 4.135-.763c.064-.064.127-.064.191-.127v-.253z" class="cls-5" transform="translate(-223.848 -355.975)"/>
        <path id="Path_567" d="M299.844 377.363a1.507 1.507 0 0 0-.191-.763c-.064-.064-.064-.191-.127-.191a1.425 1.425 0 0 0-1.208-.509c-.955.191-1.4.891-2.1 1.4a.676.676 0 0 1-.509.064.385.385 0 0 1-.191-.382c.064-.254.318-.508.127-.827a.537.537 0 0 0-.446-.127c-.126 0-.126.127-.254.191a.738.738 0 0 1 0 .382c.127.191.254.255.254.572a.632.632 0 0 1-.317.255c-.445 0-.7-.382-1.018-.636a2.057 2.057 0 0 0-2.29-.7 1.475 1.475 0 0 0-.763 1.208c.191.064.318 0 .573 0a.833.833 0 0 1 .381-.763 1.083 1.083 0 0 1 .891-.127c.954.382 1.336 1.336 2.353 1.654a1.539 1.539 0 0 0 1.464-.446 6.152 6.152 0 0 1 1.59-1.208.921.921 0 0 1 1.018.254.909.909 0 0 1 .191.7z" class="cls-7" transform="translate(-226.305 -356.902)"/>
        <path id="Path_568" d="M292.746 374.788c-.191.255-.382.509-.764.509l-.382.191a8.456 8.456 0 0 0 1.655-1.718c0 .445-.318.7-.509 1.018z" class="cls-8" transform="translate(-226.458 -356.489)"/>
        <path id="Path_569" d="M280.817 380.879a1.709 1.709 0 0 0 1.59 1.017 4.493 4.493 0 0 0 1.59-.127c.255.064 0 .255 0 .382-.127.446-.572.828-.636 1.273a4.558 4.558 0 0 0-.255 1.209c-.064.064.127.636-.191.508a1.012 1.012 0 0 1-.318-.636 1.717 1.717 0 0 1 .064-.764h-.127a2.427 2.427 0 0 0-.191.637 3.4 3.4 0 0 1-1.018 1.463c-.127-.064-.064-.255-.127-.445a2.965 2.965 0 0 1 .509-2.036 3.587 3.587 0 0 1 1.527-1.145v-.064a3.312 3.312 0 0 1-2.8 0 .991.991 0 0 1-.445-1.017.837.837 0 0 1 .7-.573c.127.064.064.191.127.318z" class="cls-7" transform="translate(-224.198 -357.809)"/>
        <path id="Path_570" d="M284.265 383.483a3.188 3.188 0 0 1 .127.763 4.069 4.069 0 0 0-.636 1.146c0 .127 0 .064.064.127.191-.254.381-.7.636-1.018-.127.637-.572 1.336-.763 2.036a2.161 2.161 0 0 1-.064.636c-.064 1.081-.064 2.227.827 2.8a1.436 1.436 0 0 0 1.018.127c.064.191-.191.127-.255.191a1.67 1.67 0 0 1-1.272-.509 2.207 2.207 0 0 1-.446-.954c-.064-.254-.064-.509-.127-.827-.191.127 0 .382-.064.509.064.191 0 .382.127.509h-.064a1.76 1.76 0 0 0 1.463 1.4l.318.064c0 .127-.191.127-.255.255a2.612 2.612 0 0 1-1.4 0c-.891-.318-1.145-1.146-1.4-1.972a1.081 1.081 0 0 1-.064-.445 5.441 5.441 0 0 1 0-1.018 3.189 3.189 0 0 0 .127-.764 1.613 1.613 0 0 1 .508-.763 3.719 3.719 0 0 0-.127.827 3.6 3.6 0 0 0 0 .827c0-.064-.064.191.064.191a15.87 15.87 0 0 1 .318-1.845l-.127-.065c.191.065.445.382.7.446a3 3 0 0 0-.254 1.018v.635c0 .064.064.064.127.064.064-.191 0-.508.064-.763 0-.318.191-.636.191-.954.064 0 .191 0 .127-.127v-.763a6.321 6.321 0 0 1 .127-1.018 2.888 2.888 0 0 1 .381-.763z" class="cls-7" transform="translate(-224.594 -358.378)"/>
        <path id="Path_571" d="M287.852 381.193a5.27 5.27 0 0 0-1.463 1.718 8.385 8.385 0 0 1 1.4-1.146c.064-.064 0-.064.064 0v-.572z" class="cls-7" transform="translate(-225.445 -357.932)"/>
        <path id="Path_572" d="M288.227 389.349a1.94 1.94 0 0 1-.573.826 3.211 3.211 0 0 1-2.545.955 1.6 1.6 0 0 0 1.337-1.082 1.394 1.394 0 0 0-.064-1.018 1.236 1.236 0 0 0-.573-.7c-.191-.191-.573-.191-.764-.255a1.078 1.078 0 0 1 .064-.445c.064-.318.382-.445.7-.509a1.59 1.59 0 0 1 1.463.89 2.181 2.181 0 0 1 .191 1.018c0 .127-.064.318-.064.446.064.063.064 0 .127-.064a2.217 2.217 0 0 0-.382-1.908 3.046 3.046 0 0 1-.827-1.463 1.834 1.834 0 0 1-.064-.827 1.606 1.606 0 0 1 .827-1.336c.127.191-.064.445.064.572a2.169 2.169 0 0 0 .446 1.4.2.2 0 0 1 .064.127 10.279 10.279 0 0 0 .191 1.972 6.06 6.06 0 0 0 .382 1.4z" class="cls-5" transform="translate(-225.184 -358.454)"/>
        <path id="Path_573" d="M287.008 380.443a6.792 6.792 0 0 0-2.036 2.8.69.69 0 0 1-.064.382.737.737 0 0 1-.255-.636 1.765 1.765 0 0 1 .191-1.273c.382-.826 1.336-1.208 2.036-1.845 0-.064 0-.127-.064-.127l-.764.573c-1.081.637-2.289 1.59-3.753 1.017-.064-.063-.254-.063-.254-.191.064 0 .127 0 .127.064a6.4 6.4 0 0 0 4.389-1.591c.254-.191.445-.317.445-.317v1.145z" class="cls-7" transform="translate(-224.601 -357.564)"/>
        <path id="Path_574" d="M282.868 388.283a2.27 2.27 0 0 0 1.208 1.781l.509.127v.064a.765.765 0 0 1-.89-.191 2.044 2.044 0 0 1-.827-1.463c0-.127-.127-.191-.064-.318zm-.318.509a2.068 2.068 0 0 0 .636 1.145 1.388 1.388 0 0 0 .509.318c-.127.191-.318 0-.445 0a1.951 1.951 0 0 1-.827-1.527s-.064-.191 0-.255c.127-.064.064.255.127.318zm.509-2.927a7.452 7.452 0 0 0-.318 1.273v.508s-.064.064-.064 0a6.133 6.133 0 0 1 0-1.081 4.114 4.114 0 0 1 .255-.827.137.137 0 0 1 .127.127zm-1.145-1.209c-.064.255-.064.573-.127.764-.064.063-.064 0-.127-.065a1.257 1.257 0 0 1 .127-.7zm0-.7a4.2 4.2 0 0 0-.318.955v.318c-.064.064 0 .382 0 .572 0 .064-.127.064-.127 0a5.424 5.424 0 0 1 0-1.017c.127-.318.254-.573.382-.827zm-.764-2.163a2.231 2.231 0 0 0 1.718.509c.064 0 .064.064 0 .064a2.046 2.046 0 0 1-1.908-.636v-.064c.127 0 .127.064.191.126zm-.127.255a1.733 1.733 0 0 0 1.272.445v.064a1.522 1.522 0 0 1-1.527-.637c0-.064-.127-.064 0-.127.127 0 .127.191.255.255zm3.117.191a2.856 2.856 0 0 1-.445.445 3.9 3.9 0 0 0-.7 1.463c-.064 0-.064.064-.127 0a3.208 3.208 0 0 1 1.081-1.972.234.234 0 0 1 .191.064zm-.763.445a5.788 5.788 0 0 0-.827 1.208h-.064c0-.191.064-.254.064-.381.191-.318.318-.7.7-.891.064 0 .127 0 .127.064z" class="cls-6" transform="translate(-224.341 -358.025)"/>
        <path id="Path_575" d="M295.582 374.709l.19.064c.573-.317 1.336-.508 1.718-1.081 0 .127.063.191.063.255a10.2 10.2 0 0 0 .955 1.336 11.319 11.319 0 0 0-2.036 1.336c-.127.064-.191 0-.255-.064.064-.254.255-.381.191-.7.064-.127-.064-.191-.127-.254a.5.5 0 0 0-.509-.318.653.653 0 0 0-.445 1.146c0 .126 0 .19-.127.254a15.174 15.174 0 0 0-2.1-1.4 7.518 7.518 0 0 0 .89-1.4.493.493 0 0 0 .064-.191 4.569 4.569 0 0 0 1.528 1.018z" class="cls-5" transform="translate(-226.75 -356.474)"/>
        <path id="Path_576" d="M303.7 377.335a7.437 7.437 0 0 0 1.272.382 4.289 4.289 0 0 1-.7-.446v-.064c.382.127.764.318 1.209.445a3.042 3.042 0 0 0 1.845 0 8.2 8.2 0 0 1-4.708-1.59c-.127-.127-.317-.318-.445-.318a12.05 12.05 0 0 1-2.991-2.29 2.087 2.087 0 0 0 .382.509 9.324 9.324 0 0 0 2.036 1.781c0 .064-.064.064-.064.127a1.519 1.519 0 0 1 .318.89s1.081.064 1.208.064q.573 0 .573.382l.064.127z" class="cls-7" transform="translate(-227.931 -356.428)"/>
        <path id="Path_577" d="M307.192 363.919a1.118 1.118 0 0 1-.127.891 2.8 2.8 0 0 1-.763 1.145v.127h.127a2.805 2.805 0 0 1 1.272-.954c-1.082.954-1.845 2.035-2.99 2.862a4.65 4.65 0 0 1-2.609.764c.255-.128.573-.064.827-.191.126-.127.254-.127.445-.191a2.566 2.566 0 0 0 1.273-2.227 8.665 8.665 0 0 0 .127-1.336c0-.064.063-.254.063-.318a1.293 1.293 0 0 1 .255-.509 2.415 2.415 0 0 1 .573 1.781 2.222 2.222 0 0 1-.318.827 2.045 2.045 0 0 1-.763 1.145c0 .064.064.064.127.064.827-.573.954-1.59 1.527-2.354a4.167 4.167 0 0 0 .572-2.1c.255.064.318.318.382.573z" class="cls-7" transform="translate(-228.5 -354.463)"/>
        <path id="Path_578" d="M312.841 364.948a1.624 1.624 0 0 1 .064 1.337c-.064.318-.127.446-.191.7-.127.191-.191.508-.318.636-.127 0-.127-.128-.191-.191a2.112 2.112 0 0 1 0-.636 2.641 2.641 0 0 0 .191-1.018 1.138 1.138 0 0 0-.255-.572c-.064 0-.064 0-.064.063a1.748 1.748 0 0 1 .064 1.146 2.878 2.878 0 0 1-.89 1.527 2.693 2.693 0 0 1-1.781.509 7.736 7.736 0 0 0 .572-1.272c.064-.065.255-.128.318-.255a1.187 1.187 0 0 0 .636-.89c.064-.127-.064-.255 0-.318-.127-.127-.127-.318-.255-.318-.064.191.064.255.064.382a.686.686 0 0 1-.127.509c-.064.255-.318.382-.509.509-.318.064-.7.126-.89-.064a.636.636 0 0 1 .318-.255 1.08 1.08 0 0 0 .572-1.018c0-.127-.127-.254-.191-.381a1.374 1.374 0 0 0-1.4-.064 2.593 2.593 0 0 1 2.1-1.273 2.211 2.211 0 0 1 2.163 1.208z" class="cls-7" transform="translate(-229.758 -354.539)"/>
        <path id="Path_579" d="M308.32 365.558a.89.89 0 0 1-.255.19c-.955.7-1.527 1.718-2.545 2.418-.063.064 0 .064 0 .127 1.018-.636 1.59-1.59 2.545-2.29.127-.064.318-.255.509-.255 0 .064.063.191.063.255a1.12 1.12 0 0 1-.827.764c-.127 0-.255-.064-.382.064-.064.191.127.255 0 .382a7.7 7.7 0 0 1-4.707 2.29c-.127-.064-.318 0-.382-.127a5.165 5.165 0 0 0 3.626-1.844c.382-.255.573-.636.89-.891a5.517 5.517 0 0 1 1.337-1.081z" class="cls-7" transform="translate(-228.546 -354.893)"/>
        <path id="Path_580" d="M303.053 368.308a1.015 1.015 0 0 1-.572.764 2.6 2.6 0 0 1-1.845.255 1.763 1.763 0 0 0 .064-.573 5.893 5.893 0 0 0-.255-.827 2.894 2.894 0 0 0 2.608.382z" class="cls-7" transform="translate(-228.177 -355.353)"/>
        <path id="Path_581" d="M303.68 370.727h.636c-1.145.637-2.926.954-4.007.191-.255.064 0 .191 0 .318a2.213 2.213 0 0 0 .827.89 3.129 3.129 0 0 0 1.082.382 1.937 1.937 0 0 1-1.336.064 2.781 2.781 0 0 1-1.463-.827 5.079 5.079 0 0 0 .191-.955c.127-.191.255-.318.255-.509a.79.79 0 0 0 .509-.382 5.368 5.368 0 0 0 3.308.827z" class="cls-7" transform="translate(-227.978 -355.737)"/>
        <path id="Path_582" d="M304.319 372.905c-.064.191-.064.382-.127.509a1.7 1.7 0 0 1-1.209.827 3.425 3.425 0 0 1-1.781-.317 4.683 4.683 0 0 1-.827-.509c-.064 0-.127 0-.127.064-.064 0 0 .064 0 .064a10.98 10.98 0 0 0 1.654 1.208 5.04 5.04 0 0 0 2.926.764c.064.064.127.191.191.255a2.345 2.345 0 0 1-.954.064c-.445-.127-.764-.318-1.146-.445v.127a2.817 2.817 0 0 0 2.29.445c.127 0 .127.127.255.191-.064.254-.509.254-.827.254a5.487 5.487 0 0 1-2.48-1.081c-.064-.064-.127 0-.064.064a9.147 9.147 0 0 1-2.99-2.609c.191.064.318.255.446.382.254.191.382.446.7.509-.255-.382-.764-.7-1.018-1.146 0 0 .064-.127.127-.064a3.266 3.266 0 0 0 3.562.636 2.252 2.252 0 0 0 .891-.827c.318.127.382.381.509.635z" class="cls-7" transform="translate(-227.916 -356.198)"/>
        <path id="Path_583" d="M308.253 372.819a1.282 1.282 0 0 0-.318 1.4 1.311 1.311 0 0 0 1.273.764.641.641 0 0 0-.064.191.979.979 0 0 1-1.018.127 1.533 1.533 0 0 1-.89-1.272 1.762 1.762 0 0 1 .064-.573c.064-.127.127-.446.318-.509a1.612 1.612 0 0 1-.127.446c0 .191-.064.318-.064.509a2.039 2.039 0 0 0 .19.573.2.2 0 0 0 .191.19c.064-.127-.126-.19-.126-.318a1.987 1.987 0 0 1 .126-1.208.347.347 0 0 1 .445-.318z" class="cls-7" transform="translate(-229.497 -356.302)"/>
        <path id="Path_584" d="M306.969 373.3a1.613 1.613 0 0 0-.127.764 1.8 1.8 0 0 0 1.145 1.59 2.172 2.172 0 0 0 1.781 0c.127.064 0 .127 0 .191a2.268 2.268 0 0 1-2.289.445 2.134 2.134 0 0 1-1.146-.955 1.559 1.559 0 0 1 .064-1.4 5.14 5.14 0 0 0 .064.954 1.351 1.351 0 0 0 .636.827v-.064a1.386 1.386 0 0 1-.318-.509c-.064-.191-.127-.446-.191-.636 0-.191.064-.381.064-.636a1.033 1.033 0 0 1 .318-.573z" class="cls-7" transform="translate(-229.294 -356.397)"/>
        <path id="Path_585" d="M300.5 375.185c.064.127.191.127.318.255-.254-.127-.7-.064-.89-.318a3.39 3.39 0 0 1-.827-1.272 13.951 13.951 0 0 0 1.4 1.336z" class="cls-8" transform="translate(-227.916 -356.505)"/>
        <path id="Path_586" d="M304.22 364.6a3.533 3.533 0 0 1 .255 1.463c-.064.191-.064.445-.127.573a.945.945 0 0 1-.255.572c.064-.191.064-.382.127-.636-.064-.255-.064-.573-.127-.764 0-.127-.064-.191-.127-.382a5.7 5.7 0 0 0-1.463-1.845c-.064 0-.191 0-.191.064-.064.318.318.382.445.573a5.047 5.047 0 0 1 1.209 1.654 2.917 2.917 0 0 1-.191 1.654l-.191.318c.064-.127.064-.318.127-.446a1.071 1.071 0 0 0-.191-.636 1.128 1.128 0 0 0-1.081-.318c-.191.064-.382.064-.509.128l-.064-.191a1.052 1.052 0 0 1 .509-.827 1.1 1.1 0 0 1 1.081.255c.064 0 .127 0 .064-.064-.191-.446-.827-.573-1.145-.954a1.871 1.871 0 0 1-.382-1.527 2.47 2.47 0 0 1 2.227 1.337z" class="cls-5" transform="translate(-228.453 -354.448)"/>
        <path id="Path_587" d="M305.882 364.816a5.442 5.442 0 0 1 0 1.017 1.963 1.963 0 0 1-.127.509c-.191.382-.191.89-.508 1.208l-.064-.064a6.093 6.093 0 0 0 .508-2.8c.127 0 .191.064.191.127z" class="cls-6" transform="translate(-229.098 -354.724)"/>
        <path id="Path_588" d="M303.645 366.941c0 .064.064.191 0 .191s-.064-.127-.127-.191a1.4 1.4 0 0 0-.763-.318.536.536 0 0 0-.445.255c0 .064-.064 0-.127 0 0-.191.191-.255.382-.382a.811.811 0 0 1 .763.127.767.767 0 0 1 .318.318z" class="cls-6" transform="translate(-228.515 -355.068)"/>
        <path id="Path_589" d="M304.547 372.743c-.064.255-.255.382-.382.573a1.567 1.567 0 0 1-1.208.254l-.064-.064h.508a1.713 1.713 0 0 0 1.082-.764z" class="cls-6" transform="translate(-228.653 -356.29)"/>
        <path id="Path_590" d="M304.659 373.171c-.191.509-.827.7-1.464.764l-.381-.064a2.155 2.155 0 0 0 1.717-.7c0-.127 0-.127.064-.191.127 0 0 .127.064.191z" class="cls-6" transform="translate(-228.638 -356.336)"/>
        <path id="Path_591" d="M304.861 373.6a.988.988 0 0 1-.827.636c-.191 0-.382.064-.509 0a1.446 1.446 0 0 0 1.273-.7.062.062 0 0 1 .064.064z" class="cls-6" transform="translate(-228.776 -356.443)"/>
        <path id="Path_592" d="M307.418 370.03c-.381-.381-1.081-.254-1.59-.191a1.573 1.573 0 0 0-.446.191c.127.191.382-.063.573-.063.446 0 1.082-.064 1.4.254.064 0 .064 0 .127-.064.064 0 0-.063 0-.063.064.127.127.127.064.317-.508-.382-1.4-.191-2.036-.064a3.62 3.62 0 0 0-.826.064h-.764a21.1 21.1 0 0 1 2.354-.827c.446 0 1.018.064 1.145.445z" class="cls-5" transform="translate(-228.853 -355.676)"/>
        <path id="Path_593" d="M304.788 377.375c.064 0 .127.127.191.191a7.177 7.177 0 0 0 4.771.572 3.731 3.731 0 0 0 2.736-2.163.851.851 0 0 1 .191-.318c0-.255.064-.382.064-.573a3.043 3.043 0 0 0-.064-1.527 3.313 3.313 0 0 0-2.227-2.354 3.8 3.8 0 0 0-3.5.7 2.31 2.31 0 0 0-.827 1.209 2.193 2.193 0 0 1 .509-.573 2.373 2.373 0 0 1 2.163-.191c.064.064 0 .064 0 .127a1.469 1.469 0 0 0-.764.891c.064.064 0 .127.127.127a3.855 3.855 0 0 1 1.527-.382 2.392 2.392 0 0 1 1.972 1.081 1.839 1.839 0 0 1 .127 1.146c-.064.064-.064.318-.127.382a.685.685 0 0 1-.191.445c-.064 0 0-.127-.064-.127a.8.8 0 0 0 .064-.381 1.335 1.335 0 0 0-.191-.764.618.618 0 0 0-.572-.254c-.064.064 0 .191.064.254a1.83 1.83 0 0 1-.191 1.4 4.621 4.621 0 0 1-4.39 1.209 3.525 3.525 0 0 1-1.4-.382v.255z" class="cls-5" transform="translate(-229.022 -355.959)"/>
        <path id="Path_594" d="M298.058 375.555c0 .064 0 .127-.063.127-.128.064-.19 0-.19-.064s0-.191.063-.191c.128 0 .255 0 .191.127zm-.382.255c.064.127-.063.191-.19.191s-.127-.064-.191-.064c0-.191.127-.191.191-.255.127 0 .19 0 .19.127zm-.508.255v.255c-.064.064-.255.064-.318.064-.064-.064-.127-.127-.064-.255q0-.1.191-.191c.064 0 .127.064.191.127zm-1.082.191c0 .064.127.255 0 .255-.064.064-.191.127-.254.064a.136.136 0 0 1-.127-.127c-.064-.064 0-.191 0-.191.127-.127.317-.127.381 0zm-1.081-.191a.477.477 0 0 1-.064.318.28.28 0 0 1-.318-.064c0-.127 0-.318.127-.318.127-.064.191 0 .255.064zm-.509-.255a.234.234 0 0 1-.064.191c-.064.064-.191 0-.255 0-.064-.127-.126-.127 0-.255.064-.127.255-.064.318.064zm-.573-.382c.063 0 .063.064.128.127a.138.138 0 0 1-.128.127c-.063.064-.128 0-.19-.064a.168.168 0 0 1 .19-.191z" class="cls-6" transform="translate(-226.873 -356.812)"/>
        <path id="Path_595" d="M303.036 376.979v.063a1.884 1.884 0 0 1-.7-.445s-.064-.064.064-.064c.255.127.382.318.637.445z" class="cls-6" transform="translate(-228.542 -357.027)"/>
        <path id="Path_596" d="M304.788 381.686a5.514 5.514 0 0 1 .636.445 9.933 9.933 0 0 1 .826.764 2.628 2.628 0 0 0-.445-.7 5.42 5.42 0 0 0-1.018-1.081v.572z" class="cls-7" transform="translate(-229.022 -357.917)"/>
        <path id="Path_597" d="M304.788 380.427c.127.064.255.191.382.255a4.163 4.163 0 0 1 .83 1.018 6.659 6.659 0 0 1 .827 1.464c0 .126 0 .317.127.381a1.081 1.081 0 0 0 .255-.827c.064-.064 0-.254 0-.254a1.8 1.8 0 0 0-.255-.827c-.382-.827-1.4-1.272-2.1-1.909 0-.064.064-.127.127-.064 1.336.827 2.544 2.163 4.39 1.654a1.581 1.581 0 0 0 .445-.254c-.127 0-.255.063-.382 0a6.815 6.815 0 0 1-4.643-1.845v1.208z" class="cls-7" transform="translate(-229.022 -357.549)"/>
        <path id="Path_598" d="M311.749 380.609a.8.8 0 0 1 .254.827c-.127.572-.763.827-1.4.954a4.6 4.6 0 0 1-1.718-.318c-.064-.064-.191 0-.127.064a3.548 3.548 0 0 1 1.781 1.527 3.13 3.13 0 0 1 .318 1.273c-.064.255-.064.508-.127.763-.127 0-.191-.127-.318-.254a5.305 5.305 0 0 1-.954-1.781c-.191-.064-.064.127-.064.191s.064.127.064.191c-.064.128 0 .382-.064.509a.923.923 0 0 1-.382.572 15.194 15.194 0 0 0-.318-1.654 2.66 2.66 0 0 0-.573-1.018 4.72 4.72 0 0 1-.254-.7l.063-.064a3.517 3.517 0 0 0 2.672-.19c.191-.191.446-.382.509-.636.191-.127 0-.382.318-.382a.488.488 0 0 1 .318.127z" class="cls-7" transform="translate(-229.62 -357.794)"/>
        <path id="Path_599" d="M308.486 384.04c.064.127.064.318.191.445v.764a5.252 5.252 0 0 0-.573-1.018c0-.318.064-.572.064-.827a1.5 1.5 0 0 1 .318.636z" class="cls-7" transform="translate(-229.666 -358.362)"/>
        <path id="Path_600" d="M308.225 385.494c.064.127.064.191.127.191s.064 0 .064-.064a1.076 1.076 0 0 1 0 .636 2.466 2.466 0 0 1 .382 1.082 3.115 3.115 0 0 1 .064.7.088.088 0 0 0 .127 0v-.445c.064-.191-.064-.382-.064-.636a2.421 2.421 0 0 1-.191-.636c.255-.064.445-.317.636-.445-.064.063-.127.19-.064.254.064.255.127.446.19.7.064.127 0 .318.064.445 0 .127 0 .382.063.445h.064a6.1 6.1 0 0 0-.064-1.527.389.389 0 0 1-.063-.255c.127.191.318.382.445.573a8.2 8.2 0 0 1 .255 1.209c-.064.508 0 .827-.064 1.336a7.127 7.127 0 0 1-.445 1.017 1.857 1.857 0 0 1-1.718.955c-.255-.064-.572-.064-.763-.255-.064 0-.127-.064-.191-.127a1.518 1.518 0 0 0 1.59-.955 2.889 2.889 0 0 0 .318-1.272c0-.127.064-.191-.064-.191-.127-.064-.064.064-.064.064a2.164 2.164 0 0 1-.064.636 1.854 1.854 0 0 1-1.082 1.463 1.227 1.227 0 0 1-.954-.064v-.064a1.793 1.793 0 0 0 1.145-.127 1.617 1.617 0 0 0 .573-.826c.064-.191.127-.509.191-.764.064-.382-.064-.7 0-1.081 0-.191-.191-.382-.127-.636a6.959 6.959 0 0 0-.89-1.972c0-.064.063-.127.063-.191a5.811 5.811 0 0 1 .509.827z" class="cls-7" transform="translate(-229.405 -358.608)"/>
        <path id="Path_601" d="M311.5 381.587c-.064.191-.318.255-.446.445a4.412 4.412 0 0 1-.827.318 1.762 1.762 0 0 0 1.527-.7.4.4 0 0 1-.191.317 1.339 1.339 0 0 1-1.4.509c-.063-.064 0-.064 0-.127-.19-.064-.508.127-.636-.064l.064-.064a2.677 2.677 0 0 0 1.908-.636z" class="cls-6" transform="translate(-229.943 -358.009)"/>
        <path id="Path_602" d="M308.277 382.285a3.3 3.3 0 0 1 1.018 1.909h-.064a2.244 2.244 0 0 0-.255-.572 1.516 1.516 0 0 0-.382-.7l-.573-.573c-.063-.064.127-.191.255-.064z" class="cls-6" transform="translate(-229.648 -358.134)"/>
        <path id="Path_603" d="M309.609 383.279a7.331 7.331 0 0 1 .317.7h-.126a4.447 4.447 0 0 0-.827-1.081v-.127c.255-.064.318.191.446.255l.191.255z" class="cls-6" transform="translate(-229.835 -358.237)"/>
        <path id="Path_604" d="M311.044 384.685a2.682 2.682 0 0 1 .254 1.146c0 .127.127.445-.064.508-.127 0 0-.127-.064-.19 0-.128-.064-.191 0-.318a2.725 2.725 0 0 0-.382-1.4c.191 0 .191.191.255.255z" class="cls-6" transform="translate(-230.188 -358.562)"/>
        <path id="Path_605" d="M311.123 385.808c0 .127 0 .254-.127.318a3.726 3.726 0 0 1-.127-.827c.127.064.191.318.255.509z" class="cls-6" transform="translate(-230.203 -358.73)"/>
        <path id="Path_606" d="M309.638 386.837a5.488 5.488 0 0 1 .255 1.781h-.064c-.127-.381-.064-.636-.191-1.017a4.467 4.467 0 0 0-.191-.891c.127-.126.191.064.191.127z" class="cls-6" transform="translate(-229.927 -358.997)"/>
        <path id="Path_607" d="M309.412 389.991a1.5 1.5 0 0 0-.127.509 1.7 1.7 0 0 1-1.463 1.336c-.064 0-.191 0-.191-.064.254-.191.7-.127.954-.446a3.158 3.158 0 0 0 .764-1.527c.127 0 0 .127.064.191z" class="cls-6" transform="translate(-229.574 -359.606)"/>
        <path id="Path_608" d="M310.021 390.149v.318a1.8 1.8 0 0 1-.827 1.336.391.391 0 0 1-.382.064c-.064-.127.255-.127.318-.254a2.21 2.21 0 0 0 .827-1.654c.126 0 .063.127.063.191z" class="cls-6" transform="translate(-229.802 -359.636)"/>
        <path id="Path_609" d="M304.156 389.27a3.038 3.038 0 0 0 2.163 1.717 4.317 4.317 0 0 0 .954.127 2.125 2.125 0 0 1-1.272-.891 1.752 1.752 0 0 1 .318-1.845 1.618 1.618 0 0 1 1.017-.318 1.368 1.368 0 0 0-.254-.763 1.26 1.26 0 0 0-1.082-.191 2.8 2.8 0 0 0-.7.509 1.4 1.4 0 0 0-.382.954c-.127.318 0 .573 0 .891-.064 0-.064-.127-.127-.127a2.4 2.4 0 0 1 .064-1.336 4.771 4.771 0 0 1 .827-1.145 3.142 3.142 0 0 0 .382-1.463.482.482 0 0 0-.064-.255 1.637 1.637 0 0 0-.764-1.336c-.127 0-.127.064-.127.128.064.19 0 .381.064.572a5.821 5.821 0 0 1-.573 1.463 10.888 10.888 0 0 1-.063 1.908 9.016 9.016 0 0 1-.382 1.4z" class="cls-5" transform="translate(-228.899 -358.439)"/>
        <path id="Path_610" d="M295.132 379.376c1.909 2.672 4.008 5.281 5.916 7.952a6.169 6.169 0 0 1-.509 1.527c-1.844-2.354-3.562-4.708-5.407-7.126h-.064c-1.845 2.354-3.562 4.708-5.344 7.061a5.448 5.448 0 0 1-.573-1.527c1.909-2.672 3.944-5.153 5.916-7.888z" class="cls-5" transform="translate(-225.982 -357.579)"/>
        <path id="Path_611" d="M291.5 380.015c0 .127.126.446 0 .636a.842.842 0 0 1-.636.573.888.888 0 0 1-.891-.318 1.214 1.214 0 0 1-.191-.509 1.032 1.032 0 0 1 .446-.891.873.873 0 0 1 .955.064.985.985 0 0 1 .318.445z" class="cls-5" transform="translate(-226.105 -357.582)"/>
        <path id="Path_612" d="M302.242 380.021l.064.255c-.064.254-.127.7-.445.89a.819.819 0 0 1-.764.064.9.9 0 0 1-.572-.891.914.914 0 0 1 .254-.637 1.127 1.127 0 0 1 .318-.255 1.027 1.027 0 0 1 1.146.573z" class="cls-5" transform="translate(-228.193 -357.588)"/>
        <path id="Path_613" d="M297.167 388.714a.952.952 0 0 1-.064.827.883.883 0 0 1-.764.445.855.855 0 0 1-.763-.318.979.979 0 0 1-.128-1.018.96.96 0 0 1 .827-.509.93.93 0 0 1 .891.572z" class="cls-5" transform="translate(-227.19 -359.283)"/>
        <path id="Path_614" d="M297.385 378.793c-.064 0-.127 0-.127.064-.064.127.064.127.064.191 1.781 2.48 3.626 4.771 5.343 7.252a1.078 1.078 0 0 1-.064.445c-1.909-2.608-3.944-5.153-5.789-7.76.191-.127.509-.127.636-.318a.2.2 0 0 0-.064.127z" class="cls-7" transform="translate(-227.471 -357.441)"/>
        <path id="Path_615" d="M294.847 379.03c-1.845 2.608-3.88 5.025-5.788 7.761a1.754 1.754 0 0 1-.064-.572c1.845-2.418 3.626-4.835 5.407-7.316l.445.127z" class="cls-7" transform="translate(-225.951 -357.487)"/>
        <path id="Path_616" d="M296.77 384.823c1.208 1.654 2.544 3.308 3.753 5.025l-.127.318c-1.018-1.335-1.972-2.671-3.054-4.008-.7-.89-1.336-1.845-2.036-2.735-.19-.064-.127.127-.254.19-1.59 2.163-3.181 4.262-4.835 6.489-.064-.064-.064-.191-.127-.254-.127-.064.064-.191.127-.255 1.654-2.29 3.372-4.516 5.025-6.743a16.194 16.194 0 0 1 1.527 1.972z" class="cls-7" transform="translate(-226.156 -358.255)"/>
        <path id="Path_617" d="M292.963 356.352c0 .064-.191.064-.255.064a.477.477 0 0 1-.318-.064c0-.127.127 0 .191-.063.127 0 .445-.318.382.063z" class="cls-6" transform="translate(-226.611 -353.067)"/>
        <path id="Path_618" d="M290.341 376.672c-.255.127-.382.381-.637.381.064-.127.255-.19.382-.318.064-.064.191-.191.318-.127l-.064.064z" class="cls-6" transform="translate(-226.089 -357.038)"/>
        <path id="Path_619" d="M288.409 377.624a2.86 2.86 0 0 1-.764.382c-.064-.064 0-.064.064-.064a2.116 2.116 0 0 1 .636-.382h.064v.064z" class="cls-6" transform="translate(-225.684 -357.226)"/>
        <path id="Path_620" d="M305.078 377.935a1.11 1.11 0 0 1-.764-.382c0-.064.064 0 .127 0 .191.127.509.191.636.382z" class="cls-6" transform="translate(-228.929 -357.219)"/>
    </g>
</svg>
