<svg xmlns="http://www.w3.org/2000/svg" width="194.702" height="29.578" viewBox="0 0 194.702 29.578">
    <defs>
        <clipPath id="clip-path">
            <path id="path3538" d="M862.458-2129.187h194.7v29.578h-194.7z" class="cls-1" transform="translate(-862.458 2129.187)"/>
        </clipPath>
        <style>
            .cls-1{fill:#0d0d0d}.cls-2{clip-path:url(#clip-path)}
        </style>
    </defs>
    <g id="g3344" transform="translate(0 0)">
        <g id="g3532" transform="translate(0.002 0)">
            <g id="g3534" class="cls-2" transform="translate(0)">
                <g id="g3540" transform="translate(170.962 7.786)">
                    <path id="path3542" d="M-31.233-29.413a10.021 10.021 0 0 1-5.517 3.048 13.6 13.6 0 0 1-4.307.207 10.143 10.143 0 0 1-5.276-2.059 11 11 0 0 1-3.092-3.477 9.564 9.564 0 0 1-1.215-3.4 11.235 11.235 0 0 1 .246-4.989 10.141 10.141 0 0 1 7.908-7.455 13.6 13.6 0 0 1 6.47.155 8.941 8.941 0 0 1 4.038 2.212 8.141 8.141 0 0 1 1.768 2.317 6.179 6.179 0 0 1 .727 3.34h-7.022a3.431 3.431 0 0 0-1.362-2.267 2.86 2.86 0 0 0-3.3-.159 3.261 3.261 0 0 0-1.442 1.858 9.486 9.486 0 0 0-.093 5.64 4.259 4.259 0 0 0 1.232 2.034 2.932 2.932 0 0 0 2.538.8 2.359 2.359 0 0 0 1.48-.8 3.049 3.049 0 0 0 .771-1.582 9.641 9.641 0 0 0 .144-1.243h7.4a7.427 7.427 0 0 1-2.1 5.812" class="cls-1" transform="translate(50.811 47.852)"/>
                </g>
            </g>
        </g>
        <path id="path3544" d="M775.55-996.467h7.68v-5.425h-7.68z" class="cls-1" transform="translate(-613.311 1002.03)"/>
        <path id="path3546" d="M775.55-960.037h7.68v-20.538h-7.68z" class="cls-1" transform="translate(-613.311 988.926)"/>
        <g id="g3548" transform="translate(138.747 7.627)">
            <path id="path3550" d="M-12.1-4.614a12.706 12.706 0 0 1 3.2-2.07 8.331 8.331 0 0 1 6.066-.452 6.622 6.622 0 0 1 4.583 4.48A9.915 9.915 0 0 1 2.234.5v13.254h-8.157V1.833A3.553 3.553 0 0 0-6.091.715 2.254 2.254 0 0 0-7.412-.752 3.078 3.078 0 0 0-11.3.533a3.352 3.352 0 0 0-.483 1.778v11.443h-7.9V-6.785h7.411l.171 2.171" class="cls-1" transform="translate(19.678 7.506)"/>
        </g>
        <g id="g3552" transform="translate(47.912 7.627)">
            <path id="path3554" d="M-12.1-4.614a12.735 12.735 0 0 1 3.19-2.071 8.335 8.335 0 0 1 6.067-.452 6.622 6.622 0 0 1 4.584 4.48A9.915 9.915 0 0 1 2.234.5v13.254h-8.157V1.833A3.656 3.656 0 0 0-6.089.715 2.262 2.262 0 0 0-7.415-.752 3.075 3.075 0 0 0-11.3.533a3.343 3.343 0 0 0-.484 1.778v11.443h-7.9V-6.785h7.41l.172 2.171" class="cls-1" transform="translate(19.678 7.506)"/>
        </g>
        <g id="g3556" transform="translate(0.002 0)">
            <g id="g3558" class="cls-2" transform="translate(0)">
                <g id="g3564" transform="translate(93.342 7.735)">
                    <path id="path3566" d="M-16.844-21.7a10.428 10.428 0 0 1 1.645.411 1.318 1.318 0 0 1 .9 1 1.5 1.5 0 0 1-.416 1.411 2.352 2.352 0 0 1-1.366.7 3.93 3.93 0 0 1-2.056-.195 2.774 2.774 0 0 1-.873-.5 2.212 2.212 0 0 1-.717-1.079 3.337 3.337 0 0 1-.154-1.1H-27.4v.438a5.337 5.337 0 0 0 .359 1.97 6.289 6.289 0 0 0 1.674 2.492 7.987 7.987 0 0 0 3.42 1.93 18.229 18.229 0 0 0 8.143.511 11.247 11.247 0 0 0 3.652-1.191 7.386 7.386 0 0 0 1.414-.944 6.255 6.255 0 0 0 1.973-6.835 4.988 4.988 0 0 0-1.548-2.341 8.658 8.658 0 0 0-3.4-1.854c-.288-.083-.534-.154-.825-.233a36.575 36.575 0 0 0-4.65-.989c-.443-.066-.816-.137-1.253-.239a2.887 2.887 0 0 1-.557-.19.918.918 0 0 1-.459-1.215c.012-.025.022-.047.035-.07a1.79 1.79 0 0 1 1.1-.875 3.968 3.968 0 0 1 2.492.06 1.867 1.867 0 0 1 1.281 1.871H-7.3a7.156 7.156 0 0 0-.443-2.479 4.408 4.408 0 0 0-1.482-2.053 7.046 7.046 0 0 0-1.936-1.107 10.526 10.526 0 0 0-2.1-.584 21.4 21.4 0 0 0-5.16-.292 16.35 16.35 0 0 0-2.933.427 8.793 8.793 0 0 0-3.577 1.718A5.7 5.7 0 0 0-26.88-30.4a4.961 4.961 0 0 0-.288 1.5 5.735 5.735 0 0 0 .423 2.506 5.458 5.458 0 0 0 3.161 3.161 12.422 12.422 0 0 0 2.23.667c1.582.327 2.921.581 4.514.853" class="cls-1" transform="translate(27.402 35.304)"/>
                </g>
            </g>
        </g>
        <g id="g3568" transform="translate(0 0.135)">
            <path id="path3570" d="M-22.326-31.74H-27.6v-6.739h3.425c.65 0 1.2-.015 1.851-.052a2.821 2.821 0 0 0 2.187-1.178 2.637 2.637 0 0 0 .513-1.25A4.558 4.558 0 0 0-19.6-42.1a2.894 2.894 0 0 0-2.894-2.625H-27.6v21.843h-8.725v-28.754h14.265c.567 0 1.046.011 1.612.042a9.73 9.73 0 0 1 8.5 5.737 9.824 9.824 0 0 1 .9 5.466 9.331 9.331 0 0 1-7.4 8.23 17.21 17.21 0 0 1-3.887.421" class="cls-1" transform="translate(36.322 51.636)"/>
        </g>
        <g id="g3572" transform="translate(114.755 7.775)">
            <path id="path3574" d="M-21.986-.29a14.078 14.078 0 0 0-2.327-.182 14.092 14.092 0 0 0-2.328.182 10.668 10.668 0 0 0-5.989 2.97 9.769 9.769 0 0 0-3.082 6.41 11.748 11.748 0 0 0 .4 4.419 10.151 10.151 0 0 0 3.765 5.571 9.743 9.743 0 0 0 4.057 1.883 14.062 14.062 0 0 0 3.177.341 14.086 14.086 0 0 0 3.178-.341 9.745 9.745 0 0 0 4.055-1.883l-4.413-4.809a3.091 3.091 0 0 1-4.089 1.551 2.98 2.98 0 0 1-1.553-1.551 7.164 7.164 0 0 1-.581-1.981 11.451 11.451 0 0 1 .089-4.128 5.292 5.292 0 0 1 .807-1.985 3 3 0 0 1 4.15-.867 2.837 2.837 0 0 1 .862.865A5.276 5.276 0 0 1-21 8.16a11.53 11.53 0 0 1 .089 4.128 7.207 7.207 0 0 1-.582 1.981l4.413 4.809a10.139 10.139 0 0 0 3.765-5.571 11.772 11.772 0 0 0 .4-4.419 9.762 9.762 0 0 0-3.081-6.41 10.656 10.656 0 0 0-5.99-2.968" class="cls-1" transform="translate(35.768 0.471)"/>
        </g>
        <g id="g3576" transform="translate(0.002 0)">
            <g id="g3578" class="cls-2" transform="translate(0)">
                <g id="g3584" transform="translate(70.81 7.798)">
                    <path id="path3586" d="M-34.6-31.076c-.115-1.692-.179-3.125-.213-4.823-.045-2.231-.071-4.113-.087-6.343a13.248 13.248 0 0 0-.443-3.384 5.361 5.361 0 0 0-2.666-3.458 8.68 8.68 0 0 0-2.525-.953 21.429 21.429 0 0 0-8.561-.169 10.4 10.4 0 0 0-2.32.673 6.171 6.171 0 0 0-3.655 4 4.913 4.913 0 0 0-.2 2.119 1.111 1.111 0 0 0 .112.378l6.911.169a3.078 3.078 0 0 1 .189-1.227 2.1 2.1 0 0 1 1.3-1.308 4.039 4.039 0 0 1 2.76-.047 1.882 1.882 0 0 1 1.248 1.268 1.22 1.22 0 0 1-.173 1.1 1.633 1.633 0 0 1-.79.618 5.732 5.732 0 0 1-.593.192 27.152 27.152 0 0 1-2.762.6c-.777.128-1.431.248-2.2.405a24.528 24.528 0 0 0-2.932.766 6.128 6.128 0 0 0-2.376 1.386 5.007 5.007 0 0 0-1.644 3.119 6.355 6.355 0 0 0 .095 2.389 5.72 5.72 0 0 0 4.081 4.34 9.98 9.98 0 0 0 6.792-.344 6.473 6.473 0 0 0 2.692-1.966l-.487-3.531a2.989 2.989 0 0 1-1.365 1.165 5.14 5.14 0 0 1-1.64.431 3.65 3.65 0 0 1-1.41-.122 2.008 2.008 0 0 1-.975-.586 1.746 1.746 0 0 1-.445-.862 1.371 1.371 0 0 1 .465-1.359 2.719 2.719 0 0 1 .867-.507c.8-.3 1.488-.517 2.31-.75a17.831 17.831 0 0 0 2.754-1.015 7.806 7.806 0 0 1-.016 2.142 3.426 3.426 0 0 1-.544 1.464l.487 3.531c.151.5.291.921.462 1.412a2 2 0 0 0 .416.7h7.613a3.289 3.289 0 0 1-.531-1.618" class="cls-1" transform="translate(56.289 50.557)"/>
                </g>
                <g id="g3588" transform="translate(24.7 7.798)">
                    <path id="path3590" d="M-34.6-31.076c-.115-1.692-.179-3.125-.213-4.823-.046-2.231-.071-4.113-.087-6.343a13.145 13.145 0 0 0-.443-3.384 5.357 5.357 0 0 0-2.666-3.458 8.68 8.68 0 0 0-2.525-.953 21.435 21.435 0 0 0-8.562-.169 10.408 10.408 0 0 0-2.319.673 6.171 6.171 0 0 0-3.655 4 4.913 4.913 0 0 0-.2 2.119 1.084 1.084 0 0 0 .111.378l6.911.169a3.1 3.1 0 0 1 .189-1.227 2.1 2.1 0 0 1 1.3-1.308A4.036 4.036 0 0 1-44-45.447a1.887 1.887 0 0 1 1.251 1.268 1.228 1.228 0 0 1-.176 1.1 1.643 1.643 0 0 1-.79.618 5.661 5.661 0 0 1-.594.192 27.131 27.131 0 0 1-2.761.6c-.776.128-1.431.248-2.2.405a24.7 24.7 0 0 0-2.93.764 6.149 6.149 0 0 0-2.375 1.386 5.013 5.013 0 0 0-1.644 3.119 6.307 6.307 0 0 0 .1 2.389 5.717 5.717 0 0 0 4.079 4.34 9.983 9.983 0 0 0 6.793-.344 6.484 6.484 0 0 0 2.693-1.966l-.487-3.531a2.989 2.989 0 0 1-1.367 1.165 5.135 5.135 0 0 1-1.638.431 3.654 3.654 0 0 1-1.411-.122 2 2 0 0 1-.974-.586 1.739 1.739 0 0 1-.446-.862 1.373 1.373 0 0 1 .465-1.359 2.694 2.694 0 0 1 .867-.507c.8-.3 1.489-.517 2.311-.75a17.875 17.875 0 0 0 2.754-1.015 7.851 7.851 0 0 1-.018 2.142 3.456 3.456 0 0 1-.543 1.464l.487 3.531c.15.5.289.921.462 1.412a1.974 1.974 0 0 0 .415.7h7.613a3.3 3.3 0 0 1-.531-1.618" class="cls-1" transform="translate(56.291 50.557)"/>
                </g>
            </g>
        </g>
    </g>
</svg>
