<svg xmlns="http://www.w3.org/2000/svg" id="linkedin-2" width="19.41" height="18.553" viewBox="0 0 19.41 18.553">
    <defs>
        <style>
            .cls-1{fill:#fff}
        </style>
    </defs>
    <path id="Path_16963" d="M2.354-.668A2.169 2.169 0 1 0 2.3 3.658h.027a2.17 2.17 0 1 0 .027-4.326zm0 0" class="cls-1" transform="translate(0 0.668)"/>
    <path id="Path_16964" d="M8.109 198.313h4.161v12.518H8.109zm0 0" class="cls-1" transform="translate(-7.863 -192.278)"/>
    <path id="Path_16965" d="M229.126 188.625a5.213 5.213 0 0 0-3.75 2.109v-1.815h-4.161v12.518h4.161v-6.991a2.852 2.852 0 0 1 .137-1.016 2.278 2.278 0 0 1 2.135-1.521c1.506 0 2.108 1.148 2.108 2.831v6.7h4.16v-7.178c0-3.848-2.053-5.637-4.79-5.637zm0 0" class="cls-1" transform="translate(-214.506 -182.884)"/>
</svg>
