<svg xmlns="http://www.w3.org/2000/svg" width="18.554" height="18.553" viewBox="0 0 18.554 18.553">
    <g>
        <path fill="#fff" d="M13.933 1.254A9.074 9.074 0 0 0 9.277.01 9.074 9.074 0 0 0 4.62 1.254 9.237 9.237 0 0 0 1.244 4.63 9.075 9.075 0 0 0 0 9.287 8.991 8.991 0 0 0 1.534 14.4a9.243 9.243 0 0 0 4.022 3.39 7.986 7.986 0 0 1 .157-2.138l1.2-5.049a3.222 3.222 0 0 1-.3-1.474 2.766 2.766 0 0 1 .519-1.715A1.544 1.544 0 0 1 8.4 6.725a1.133 1.133 0 0 1 .93.4 1.531 1.531 0 0 1 .326 1 3.761 3.761 0 0 1-.139.912q-.139.538-.362 1.244t-.32 1.129a1.37 1.37 0 0 0 .278 1.262 1.477 1.477 0 0 0 1.184.525 2.429 2.429 0 0 0 2.12-1.437 6.892 6.892 0 0 0 .827-3.491A3.425 3.425 0 0 0 12.218 5.7a3.915 3.915 0 0 0-2.845-.99 4.4 4.4 0 0 0-4.565 4.443 2.749 2.749 0 0 0 .616 1.824.551.551 0 0 1 .133.519q-.024.073-.1.362c-.048.193-.081.318-.1.374q-.1.387-.459.242a2.725 2.725 0 0 1-1.413-1.341 4.829 4.829 0 0 1-.483-2.21 5.272 5.272 0 0 1 .26-1.619 5.52 5.52 0 0 1 .809-1.564 6.36 6.36 0 0 1 1.323-1.334 6.186 6.186 0 0 1 1.866-.93 7.762 7.762 0 0 1 2.368-.35 6.218 6.218 0 0 1 3.08.761 5.44 5.44 0 0 1 2.084 1.969 4.972 4.972 0 0 1 .719 2.585 8.127 8.127 0 0 1-.628 3.261 5.356 5.356 0 0 1-1.776 2.277 4.351 4.351 0 0 1-2.609.827 2.862 2.862 0 0 1-1.377-.344 2.013 2.013 0 0 1-.882-.815q-.543 2.138-.652 2.549a7.436 7.436 0 0 1-.942 1.981 9.276 9.276 0 0 0 7.29-.858 9.238 9.238 0 0 0 3.376-3.376 9.075 9.075 0 0 0 1.244-4.656 9.076 9.076 0 0 0-1.244-4.657 9.242 9.242 0 0 0-3.378-3.376z" transform="translate(0 0) translate(0 -0.01)"/>
    </g>
</svg>
