<svg xmlns="http://www.w3.org/2000/svg" width="16.02" height="15.924" viewBox="0 0 16.02 15.924">
    <path d="M22150.3 10912.828a1.716 1.716 0 0 1-1.27-1.418 1.977 1.977 0 0 1 .547-1.75c.77-.777 1.523-1.555 2.293-2.33q1.178-1.189 2.344-2.369-2.309-2.35-4.621-4.684a1.922 1.922 0 0 1-.238-2.512 1.85 1.85 0 0 1 2.754-.268c.605.551 1.172 1.148 1.746 1.732l3.047 3.078a.7.7 0 0 0 .078.07h.047c.375-.383.754-.764 1.133-1.146q1.8-1.816 3.6-3.629a1.832 1.832 0 0 1 1.941-.51 1.786 1.786 0 0 1 1.281 1.436 1.973 1.973 0 0 1-.543 1.732l-2.309 2.33-2.34 2.375q2.309 2.347 4.633 4.693a1.938 1.938 0 0 1 .238 2.5 1.884 1.884 0 0 1-2.77.283c-.605-.551-1.156-1.166-1.734-1.748a797.364 797.364 0 0 1-3.047-3.062.765.765 0 0 0-.09-.084.146.146 0 0 1-.043 0c-.379.385-.758.768-1.141 1.148-1.2 1.209-2.395 2.436-3.6 3.646a1.814 1.814 0 0 1-1.32.588 2.151 2.151 0 0 1-.616-.101z" transform="translate(-22148.994 -10897)" style="fill:#0d0d0d"/>
</svg>
